<svg width="108" height="29" viewBox="0 0 108 29" fill="none" xmlns="http://www.w3.org/2000/svg">
<path d="M0.939339 12.9393C0.353552 13.5251 0.353552 14.4749 0.939339 15.0607L10.4853 24.6066C11.0711 25.1924 12.0208 25.1924 12.6066 24.6066C13.1924 24.0208 13.1924 23.0711 12.6066 22.4853L4.12132 14L12.6066 5.51472C13.1924 4.92893 13.1924 3.97918 12.6066 3.3934C12.0208 2.80761 11.0711 2.80761 10.4853 3.3934L0.939339 12.9393ZM32 12.5L2 12.5L2 15.5L32 15.5L32 12.5Z" fill="black"/>
<path d="M51.5952 23V5.54545H58.5838C59.8679 5.54545 60.9389 5.7358 61.7969 6.11648C62.6548 6.49716 63.2997 7.02557 63.7315 7.7017C64.1634 8.37216 64.3793 9.14489 64.3793 10.0199C64.3793 10.7017 64.2429 11.3011 63.9702 11.8182C63.6974 12.3295 63.3224 12.75 62.8452 13.0795C62.3736 13.4034 61.8338 13.6335 61.2259 13.7699V13.9403C61.8906 13.9687 62.5128 14.1562 63.0923 14.5028C63.6776 14.8494 64.152 15.3352 64.5156 15.9602C64.8793 16.5795 65.0611 17.3182 65.0611 18.1761C65.0611 19.1023 64.831 19.929 64.3707 20.6562C63.9162 21.3778 63.2429 21.9489 62.3509 22.3693C61.4588 22.7898 60.3594 23 59.0526 23H51.5952ZM55.2855 19.983H58.294C59.3224 19.983 60.0724 19.7869 60.544 19.3949C61.0156 18.9972 61.2514 18.4687 61.2514 17.8097C61.2514 17.3267 61.1349 16.9006 60.902 16.5312C60.669 16.1619 60.3366 15.8722 59.9048 15.6619C59.4787 15.4517 58.9702 15.3466 58.3793 15.3466H55.2855V19.983ZM55.2855 12.8494H58.0213C58.527 12.8494 58.9759 12.7614 59.3679 12.5852C59.7656 12.4034 60.0781 12.1477 60.3054 11.8182C60.5384 11.4886 60.6548 11.0938 60.6548 10.6335C60.6548 10.0028 60.4304 9.49432 59.9815 9.10795C59.5384 8.72159 58.9077 8.52841 58.0895 8.52841H55.2855V12.8494ZM71.1271 23.2472C70.2919 23.2472 69.5476 23.1023 68.8942 22.8125C68.2408 22.517 67.7237 22.0824 67.343 21.5085C66.968 20.929 66.7805 20.2074 66.7805 19.3438C66.7805 18.6165 66.9141 18.0057 67.1811 17.5114C67.4482 17.017 67.8118 16.6193 68.272 16.3182C68.7322 16.017 69.255 15.7898 69.8402 15.6364C70.4311 15.483 71.0504 15.375 71.6982 15.3125C72.4595 15.233 73.0732 15.1591 73.5391 15.0909C74.005 15.017 74.343 14.9091 74.5533 14.767C74.7635 14.625 74.8686 14.4148 74.8686 14.1364V14.0852C74.8686 13.5455 74.6982 13.1278 74.3572 12.8324C74.022 12.5369 73.5447 12.3892 72.9254 12.3892C72.272 12.3892 71.7521 12.5341 71.3658 12.8239C70.9794 13.108 70.7237 13.4659 70.5987 13.8977L67.2408 13.625C67.4112 12.8295 67.7464 12.142 68.2464 11.5625C68.7464 10.9773 69.3913 10.5284 70.1811 10.2159C70.9766 9.89773 71.897 9.73864 72.9425 9.73864C73.6697 9.73864 74.3658 9.82386 75.0305 9.99432C75.701 10.1648 76.2947 10.429 76.8118 10.7869C77.3345 11.1449 77.7464 11.6051 78.0476 12.1676C78.3487 12.7244 78.4993 13.392 78.4993 14.1705V23H75.0561V21.1847H74.9538C74.7436 21.5938 74.4624 21.9545 74.1101 22.267C73.7578 22.5739 73.3345 22.8153 72.8402 22.9915C72.3459 23.1619 71.7749 23.2472 71.1271 23.2472ZM72.1669 20.7415C72.701 20.7415 73.1726 20.6364 73.5817 20.4261C73.9908 20.2102 74.3118 19.9205 74.5447 19.5568C74.7777 19.1932 74.8942 18.7812 74.8942 18.321V16.9318C74.7805 17.0057 74.6243 17.0739 74.4254 17.1364C74.2322 17.1932 74.0135 17.2472 73.7692 17.2983C73.5249 17.3437 73.2805 17.3864 73.0362 17.4261C72.7919 17.4602 72.5703 17.4915 72.3714 17.5199C71.9453 17.5824 71.5732 17.6818 71.255 17.8182C70.9368 17.9545 70.6896 18.1392 70.5135 18.3722C70.3374 18.5994 70.2493 18.8835 70.2493 19.2244C70.2493 19.7188 70.4283 20.0966 70.7862 20.358C71.1499 20.6136 71.6101 20.7415 72.1669 20.7415ZM87.2308 23.2557C85.8899 23.2557 84.7365 22.9716 83.7706 22.4034C82.8104 21.8295 82.0717 21.0341 81.5547 20.017C81.0433 19 80.7876 17.8295 80.7876 16.5057C80.7876 15.1648 81.0462 13.9886 81.5632 12.9773C82.0859 11.9602 82.8274 11.1676 83.7876 10.5994C84.7479 10.0256 85.8899 9.73864 87.2138 9.73864C88.3558 9.73864 89.3558 9.94602 90.2138 10.3608C91.0717 10.7756 91.7507 11.358 92.2507 12.108C92.7507 12.858 93.0263 13.7386 93.0774 14.75H89.6513C89.5547 14.0966 89.299 13.571 88.8842 13.1733C88.4751 12.7699 87.9382 12.5682 87.2734 12.5682C86.7109 12.5682 86.2195 12.7216 85.799 13.0284C85.3842 13.3295 85.0604 13.7699 84.8274 14.3494C84.5945 14.929 84.478 15.6307 84.478 16.4545C84.478 17.2898 84.5916 18 84.8189 18.5852C85.0518 19.1705 85.3786 19.6165 85.799 19.9233C86.2195 20.2301 86.7109 20.3835 87.2734 20.3835C87.6882 20.3835 88.0604 20.2983 88.3899 20.1278C88.7251 19.9574 89.0007 19.7102 89.2166 19.3864C89.4382 19.0568 89.5831 18.6619 89.6513 18.2017H93.0774C93.0206 19.2017 92.7479 20.0824 92.2592 20.8438C91.7763 21.5994 91.1087 22.1903 90.2564 22.6165C89.4041 23.0426 88.3956 23.2557 87.2308 23.2557ZM98.6918 19.233L98.7003 14.8778H99.2287L103.422 9.90909H107.589L101.956 16.4886H101.095L98.6918 19.233ZM95.402 23V5.54545H99.0327V23H95.402ZM103.584 23L99.7315 17.2983L102.152 14.733L107.837 23H103.584Z" fill="black"/>
</svg>
