<svg width="38" height="9" viewBox="0 0 38 9" fill="none" xmlns="http://www.w3.org/2000/svg">
<g id="bedroom button">
<path id="Vector" d="M18.8387 9C21.324 9 23.3387 6.98528 23.3387 4.5C23.3387 2.01472 21.324 0 18.8387 0C16.3535 0 14.3387 2.01472 14.3387 4.5C14.3387 6.98528 16.3535 9 18.8387 9Z" fill="#FABA33"/>
<path id="Vector_2" d="M33.1642 9C35.6495 9 37.6642 6.98528 37.6642 4.5C37.6642 2.01472 35.6495 0 33.1642 0C30.6789 0 28.6642 2.01472 28.6642 4.5C28.6642 6.98528 30.6789 9 33.1642 9Z" fill="#4FAF45"/>
<path id="Vector_3" d="M4.5 9C6.98528 9 9 6.98528 9 4.5C9 2.01472 6.98528 0 4.5 0C2.01472 0 0 2.01472 0 4.5C0 6.98528 2.01472 9 4.5 9Z" fill="#EC5F5B"/>
</g>
</svg>
