<svg width="98" height="33" viewBox="0 0 98 33" fill="none" xmlns="http://www.w3.org/2000/svg">
<rect width="98" height="33" fill="#282828"/>
<path d="M35.6816 10.78H37.8216V11C37.8216 13.74 36.1816 15.98 32.6216 16.7L31.5616 14.64C34.4216 14.12 35.6816 12.6 35.6816 11V10.78ZM36.2216 10.78H38.3616V11C38.3616 12.5 39.6016 13.88 42.4016 14.38L41.3616 16.42C37.8616 15.76 36.2216 13.62 36.2216 11V10.78ZM32.0616 9.1H41.9616V11.14H32.0616V9.1ZM35.6816 7.3H38.3616V10.56H35.6816V7.3ZM35.6616 17.78H38.3216V25.22H35.6616V17.78ZM43.7616 7.26H46.4016V25.78H43.7616V7.26ZM31.2816 19.64L30.9616 17.48C34.3216 17.48 38.8216 17.46 42.7016 16.94L42.8816 18.86C38.8816 19.58 34.5816 19.64 31.2816 19.64ZM49.32 21.44H66.08V23.62H49.32V21.44ZM56.28 17.32H58.92V22.02H56.28V17.32ZM56.18 8.28H58.5V9.62C58.5 13.56 55.64 17.04 50.8 17.92L49.7 15.7C53.92 15.02 56.18 12.18 56.18 9.62V8.28ZM56.7 8.28H59.02V9.62C59.02 12.24 61.28 15.02 65.52 15.7L64.42 17.92C59.56 17.02 56.7 13.62 56.7 9.62V8.28Z" fill="white"/>
</svg>
