<svg width="931" height="487" viewBox="0 0 931 487" fill="none" xmlns="http://www.w3.org/2000/svg">
<g filter="url(#filter0_d_209_22)">
<rect x="26" y="26" width="849" height="405" rx="21" fill="#E2E2E2"/>
<rect x="25.75" y="25.75" width="849.5" height="405.5" rx="21.25" stroke="#282828" stroke-width="0.5" shape-rendering="crispEdges"/>
</g>
<rect x="50" y="82" width="801" height="323" fill="white"/>
<path d="M817.347 48.3513C819.008 48.3513 820.346 49.701 820.346 51.3604V59.9376C820.346 61.6044 819.001 62.9466 817.347 62.9466H808.798C807.137 62.9466 805.799 61.597 805.799 59.9376V51.3604C805.799 49.6936 807.144 48.3513 808.798 48.3513" stroke="#303030" stroke-miterlimit="10"/>
<path d="M813.076 55.6528V44.3025" stroke="#303030" stroke-miterlimit="10"/>
<path d="M813.076 44.3025L810.092 47.2894" stroke="#303030" stroke-miterlimit="10"/>
<path d="M816.009 47.2893L812.738 44" stroke="#303030" stroke-miterlimit="10"/>
<path d="M848.956 48.521H840.076C838.724 48.521 837.621 49.6199 837.621 50.9843V60.4908C837.621 61.8478 838.716 62.954 840.076 62.954H849.552C850.904 62.954 852.007 61.8552 852.007 60.4908V51.3678" stroke="#303030" stroke-miterlimit="10"/>
<path d="M842.304 57.6955L852.169 47.7908L852.639 48.2554L842.84 58.0864L842.171 58.3961L842.304 57.6955Z" fill="#303030"/>
<path d="M853.205 47.7023C853.256 47.6138 853.205 47.4589 853.095 47.3483C852.985 47.2376 852.83 47.186 852.742 47.2376L852.426 47.5548L852.889 48.0194L853.205 47.7023Z" fill="#303030"/>
<path d="M787.561 62.9466H769.963C769.434 62.9466 769 62.5189 769 61.9805V52.179H788.517V61.9805C788.517 62.5115 788.09 62.9466 787.554 62.9466H787.561ZM788.524 52.1864V50.3721C788.524 49.5903 787.892 48.9634 787.12 48.9634H778.505C777.799 48.9634 777.167 48.5504 776.873 47.9014L776.483 47.0238C776.373 46.7804 776.13 46.6182 775.858 46.6182H769.632C769.287 46.6182 769.007 46.8984 769.007 47.245V52.1864H788.524Z" stroke="#303030" stroke-miterlimit="10"/>
<path d="M94.1288 60.269C98.5783 60.269 102.185 56.6501 102.185 52.1859C102.185 47.7217 98.5783 44.1028 94.1288 44.1028C89.6792 44.1028 86.0721 47.7217 86.0721 52.1859C86.0721 56.6501 89.6792 60.269 94.1288 60.269Z" fill="#FABA33"/>
<path d="M119.754 60.269C124.204 60.269 127.811 56.6501 127.811 52.1859C127.811 47.7217 124.204 44.1028 119.754 44.1028C115.305 44.1028 111.698 47.7217 111.698 52.1859C111.698 56.6501 115.305 60.269 119.754 60.269Z" fill="#4FAF45"/>
<path d="M68.5107 60.269C72.9603 60.269 76.5674 56.6501 76.5674 52.1859C76.5674 47.7217 72.9603 44.1028 68.5107 44.1028C64.0612 44.1028 60.4541 47.7217 60.4541 52.1859C60.4541 56.6501 64.0612 60.269 68.5107 60.269Z" fill="#EC5F5B"/>
<path d="M847.366 126.193C847.366 124.43 845.941 123 844.183 123C842.425 123 841 124.43 841 126.193V207.541C841 209.304 842.425 210.734 844.183 210.734C845.941 210.734 847.366 209.304 847.366 207.541V126.193Z" fill="#C3C2C2"/>
<defs>
<filter id="filter0_d_209_22" x="0.5" y="0.5" width="930" height="486" filterUnits="userSpaceOnUse" color-interpolation-filters="sRGB">
<feFlood flood-opacity="0" result="BackgroundImageFix"/>
<feColorMatrix in="SourceAlpha" type="matrix" values="0 0 0 0 0 0 0 0 0 0 0 0 0 0 0 0 0 0 127 0" result="hardAlpha"/>
<feOffset dx="15" dy="15"/>
<feGaussianBlur stdDeviation="20"/>
<feComposite in2="hardAlpha" operator="out"/>
<feColorMatrix type="matrix" values="0 0 0 0 0 0 0 0 0 0 0 0 0 0 0 0 0 0 0.25 0"/>
<feBlend mode="normal" in2="BackgroundImageFix" result="effect1_dropShadow_209_22"/>
<feBlend mode="normal" in="SourceGraphic" in2="effect1_dropShadow_209_22" result="shape"/>
</filter>
</defs>
</svg>
