<svg width="85" height="29" viewBox="0 0 85 29" fill="none" xmlns="http://www.w3.org/2000/svg">
<path d="M23.0925 10.652H18.3113C18.1749 9.8679 17.9235 9.17329 17.557 8.56818C17.1905 7.95454 16.7346 7.43466 16.1891 7.00852C15.6436 6.58239 15.0215 6.26278 14.3226 6.04972C13.6323 5.82813 12.8865 5.71733 12.0854 5.71733C10.6621 5.71733 9.40075 6.07528 8.30131 6.79119C7.20188 7.49858 6.34109 8.53835 5.71893 9.91051C5.09677 11.2741 4.78569 12.9403 4.78569 14.9091C4.78569 16.9119 5.09677 18.5994 5.71893 19.9716C6.34961 21.3352 7.2104 22.3665 8.30131 23.0653C9.40075 23.7557 10.6578 24.1009 12.0726 24.1009C12.8567 24.1009 13.5897 23.9986 14.2715 23.794C14.9618 23.581 15.5797 23.2699 16.1252 22.8608C16.6792 22.4517 17.1436 21.9489 17.5186 21.3523C17.9022 20.7557 18.1664 20.0739 18.3113 19.3068L23.0925 19.3324C22.9135 20.5767 22.5257 21.7443 21.9292 22.8352C21.3411 23.9261 20.5698 24.8892 19.6152 25.7244C18.6607 26.5511 17.5442 27.1989 16.2658 27.6676C14.9874 28.1278 13.5684 28.358 12.0087 28.358C9.70756 28.358 7.65359 27.8253 5.84677 26.7599C4.03995 25.6946 2.61666 24.1562 1.57688 22.1449C0.537109 20.1335 0.0172231 17.7216 0.0172231 14.9091C0.0172231 12.0881 0.541371 9.67614 1.58967 7.6733C2.63796 5.66193 4.06552 4.12358 5.87234 3.05824C7.67915 1.9929 9.72461 1.46023 12.0087 1.46023C13.4661 1.46023 14.8212 1.66477 16.074 2.07386C17.3269 2.48295 18.4434 3.08381 19.4235 3.87642C20.4036 4.66051 21.209 5.62358 21.8397 6.76562C22.4789 7.89915 22.8965 9.1946 23.0925 10.652ZM31.8592 1.81818V28H27.2314V1.81818H31.8592ZM36.6181 28V8.36364H41.2459V28H36.6181ZM38.9448 5.5767C38.2118 5.5767 37.5811 5.33381 37.0527 4.84801C36.5243 4.35369 36.2601 3.76136 36.2601 3.07102C36.2601 2.37216 36.5243 1.77983 37.0527 1.29403C37.5811 0.799715 38.2118 0.552556 38.9448 0.552556C39.6863 0.552556 40.3169 0.799715 40.8368 1.29403C41.3652 1.77983 41.6294 2.37216 41.6294 3.07102C41.6294 3.76136 41.3652 4.35369 40.8368 4.84801C40.3169 5.33381 39.6863 5.5767 38.9448 5.5767ZM54.5701 28.3835C52.6099 28.3835 50.9267 27.9531 49.5204 27.0923C48.1227 26.2315 47.0446 25.0426 46.286 23.5256C45.536 22 45.161 20.2443 45.161 18.2585C45.161 16.2642 45.5446 14.5043 46.3116 12.9787C47.0787 11.4446 48.161 10.2514 49.5588 9.39915C50.965 8.53835 52.627 8.10795 54.5446 8.10795C56.1383 8.10795 57.5488 8.40199 58.7761 8.99006C60.0119 9.5696 60.9963 10.392 61.7292 11.4574C62.4622 12.5142 62.8798 13.75 62.9821 15.1648H58.5588C58.3798 14.2187 57.9537 13.4304 57.2804 12.7997C56.6156 12.1605 55.725 11.8409 54.6085 11.8409C53.6625 11.8409 52.8315 12.0966 52.1156 12.608C51.3997 13.1108 50.8414 13.8352 50.4409 14.7812C50.0488 15.7273 49.8528 16.8608 49.8528 18.1818C49.8528 19.5199 50.0488 20.6705 50.4409 21.6335C50.8329 22.5881 51.3826 23.3253 52.09 23.8452C52.8059 24.3565 53.6454 24.6122 54.6085 24.6122C55.2903 24.6122 55.8997 24.4844 56.4366 24.2287C56.9821 23.9645 57.438 23.5852 57.8045 23.0909C58.171 22.5966 58.4224 21.9957 58.5588 21.2884H62.9821C62.8713 22.6776 62.4622 23.9091 61.7548 24.983C61.0474 26.0483 60.0843 26.8835 58.8656 27.4886C57.6468 28.0852 56.215 28.3835 54.5701 28.3835ZM71.0009 21.8381L70.9881 16.2514H71.7296L78.7864 8.36364H84.1941L75.5137 18.0284H74.5549L71.0009 21.8381ZM66.7821 28V1.81818H71.41V28H66.7821ZM79.106 28L72.714 19.0639L75.8333 15.804L84.6415 28H79.106Z" fill="white"/>
</svg>
