<svg width="201" height="20" viewBox="0 0 201 20" fill="none" xmlns="http://www.w3.org/2000/svg">
<path d="M16.3786 7.65625H12.6456C12.5774 7.1733 12.4382 6.74432 12.228 6.36932C12.0178 5.98864 11.7479 5.66477 11.4183 5.39773C11.0888 5.13068 10.7081 4.92614 10.2763 4.78409C9.85014 4.64205 9.38707 4.57102 8.88707 4.57102C7.98366 4.57102 7.19673 4.79545 6.52628 5.24432C5.85582 5.6875 5.33594 6.33523 4.96662 7.1875C4.5973 8.03409 4.41264 9.0625 4.41264 10.2727C4.41264 11.517 4.5973 12.5625 4.96662 13.4091C5.34162 14.2557 5.86435 14.8949 6.5348 15.3267C7.20526 15.7585 7.98082 15.9744 8.86151 15.9744C9.35582 15.9744 9.81321 15.9091 10.2337 15.7784C10.6598 15.6477 11.0376 15.4574 11.3672 15.2074C11.6967 14.9517 11.9695 14.642 12.1854 14.2784C12.407 13.9148 12.5604 13.5 12.6456 13.0341L16.3786 13.0511C16.282 13.8523 16.0405 14.625 15.6541 15.3693C15.2734 16.108 14.7592 16.7699 14.1115 17.3551C13.4695 17.9347 12.7024 18.3949 11.8104 18.7358C10.924 19.071 9.92116 19.2386 8.80185 19.2386C7.24503 19.2386 5.85298 18.8864 4.62571 18.1818C3.40412 17.4773 2.43821 16.4574 1.72798 15.1222C1.02344 13.7869 0.671165 12.1705 0.671165 10.2727C0.671165 8.36932 1.02912 6.75 1.74503 5.41477C2.46094 4.07955 3.43253 3.0625 4.6598 2.36364C5.88707 1.65909 7.26776 1.30682 8.80185 1.30682C9.81321 1.30682 10.7507 1.44886 11.6143 1.73295C12.4837 2.01705 13.2536 2.43182 13.924 2.97727C14.5945 3.51704 15.1399 4.17898 15.5604 4.96307C15.9865 5.74716 16.2592 6.64489 16.3786 7.65625ZM22.5874 1.54545V19H18.9567V1.54545H22.5874ZM25.4957 19V5.90909H29.1264V19H25.4957ZM27.3196 4.22159C26.7798 4.22159 26.3168 4.04261 25.9304 3.68466C25.5497 3.32102 25.3594 2.88636 25.3594 2.38068C25.3594 1.88068 25.5497 1.4517 25.9304 1.09375C26.3168 0.730113 26.7798 0.548295 27.3196 0.548295C27.8594 0.548295 28.3196 0.730113 28.7003 1.09375C29.0866 1.4517 29.2798 1.88068 29.2798 2.38068C29.2798 2.88636 29.0866 3.32102 28.7003 3.68466C28.3196 4.04261 27.8594 4.22159 27.3196 4.22159ZM37.9496 19.2557C36.6087 19.2557 35.4553 18.9716 34.4893 18.4034C33.5291 17.8295 32.7905 17.0341 32.2734 16.017C31.7621 15 31.5064 13.8295 31.5064 12.5057C31.5064 11.1648 31.7649 9.98864 32.282 8.97727C32.8047 7.96023 33.5462 7.16761 34.5064 6.59943C35.4666 6.02557 36.6087 5.73864 37.9325 5.73864C39.0746 5.73864 40.0746 5.94602 40.9325 6.36079C41.7905 6.77557 42.4695 7.35795 42.9695 8.10795C43.4695 8.85795 43.745 9.73864 43.7962 10.75H40.37C40.2734 10.0966 40.0178 9.57102 39.603 9.1733C39.1939 8.76989 38.657 8.56818 37.9922 8.56818C37.4297 8.56818 36.9382 8.72159 36.5178 9.02841C36.103 9.32955 35.7791 9.76989 35.5462 10.3494C35.3132 10.929 35.1967 11.6307 35.1967 12.4545C35.1967 13.2898 35.3104 14 35.5376 14.5852C35.7706 15.1705 36.0973 15.6165 36.5178 15.9233C36.9382 16.2301 37.4297 16.3835 37.9922 16.3835C38.407 16.3835 38.7791 16.2983 39.1087 16.1278C39.4439 15.9574 39.7195 15.7102 39.9354 15.3864C40.157 15.0568 40.3018 14.6619 40.37 14.2017H43.7962C43.7393 15.2017 43.4666 16.0824 42.978 16.8438C42.495 17.5994 41.8274 18.1903 40.9751 18.6165C40.1229 19.0426 39.1143 19.2557 37.9496 19.2557ZM49.4105 15.233L49.419 10.8778H49.9474L54.1406 5.90909H58.3082L52.6747 12.4886H51.8139L49.4105 15.233ZM46.1207 19V1.54545H49.7514V19H46.1207ZM54.3026 19L50.4503 13.2983L52.8707 10.733L58.5554 19H54.3026ZM72.6072 5.90909V8.63636H64.7237V5.90909H72.6072ZM66.5135 2.77273H70.1442V14.9773C70.1442 15.3125 70.1953 15.5739 70.2976 15.7614C70.3999 15.9432 70.5419 16.071 70.7237 16.1449C70.9112 16.2187 71.1271 16.2557 71.3714 16.2557C71.5419 16.2557 71.7124 16.2415 71.8828 16.2131C72.0533 16.179 72.1839 16.1534 72.2749 16.1364L72.8459 18.8381C72.6641 18.8949 72.4084 18.9602 72.0788 19.0341C71.7493 19.1136 71.3487 19.1619 70.8771 19.179C70.0021 19.2131 69.2351 19.0966 68.576 18.8295C67.9226 18.5625 67.4141 18.1477 67.0504 17.5852C66.6868 17.0227 66.5078 16.3125 66.5135 15.4545V2.77273ZM80.7464 19.2557C79.4226 19.2557 78.2777 18.9744 77.3118 18.4119C76.3516 17.8437 75.6101 17.054 75.0874 16.0426C74.5646 15.0256 74.3033 13.8466 74.3033 12.5057C74.3033 11.1534 74.5646 9.97159 75.0874 8.96023C75.6101 7.94318 76.3516 7.15341 77.3118 6.59091C78.2777 6.02273 79.4226 5.73864 80.7464 5.73864C82.0703 5.73864 83.2124 6.02273 84.1726 6.59091C85.1385 7.15341 85.8828 7.94318 86.4055 8.96023C86.9283 9.97159 87.1896 11.1534 87.1896 12.5057C87.1896 13.8466 86.9283 15.0256 86.4055 16.0426C85.8828 17.054 85.1385 17.8437 84.1726 18.4119C83.2124 18.9744 82.0703 19.2557 80.7464 19.2557ZM80.7635 16.4432C81.3658 16.4432 81.8686 16.2727 82.272 15.9318C82.6754 15.5852 82.9794 15.1136 83.1839 14.517C83.3942 13.9205 83.4993 13.2415 83.4993 12.4801C83.4993 11.7188 83.3942 11.0398 83.1839 10.4432C82.9794 9.84659 82.6754 9.375 82.272 9.02841C81.8686 8.68182 81.3658 8.50852 80.7635 8.50852C80.1555 8.50852 79.6442 8.68182 79.2294 9.02841C78.8203 9.375 78.5107 9.84659 78.3004 10.4432C78.0959 11.0398 77.9936 11.7188 77.9936 12.4801C77.9936 13.2415 78.0959 13.9205 78.3004 14.517C78.5107 15.1136 78.8203 15.5852 79.2294 15.9318C79.6442 16.2727 80.1555 16.4432 80.7635 16.4432ZM105.997 9.64205L102.673 9.84659C102.616 9.5625 102.494 9.30682 102.307 9.07955C102.119 8.84659 101.872 8.66193 101.565 8.52557C101.264 8.38352 100.903 8.3125 100.483 8.3125C99.9205 8.3125 99.446 8.43182 99.0597 8.67045C98.6733 8.90341 98.4801 9.21591 98.4801 9.60795C98.4801 9.92045 98.6051 10.1847 98.8551 10.4006C99.1051 10.6165 99.5341 10.7898 100.142 10.9205L102.511 11.3977C103.784 11.6591 104.733 12.0795 105.358 12.6591C105.983 13.2386 106.295 14 106.295 14.9432C106.295 15.8011 106.043 16.554 105.537 17.2017C105.037 17.8494 104.349 18.3551 103.474 18.7188C102.605 19.0767 101.602 19.2557 100.466 19.2557C98.733 19.2557 97.3523 18.8949 96.3239 18.1733C95.3011 17.446 94.7017 16.4574 94.5256 15.2074L98.0966 15.0199C98.2045 15.5483 98.4659 15.9517 98.8807 16.2301C99.2955 16.5028 99.8267 16.6392 100.474 16.6392C101.111 16.6392 101.622 16.517 102.009 16.2727C102.401 16.0227 102.599 15.7017 102.605 15.3097C102.599 14.9801 102.46 14.7102 102.188 14.5C101.915 14.2841 101.494 14.1193 100.926 14.0057L98.6591 13.554C97.3807 13.2983 96.429 12.8551 95.804 12.2244C95.1847 11.5937 94.875 10.7898 94.875 9.8125C94.875 8.97159 95.1023 8.24716 95.5568 7.6392C96.017 7.03125 96.6619 6.5625 97.4915 6.23295C98.3267 5.90341 99.304 5.73864 100.423 5.73864C102.077 5.73864 103.378 6.08807 104.327 6.78693C105.281 7.4858 105.838 8.4375 105.997 9.64205ZM114.548 19.2557C113.201 19.2557 112.042 18.983 111.07 18.4375C110.104 17.8864 109.36 17.108 108.837 16.1023C108.315 15.0909 108.053 13.8949 108.053 12.5142C108.053 11.1676 108.315 9.9858 108.837 8.96875C109.36 7.9517 110.096 7.15909 111.045 6.59091C111.999 6.02273 113.119 5.73864 114.403 5.73864C115.266 5.73864 116.07 5.87784 116.815 6.15625C117.565 6.42898 118.218 6.84091 118.775 7.39205C119.337 7.94318 119.775 8.63636 120.087 9.47159C120.4 10.3011 120.556 11.2727 120.556 12.3864V13.3835H109.502V11.1335H117.138C117.138 10.6108 117.025 10.1477 116.798 9.74432C116.57 9.34091 116.255 9.02557 115.852 8.7983C115.454 8.56534 114.991 8.44886 114.462 8.44886C113.911 8.44886 113.423 8.5767 112.996 8.83239C112.576 9.08239 112.246 9.42045 112.008 9.84659C111.769 10.267 111.647 10.7358 111.641 11.2528V13.392C111.641 14.0398 111.761 14.5994 111.999 15.071C112.244 15.5426 112.587 15.9062 113.031 16.1619C113.474 16.4176 113.999 16.5455 114.607 16.5455C115.011 16.5455 115.38 16.4886 115.715 16.375C116.05 16.2614 116.337 16.0909 116.576 15.8636C116.815 15.6364 116.996 15.358 117.121 15.0284L120.479 15.25C120.309 16.0568 119.96 16.7614 119.431 17.3636C118.908 17.9602 118.232 18.4261 117.403 18.7614C116.579 19.0909 115.627 19.2557 114.548 19.2557ZM128.891 19.2557C127.545 19.2557 126.386 18.983 125.414 18.4375C124.448 17.8864 123.704 17.108 123.181 16.1023C122.658 15.0909 122.397 13.8949 122.397 12.5142C122.397 11.1676 122.658 9.9858 123.181 8.96875C123.704 7.9517 124.44 7.15909 125.388 6.59091C126.343 6.02273 127.462 5.73864 128.746 5.73864C129.61 5.73864 130.414 5.87784 131.158 6.15625C131.908 6.42898 132.562 6.84091 133.119 7.39205C133.681 7.94318 134.119 8.63636 134.431 9.47159C134.744 10.3011 134.9 11.2727 134.9 12.3864V13.3835H123.846V11.1335H131.482C131.482 10.6108 131.369 10.1477 131.141 9.74432C130.914 9.34091 130.599 9.02557 130.195 8.7983C129.798 8.56534 129.335 8.44886 128.806 8.44886C128.255 8.44886 127.766 8.5767 127.34 8.83239C126.92 9.08239 126.59 9.42045 126.352 9.84659C126.113 10.267 125.991 10.7358 125.985 11.2528V13.392C125.985 14.0398 126.104 14.5994 126.343 15.071C126.587 15.5426 126.931 15.9062 127.374 16.1619C127.817 16.4176 128.343 16.5455 128.951 16.5455C129.354 16.5455 129.724 16.4886 130.059 16.375C130.394 16.2614 130.681 16.0909 130.92 15.8636C131.158 15.6364 131.34 15.358 131.465 15.0284L134.823 15.25C134.653 16.0568 134.303 16.7614 133.775 17.3636C133.252 17.9602 132.576 18.4261 131.746 18.7614C130.923 19.0909 129.971 19.2557 128.891 19.2557ZM142.824 19V5.90909H146.284V8.21875H146.438C146.71 7.4517 147.165 6.84659 147.801 6.40341C148.438 5.96023 149.199 5.73864 150.085 5.73864C150.983 5.73864 151.747 5.96307 152.378 6.41193C153.009 6.85511 153.429 7.45739 153.639 8.21875H153.776C154.043 7.46875 154.526 6.86932 155.224 6.42045C155.929 5.96591 156.761 5.73864 157.722 5.73864C158.943 5.73864 159.935 6.12784 160.696 6.90625C161.463 7.67898 161.847 8.77557 161.847 10.196V19H158.224V10.9119C158.224 10.1847 158.031 9.6392 157.645 9.27557C157.259 8.91193 156.776 8.73011 156.196 8.73011C155.537 8.73011 155.023 8.94034 154.653 9.3608C154.284 9.77557 154.099 10.3239 154.099 11.0057V19H150.58V10.8352C150.58 10.1932 150.395 9.68182 150.026 9.30114C149.662 8.92045 149.182 8.73011 148.585 8.73011C148.182 8.73011 147.818 8.83239 147.494 9.03693C147.176 9.2358 146.923 9.51705 146.736 9.88068C146.548 10.2386 146.455 10.6591 146.455 11.142V19H142.824ZM170.629 19.2557C169.305 19.2557 168.161 18.9744 167.195 18.4119C166.234 17.8437 165.493 17.054 164.97 16.0426C164.447 15.0256 164.186 13.8466 164.186 12.5057C164.186 11.1534 164.447 9.97159 164.97 8.96023C165.493 7.94318 166.234 7.15341 167.195 6.59091C168.161 6.02273 169.305 5.73864 170.629 5.73864C171.953 5.73864 173.095 6.02273 174.055 6.59091C175.021 7.15341 175.766 7.94318 176.288 8.96023C176.811 9.97159 177.072 11.1534 177.072 12.5057C177.072 13.8466 176.811 15.0256 176.288 16.0426C175.766 17.054 175.021 17.8437 174.055 18.4119C173.095 18.9744 171.953 19.2557 170.629 19.2557ZM170.646 16.4432C171.249 16.4432 171.751 16.2727 172.155 15.9318C172.558 15.5852 172.862 15.1136 173.067 14.517C173.277 13.9205 173.382 13.2415 173.382 12.4801C173.382 11.7188 173.277 11.0398 173.067 10.4432C172.862 9.84659 172.558 9.375 172.155 9.02841C171.751 8.68182 171.249 8.50852 170.646 8.50852C170.038 8.50852 169.527 8.68182 169.112 9.02841C168.703 9.375 168.393 9.84659 168.183 10.4432C167.979 11.0398 167.876 11.7188 167.876 12.4801C167.876 13.2415 167.979 13.9205 168.183 14.517C168.393 15.1136 168.703 15.5852 169.112 15.9318C169.527 16.2727 170.038 16.4432 170.646 16.4432ZM179.433 19V5.90909H182.953V8.19318H183.089C183.328 7.38068 183.729 6.76705 184.291 6.35227C184.854 5.93182 185.501 5.72159 186.234 5.72159C186.416 5.72159 186.612 5.73295 186.822 5.75568C187.033 5.77841 187.217 5.80966 187.376 5.84943V9.07102C187.206 9.01989 186.97 8.97443 186.669 8.93466C186.368 8.89489 186.092 8.875 185.842 8.875C185.308 8.875 184.831 8.99148 184.411 9.22443C183.996 9.4517 183.666 9.76989 183.422 10.179C183.183 10.5881 183.064 11.0597 183.064 11.5938V19H179.433ZM194.61 19.2557C193.263 19.2557 192.104 18.983 191.133 18.4375C190.167 17.8864 189.423 17.108 188.9 16.1023C188.377 15.0909 188.116 13.8949 188.116 12.5142C188.116 11.1676 188.377 9.9858 188.9 8.96875C189.423 7.9517 190.158 7.15909 191.107 6.59091C192.062 6.02273 193.181 5.73864 194.465 5.73864C195.329 5.73864 196.133 5.87784 196.877 6.15625C197.627 6.42898 198.281 6.84091 198.837 7.39205C199.4 7.94318 199.837 8.63636 200.15 9.47159C200.462 10.3011 200.619 11.2727 200.619 12.3864V13.3835H189.565V11.1335H197.201C197.201 10.6108 197.087 10.1477 196.86 9.74432C196.633 9.34091 196.317 9.02557 195.914 8.7983C195.516 8.56534 195.053 8.44886 194.525 8.44886C193.974 8.44886 193.485 8.5767 193.059 8.83239C192.638 9.08239 192.309 9.42045 192.07 9.84659C191.832 10.267 191.71 10.7358 191.704 11.2528V13.392C191.704 14.0398 191.823 14.5994 192.062 15.071C192.306 15.5426 192.65 15.9062 193.093 16.1619C193.536 16.4176 194.062 16.5455 194.67 16.5455C195.073 16.5455 195.442 16.4886 195.778 16.375C196.113 16.2614 196.4 16.0909 196.638 15.8636C196.877 15.6364 197.059 15.358 197.184 15.0284L200.542 15.25C200.371 16.0568 200.022 16.7614 199.494 17.3636C198.971 17.9602 198.295 18.4261 197.465 18.7614C196.641 19.0909 195.69 19.2557 194.61 19.2557Z" fill="white"/>
</svg>
