<svg width="637" height="843" viewBox="0 0 637 843" fill="none" xmlns="http://www.w3.org/2000/svg">
<path d="M462.738 23.6165H174.262C169.925 23.6165 166.41 27.1324 166.41 31.4695V43.3351C166.41 47.6722 169.925 51.1881 174.262 51.1881H462.738C467.075 51.1881 470.59 47.6722 470.59 43.3351V31.4695C470.59 27.1324 467.075 23.6165 462.738 23.6165Z" fill="white" stroke="#303031" stroke-width="0.5" stroke-miterlimit="10"/>
<path d="M604.022 66.9038H32.9679V809.883H604.022V66.9038Z" fill="white"/>
<path d="M56.3127 84.0749V82.6096H61.2919V84.0749L58.9842 84.6208H58.6299L56.3223 84.0749H56.3127ZM58.9746 105.144L61.2823 105.69V107.155H56.3031V105.69L58.6108 105.144H58.965H58.9746ZM57.9979 93.9677C57.9979 90.1945 57.9979 86.3829 57.9405 82.6096H59.6449C59.5874 86.3063 59.5874 90.1178 59.5874 93.9677V95.0691C59.5874 99.5797 59.5874 103.382 59.6449 107.155H57.9405C57.9979 103.458 57.9979 99.6468 57.9979 95.7969V93.9677ZM58.7927 95.433V93.7475H66.2519V95.433H58.7927ZM63.7719 84.0749V82.6096H68.7511V84.0749L66.4434 84.6208H66.0891L63.7814 84.0749H63.7719ZM66.4338 105.144L68.7415 105.69V107.155H63.7623V105.69L66.07 105.144H66.4242H66.4338ZM65.4571 93.9677C65.4571 90.1945 65.4571 86.3829 65.3997 82.6096H67.1041C67.0466 86.3063 67.0466 90.1178 67.0466 93.9677V95.7969C67.0466 99.5702 67.0466 103.382 67.1041 107.155H65.3997C65.4571 103.458 65.4571 99.6468 65.4571 95.0691V93.9677Z" fill="#1D1D1B"/>
<path d="M74.5154 84.0749V82.6096H77.005V84.6208H76.823L74.5154 84.0749ZM77.005 105.144V107.155H74.5154V105.69L76.823 105.144H77.005ZM76.2102 93.9677C76.2102 90.1945 76.2102 86.3829 76.1528 82.6096H77.8572C77.7997 86.3063 77.7997 90.1178 77.7997 93.9677V95.3564C77.7997 99.5702 77.7997 103.382 77.8572 107.155H76.1528C76.2102 103.458 76.2102 99.6468 76.2102 95.7969V93.9677ZM81.9363 82.6096L82.731 84.4388H77.005V82.6096H83.3534L83.4779 89.1314H82.4821L81.9363 82.6096ZM81.0266 95.4713H77.0145V93.7858H81.0266V95.4713ZM83.8322 100.633L83.7077 107.155H77.005V105.326H83.0853L82.2906 107.155L82.8364 100.633H83.8322ZM80.4521 94.1497L80.7202 90.2615H81.515V98.9477H80.7202L80.4521 94.8775V94.1401V94.1497Z" fill="#1D1D1B"/>
<path d="M71.2598 80.0623V109.731" stroke="#1D1D1B" stroke-miterlimit="10"/>
<path d="M329.267 89.7922H330.886V90.4626H330.742L329.267 90.2806V89.7922ZM329.267 97.5112L330.551 97.3292H330.79L331.996 97.5112V97.9996H329.267V97.5112ZM330.369 89.7922H330.886L330.991 93.441V97.9996H330.369V89.7922ZM330.378 89.7922H331.47L334.476 97.1472H334.055L336.899 89.7922H337.55L334.352 97.9996H333.749L330.378 89.7922ZM335.97 97.5112L337.445 97.3292H337.694L339.283 97.5112V97.9996H335.97V97.5112ZM337.033 94.2072V89.7922H338.153C338.115 91.0276 338.115 92.3014 338.115 93.5942V94.2072C338.115 95.4713 338.115 96.745 338.153 98.0091H337.004C337.043 96.7737 337.043 95.5 337.043 94.2072H337.033ZM337.56 89.7922H339.274V90.2806L337.684 90.4626H337.56V89.7922Z" fill="#1D1D1B"/>
<path d="M342.166 94.7818C342.683 94.5998 343.449 94.3795 344.061 94.2646V94.7051C343.506 94.8201 342.788 95.0499 342.415 95.1936C341.313 95.6245 341.189 96.0842 341.189 96.4481C341.189 97.0993 341.62 97.3579 342.185 97.3579C342.616 97.3579 342.855 97.1951 343.631 96.6492L343.88 96.4673L344.052 96.7258L343.698 97.0802C342.96 97.8176 342.549 98.1624 341.802 98.1624C340.911 98.1624 340.164 97.6452 340.164 96.6301C340.164 95.9406 340.528 95.3947 342.175 94.7913L342.166 94.7818ZM343.573 96.8695V94.0731C343.573 92.876 343.228 92.5791 342.424 92.5791C342.146 92.5791 341.773 92.6174 341.323 92.7994L341.811 92.4163L341.495 93.4697C341.38 93.8241 341.198 94.0252 340.873 94.0252C340.547 94.0252 340.346 93.8432 340.318 93.5368C340.547 92.6078 341.457 92.0332 342.683 92.0332C343.908 92.0332 344.559 92.6078 344.559 94.1497V96.745C344.559 97.3005 344.732 97.492 345.009 97.492C345.22 97.492 345.354 97.3866 345.488 97.2238L345.737 97.492C345.44 97.9613 345.115 98.1145 344.693 98.1145C344.023 98.1145 343.583 97.6261 343.583 96.8695H343.573Z" fill="#1D1D1B"/>
<path d="M347.997 88.9305L348.169 89.0262L348.121 90.7692V95.4236C348.121 96.2759 348.131 97.1378 348.16 97.9997H347.106C347.126 97.1378 347.145 96.2855 347.145 95.4236V90.0318L346.13 89.9073V89.4764L348.006 88.9209L347.997 88.9305ZM349.136 97.5688V97.9997H346.12V97.5688L347.509 97.3198H347.757L349.146 97.5688H349.136ZM351.636 92.1866L347.623 96.3046V95.5959L350.889 92.1866H351.636ZM351.128 97.3198L352.478 97.5688V97.9997H350.86L348.811 94.7436L349.5 94.0349L351.913 97.8082L351.128 97.3293V97.3198ZM350.429 92.9336L349.318 92.6559V92.1866H352.162V92.6559L350.802 92.8666L350.439 92.9432L350.429 92.9336Z" fill="#1D1D1B"/>
<path d="M357.859 94.37C357.859 94.6477 357.821 94.8967 357.773 95.0595H353.254V94.5423H356.174C356.758 94.5423 356.902 94.2646 356.902 93.9198C356.902 93.2207 356.318 92.5887 355.542 92.5887C354.767 92.5887 353.847 93.2495 353.847 95.002C353.847 96.5535 354.633 97.3867 355.858 97.3867C356.643 97.3867 357.132 97.0323 357.572 96.5152L357.85 96.7354C357.409 97.6069 356.624 98.1528 355.514 98.1528C353.867 98.1528 352.804 97.0132 352.804 95.1552C352.804 93.2973 354.077 92.0332 355.6 92.0332C356.864 92.0332 357.869 92.8951 357.869 94.37H357.859Z" fill="#1D1D1B"/>
<path d="M361.345 100.25C361.431 99.9054 361.785 99.7331 362.159 99.7331C362.475 99.7331 362.724 99.8576 363.049 100.183L363.432 100.566L362.954 100.834L362.628 100.566C363.452 100.164 363.94 99.3213 364.246 98.4593L364.629 97.3963L366.516 92.1865H367.176L364.993 97.923C364.16 100.126 363.471 101.055 362.465 101.055C361.862 101.055 361.345 100.729 361.345 100.25ZM362.599 92.7994L361.402 92.6175V92.1865H364.323V92.6271L362.848 92.7994H362.599ZM364.428 98.6317L361.862 92.1865H363.002L364.926 97.4059L364.419 98.6317H364.428ZM366.516 92.7994L365.213 92.6175V92.1865H367.617V92.6175L366.755 92.7994H366.506H366.516Z" fill="#1D1D1B"/>
<path d="M367.933 95.1169C367.933 93.0867 369.321 92.0332 370.729 92.0332C372.136 92.0332 373.525 93.0867 373.525 95.1169C373.525 97.1472 372.117 98.1528 370.729 98.1528C369.34 98.1528 367.933 97.1472 367.933 95.1169ZM372.414 95.1169C372.414 93.4793 371.791 92.5791 370.719 92.5791C369.647 92.5791 369.024 93.4697 369.024 95.1169C369.024 96.7642 369.627 97.6069 370.719 97.6069C371.811 97.6069 372.414 96.7642 372.414 95.1169Z" fill="#1D1D1B"/>
<path d="M376.091 95.8257C376.091 96.9175 376.407 97.3006 377.087 97.3006C377.709 97.3006 378.351 96.9941 378.964 96.3812H379.222V97.0037H378.6L379.031 96.8217C378.332 97.7602 377.499 98.1529 376.704 98.1529C375.727 98.1529 375.114 97.5687 375.124 95.9502L375.162 92.7133L375.421 92.9431L374.281 92.6941V92.2631L376.043 92.1003L376.168 92.2248L376.11 93.9391V95.8162L376.091 95.8257ZM379.011 98.0954L378.839 96.6589L378.877 92.7133L379.136 92.9431L377.996 92.6941V92.2631L379.739 92.1003L379.864 92.2248L379.825 93.9391V97.5974L379.529 97.3006L380.668 97.5496V97.9805L379.011 98.0763V98.0954Z" fill="#1D1D1B"/>
<path d="M382.535 95.4235V94.8488C382.535 94.1785 382.525 93.7954 382.497 93.307L381.52 93.2016V92.7707L383.186 92.0333L383.368 92.1578L383.512 93.6901V95.433C383.512 96.1896 383.521 97.4537 383.55 98.0092H382.497C382.516 97.4537 382.535 96.1992 382.535 95.433V95.4235ZM381.616 97.5687L382.966 97.3197H383.215L384.565 97.5687V97.9996H381.625V97.5687H381.616ZM383.023 93.7667H383.722L383.416 93.8529C383.809 92.7132 384.555 92.0237 385.283 92.0237C385.637 92.0237 386.011 92.1961 386.154 92.4355C386.154 93.0101 385.934 93.3261 385.446 93.3261C385.168 93.3261 384.929 93.2208 384.709 93.0293L384.383 92.7515L384.986 92.627C384.23 93.0197 383.789 93.6326 383.502 94.5711H383.033V93.7475L383.023 93.7667Z" fill="#1D1D1B"/>
<path d="M386.758 97.6931L386.71 96.3619H387.361L387.696 97.808L387.093 97.5302V97.1184C387.524 97.4441 387.983 97.6164 388.596 97.6164C389.544 97.6164 389.985 97.2334 389.985 96.6779C389.985 96.1512 389.621 95.883 388.845 95.5957L388.28 95.385C387.39 95.0594 386.796 94.5806 386.796 93.7474C386.796 92.8663 387.543 92.0427 388.903 92.0427C389.563 92.0427 390.08 92.2247 390.607 92.5407L390.559 93.7761H389.946L389.697 92.5407L390.138 92.7323V93.0483C389.745 92.7418 389.334 92.579 388.884 92.579C388.127 92.579 387.735 92.9046 387.735 93.4218C387.735 93.9772 388.041 94.1784 388.874 94.4848L389.238 94.6189C390.464 95.069 390.933 95.6436 390.933 96.4098C390.933 97.3196 390.138 98.1527 388.568 98.1527C387.878 98.1527 387.352 97.9899 386.758 97.6835V97.6931Z" fill="#1D1D1B"/>
<path d="M397.051 94.37C397.051 94.6477 397.013 94.8967 396.965 95.0595H392.446V94.5423H395.366C395.95 94.5423 396.094 94.2646 396.094 93.9198C396.094 93.2207 395.51 92.5887 394.734 92.5887C393.959 92.5887 393.039 93.2495 393.039 95.002C393.039 96.5535 393.824 97.3867 395.05 97.3867C395.835 97.3867 396.324 97.0323 396.764 96.5152L397.042 96.7354C396.601 97.6069 395.816 98.1528 394.705 98.1528C393.058 98.1528 391.996 97.0132 391.996 95.1552C391.996 93.2973 393.269 92.0332 394.792 92.0332C396.056 92.0332 397.061 92.8951 397.061 94.37H397.051Z" fill="#1D1D1B"/>
<path d="M399.723 88.9305L399.895 89.0262L399.847 90.7692V95.4236C399.847 96.2759 399.857 97.1378 399.886 97.9997H398.832C398.852 97.1378 398.871 96.2855 398.871 95.4236V90.0318L397.856 89.9073V89.4764L399.733 88.9209L399.723 88.9305ZM400.862 97.5688V97.9997H397.846V97.5688L399.235 97.3198H399.484L400.872 97.5688H400.862Z" fill="#1D1D1B"/>
<path d="M402.634 92.8281H401.6V92.3014L402.988 92.1194L402.634 92.3014C402.758 90.8936 402.95 90.1466 403.505 89.5624C404.032 88.9878 404.654 88.8154 405.21 88.8154C405.765 88.8154 406.253 88.9974 406.378 89.4667C406.349 89.7731 406.081 90.003 405.64 90.003C405.334 90.003 405.066 89.8785 404.769 89.6582L404.166 89.2081L405.2 88.9591L405.487 89.323C405.353 89.2464 405.152 89.1794 405.008 89.1794C404.645 89.1794 404.223 89.4475 403.993 89.8689C403.716 90.3573 403.524 91.1809 403.63 92.6749V95.433C403.63 96.2854 403.639 97.1473 403.668 98.0092H402.615C402.643 97.1473 402.653 96.2949 402.653 95.433V92.8377L402.634 92.8281ZM404.75 97.5686V97.9996H401.609V97.5686L402.998 97.3197H403.247L404.75 97.5686ZM405.305 92.1865V92.8281H403.122V92.1865H405.305Z" fill="#1D1D1B"/>
<path d="M410.955 94.7818C411.472 94.5998 412.238 94.3795 412.851 94.2646V94.7051C412.295 94.8201 411.577 95.0499 411.204 95.1936C410.102 95.6245 409.978 96.0842 409.978 96.4481C409.978 97.0993 410.409 97.3579 410.974 97.3579C411.405 97.3579 411.644 97.1951 412.42 96.6492L412.669 96.4673L412.841 96.7258L412.487 97.0802C411.749 97.8176 411.338 98.1624 410.591 98.1624C409.7 98.1624 408.953 97.6452 408.953 96.6301C408.953 95.9406 409.317 95.3947 410.964 94.7913L410.955 94.7818ZM412.362 96.8695V94.0731C412.362 92.876 412.017 92.5791 411.213 92.5791C410.935 92.5791 410.562 92.6174 410.112 92.7994L410.6 92.4163L410.284 93.4697C410.169 93.8241 409.987 94.0252 409.662 94.0252C409.336 94.0252 409.135 93.8432 409.107 93.5368C409.336 92.6078 410.246 92.0332 411.472 92.0332C412.697 92.0332 413.348 92.6078 413.348 94.1497V96.745C413.348 97.3005 413.521 97.492 413.798 97.492C414.009 97.492 414.143 97.3866 414.277 97.2238L414.526 97.492C414.229 97.9613 413.904 98.1145 413.483 98.1145C412.812 98.1145 412.372 97.6261 412.372 96.8695H412.362Z" fill="#1D1D1B"/>
<path d="M417.409 97.54C417.677 97.54 417.926 97.4251 418.242 97.1953L418.519 97.5304C418.213 97.9231 417.705 98.1529 417.102 98.1529C416.259 98.1529 415.733 97.7124 415.733 96.7643C415.733 96.4674 415.742 96.2088 415.742 95.7396V92.8282H414.708V92.3015L416.231 92.11L415.742 92.5122L416.106 90.5298H416.815L416.719 92.675V96.6494C416.719 97.2814 416.987 97.5592 417.409 97.5592V97.54ZM418.414 92.1866V92.8282H416.231V92.1866H418.414Z" fill="#1D1D1B"/>
<path d="M422.761 90.0318L421.746 89.9073V89.4764L423.585 88.9209L423.757 89.0167L423.709 90.7596V93.355L423.747 93.5178V95.414C423.747 96.1706 423.757 97.4347 423.786 97.9902H422.732C422.752 97.4347 422.771 96.1801 422.771 95.414V90.0222L422.761 90.0318ZM424.628 97.5688V97.9997H421.813V97.5688L423.163 97.3198H423.403L424.628 97.5688ZM427.52 94.2935V95.4236C427.52 96.2089 427.53 97.4443 427.558 97.9997H426.505C426.534 97.4443 426.543 96.2089 426.543 95.4236V94.3988C426.543 93.2592 426.247 92.8953 425.519 92.8953C424.906 92.8953 424.398 93.1155 423.709 93.738H423.451V93.1826H424.073L423.518 93.4029C424.092 92.6271 425.097 92.0334 425.969 92.0334C427.022 92.0334 427.53 92.6846 427.53 94.3031L427.52 94.2935ZM427.194 97.3198L428.42 97.5688V97.9997H425.605V97.5688L426.955 97.3198H427.204H427.194Z" fill="#1D1D1B"/>
<path d="M429.349 95.1169C429.349 93.0867 430.737 92.0332 432.145 92.0332C433.552 92.0332 434.941 93.0867 434.941 95.1169C434.941 97.1472 433.533 98.1528 432.145 98.1528C430.756 98.1528 429.349 97.1472 429.349 95.1169ZM433.83 95.1169C433.83 93.4793 433.208 92.5791 432.135 92.5791C431.063 92.5791 430.44 93.4697 430.44 95.1169C430.44 96.7642 431.044 97.6069 432.135 97.6069C433.227 97.6069 433.83 96.7642 433.83 95.1169Z" fill="#1D1D1B"/>
<path d="M436.913 97.9996C436.933 97.4442 436.952 96.1896 436.952 95.4235V94.8488C436.952 94.1785 436.942 93.7954 436.913 93.307L435.937 93.2016V92.7707L437.603 92.0333L437.785 92.1578L437.928 93.5751V95.4235C437.928 96.18 437.938 97.4442 437.967 97.9996H436.913ZM438.829 97.5687V97.9996H436.013V97.5687L437.364 97.3197H437.612L438.838 97.5687H438.829ZM441.615 94.2934V95.4235C441.615 96.2088 441.625 97.4442 441.653 97.9996H440.6C440.619 97.4442 440.638 96.2088 440.638 95.4235V94.3987C440.638 93.2591 440.341 92.8952 439.604 92.8952C439.001 92.8952 438.522 93.1442 437.842 93.7379H437.584V93.1825H438.206L437.679 93.4027C438.254 92.627 439.202 92.0333 440.054 92.0333C441.107 92.0333 441.615 92.6845 441.615 94.303V94.2934ZM441.28 97.3197L442.505 97.5687V97.9996H439.69V97.5687L441.04 97.3197H441.289H441.28ZM445.292 94.1593V95.4235C445.292 96.2088 445.301 97.4442 445.33 97.9996H444.277C444.296 97.4442 444.315 96.2088 444.315 95.4235V94.37C444.315 93.2208 443.999 92.8856 443.271 92.8856C442.726 92.8856 442.209 93.1059 441.519 93.7284H441.222V93.2974H441.883L441.318 93.3932C441.96 92.4834 442.86 92.0237 443.731 92.0237C444.708 92.0237 445.292 92.6366 445.292 94.1593ZM444.957 97.3197L446.182 97.5687V97.9996H443.367V97.5687L444.717 97.3197H444.966H444.957Z" fill="#1D1D1B"/>
<path d="M452.177 94.37C452.177 94.6477 452.138 94.8967 452.09 95.0595H447.571V94.5423H450.491C451.075 94.5423 451.219 94.2646 451.219 93.9198C451.219 93.2207 450.635 92.5887 449.859 92.5887C449.084 92.5887 448.165 93.2495 448.165 95.002C448.165 96.5535 448.95 97.3867 450.175 97.3867C450.961 97.3867 451.449 97.0323 451.889 96.5152L452.167 96.7354C451.727 97.6069 450.941 98.1528 449.831 98.1528C448.184 98.1528 447.121 97.0132 447.121 95.1552C447.121 93.2973 448.394 92.0332 449.917 92.0332C451.181 92.0332 452.186 92.8951 452.186 94.37H452.177Z" fill="#1D1D1B"/>
<path d="M453.402 97.3004C453.402 96.8216 453.785 96.429 454.264 96.429C454.743 96.429 455.126 96.8216 455.126 97.3004C455.126 97.7793 454.743 98.1528 454.264 98.1528C453.785 98.1528 453.402 97.7601 453.402 97.3004Z" fill="#1D1D1B"/>
<path d="M457.079 97.3004C457.079 96.8216 457.462 96.429 457.941 96.429C458.42 96.429 458.803 96.8216 458.803 97.3004C458.803 97.7793 458.42 98.1528 457.941 98.1528C457.462 98.1528 457.079 97.7601 457.079 97.3004Z" fill="#1D1D1B"/>
<path d="M460.756 97.3004C460.756 96.8216 461.139 96.429 461.618 96.429C462.097 96.429 462.48 96.8216 462.48 97.3004C462.48 97.7793 462.097 98.1528 461.618 98.1528C461.139 98.1528 460.756 97.7601 460.756 97.3004Z" fill="#1D1D1B"/>
<path d="M468.895 94.7818C469.412 94.5998 470.178 94.3795 470.791 94.2646V94.7051C470.236 94.8201 469.518 95.0499 469.144 95.1936C468.043 95.6245 467.919 96.0842 467.919 96.4481C467.919 97.0993 468.349 97.3579 468.914 97.3579C469.345 97.3579 469.585 97.1951 470.36 96.6492L470.609 96.4673L470.782 96.7258L470.427 97.0802C469.69 97.8176 469.278 98.1624 468.531 98.1624C467.641 98.1624 466.894 97.6452 466.894 96.6301C466.894 95.9406 467.258 95.3947 468.905 94.7913L468.895 94.7818ZM470.303 96.8695V94.0731C470.303 92.876 469.958 92.5791 469.154 92.5791C468.876 92.5791 468.503 92.6174 468.053 92.7994L468.541 92.4163L468.225 93.4697C468.11 93.8241 467.928 94.0252 467.603 94.0252C467.277 94.0252 467.076 93.8432 467.047 93.5368C467.277 92.6078 468.187 92.0332 469.412 92.0332C470.638 92.0332 471.289 92.6078 471.289 94.1497V96.745C471.289 97.3005 471.461 97.492 471.739 97.492C471.95 97.492 472.084 97.3866 472.218 97.2238L472.467 97.492C472.17 97.9613 471.844 98.1145 471.423 98.1145C470.753 98.1145 470.312 97.6261 470.312 96.8695H470.303Z" fill="#1D1D1B"/>
<path d="M473.893 97.9996C473.913 97.4441 473.932 96.1895 473.932 95.4234V94.8488C473.932 94.1784 473.922 93.7953 473.893 93.3069L472.917 93.2016V92.7706L474.583 92.0332L474.765 92.1577L474.908 93.5751V95.4234C474.908 96.18 474.918 97.4441 474.947 97.9996H473.893ZM475.808 97.5686V97.9996H472.993V97.5686L474.343 97.3196H474.592L475.818 97.5686H475.808ZM478.643 94.2933V95.4234C478.643 96.2087 478.652 97.4441 478.681 97.9996H477.628C477.647 97.4441 477.666 96.2087 477.666 95.4234V94.3987C477.666 93.259 477.369 92.8951 476.632 92.8951C476.019 92.8951 475.521 93.1441 474.822 93.7379H474.564V93.1824H475.186L474.659 93.4027C475.234 92.627 476.22 92.0332 477.082 92.0332C478.135 92.0332 478.643 92.6844 478.643 94.3029V94.2933ZM478.317 97.3196L479.543 97.5686V97.9996H476.728V97.5686L478.078 97.3196H478.327H478.317Z" fill="#1D1D1B"/>
<path d="M479.533 100.25C479.62 99.9054 479.974 99.7331 480.347 99.7331C480.663 99.7331 480.912 99.8576 481.238 100.183L481.621 100.566L481.142 100.834L480.817 100.566C481.64 100.164 482.128 99.3213 482.435 98.4593L482.818 97.3963L484.704 92.1865H485.365L483.182 97.923C482.349 100.126 481.659 101.055 480.654 101.055C480.051 101.055 479.533 100.729 479.533 100.25ZM480.788 92.7994L479.591 92.6175V92.1865H482.511V92.6271L481.037 92.7994H480.788ZM482.617 98.6317L480.051 92.1865H481.19L483.115 97.4059L482.607 98.6317H482.617ZM484.704 92.7994L483.402 92.6175V92.1865H485.805V92.6175L484.944 92.7994H484.695H484.704Z" fill="#1D1D1B"/>
<path d="M487.117 92.8665L485.92 92.6558V92.1865H488.687V92.6558L487.366 92.8665H487.117ZM490.995 92.1961L492.805 96.9845H492.537L494.011 92.1961H494.701L492.699 98.0763H492.269C491.081 95.0404 490.765 94.0444 490.459 93.0772H490.899L489.032 98.0763H488.601L486.409 92.1961H487.51L489.137 96.9845H488.869L490.622 92.1961H490.986H490.995ZM489.473 92.6654V92.1961H492.173V92.6654L491.005 92.8761H490.756L489.473 92.6654ZM494.03 92.8761L492.891 92.6654V92.1961H495.132V92.6654L494.27 92.8761H494.03Z" fill="#1D1D1B"/>
<path d="M496.338 90.0318L495.323 89.9073V89.4764L497.162 88.9209L497.334 89.0167L497.286 90.7596V93.355L497.324 93.5178V95.414C497.324 96.1706 497.334 97.4347 497.363 97.9902H496.309C496.328 97.4347 496.348 96.1801 496.348 95.414V90.0222L496.338 90.0318ZM498.205 97.5688V97.9997H495.39V97.5688L496.74 97.3198H496.98L498.205 97.5688ZM501.097 94.2935V95.4236C501.097 96.2089 501.107 97.4443 501.135 97.9997H500.082C500.111 97.4443 500.12 96.2089 500.12 95.4236V94.3988C500.12 93.2592 499.823 92.8953 499.096 92.8953C498.483 92.8953 497.975 93.1155 497.286 93.738H497.027V93.1826H497.65L497.094 93.4029C497.669 92.6271 498.674 92.0334 499.546 92.0334C500.599 92.0334 501.107 92.6846 501.107 94.3031L501.097 94.2935ZM500.771 97.3198L501.997 97.5688V97.9997H499.182V97.5688L500.532 97.3198H500.781H500.771Z" fill="#1D1D1B"/>
<path d="M507.991 94.37C507.991 94.6477 507.953 94.8967 507.905 95.0595H503.386V94.5423H506.306C506.89 94.5423 507.034 94.2646 507.034 93.9198C507.034 93.2207 506.45 92.5887 505.674 92.5887C504.898 92.5887 503.979 93.2495 503.979 95.002C503.979 96.5535 504.764 97.3867 505.99 97.3867C506.775 97.3867 507.264 97.0323 507.704 96.5152L507.982 96.7354C507.541 97.6069 506.756 98.1528 505.645 98.1528C503.998 98.1528 502.936 97.0132 502.936 95.1552C502.936 93.2973 504.209 92.0332 505.732 92.0332C506.995 92.0332 508.001 92.8951 508.001 94.37H507.991Z" fill="#1D1D1B"/>
<path d="M510.05 95.4235V94.8488C510.05 94.1785 510.04 93.7954 510.012 93.307L509.035 93.2016V92.7707L510.701 92.0333L510.883 92.1578L511.027 93.6901V95.433C511.027 96.1896 511.036 97.4537 511.065 98.0092H510.012C510.031 97.4537 510.05 96.1992 510.05 95.433V95.4235ZM509.131 97.5687L510.481 97.3197H510.73L512.08 97.5687V97.9996H509.14V97.5687H509.131ZM510.538 93.7667H511.237L510.931 93.8529C511.323 92.7132 512.07 92.0237 512.798 92.0237C513.152 92.0237 513.526 92.1961 513.669 92.4355C513.669 93.0101 513.449 93.3261 512.961 93.3261C512.683 93.3261 512.444 93.2208 512.224 93.0293L511.898 92.7515L512.501 92.627C511.745 93.0197 511.304 93.6326 511.017 94.5711H510.548V93.7475L510.538 93.7667Z" fill="#1D1D1B"/>
<path d="M519.262 94.37C519.262 94.6477 519.223 94.8967 519.175 95.0595H514.656V94.5423H517.576C518.16 94.5423 518.304 94.2646 518.304 93.9198C518.304 93.2207 517.72 92.5887 516.944 92.5887C516.169 92.5887 515.249 93.2495 515.249 95.002C515.249 96.5535 516.035 97.3867 517.26 97.3867C518.046 97.3867 518.534 97.0323 518.974 96.5152L519.252 96.7354C518.812 97.6069 518.026 98.1528 516.916 98.1528C515.269 98.1528 514.206 97.0132 514.206 95.1552C514.206 93.2973 515.479 92.0332 517.002 92.0332C518.266 92.0332 519.271 92.8951 519.271 94.37H519.262Z" fill="#1D1D1B"/>
<path d="M524.097 97.9997C524.126 97.4442 524.135 96.1896 524.135 95.4235V94.8489C524.135 94.1785 524.126 93.7954 524.097 93.307L523.092 93.2017V92.7707L524.94 92.0333L525.122 92.1578L525.083 93.8146V95.4331C525.083 96.1896 525.093 97.4538 525.122 98.0092H524.087L524.097 97.9997ZM525.983 97.5687V97.9997H523.168V97.5687L524.518 97.3197H524.758L525.983 97.5687ZM523.791 89.8785C523.791 89.4092 524.145 89.1028 524.595 89.1028C525.045 89.1028 525.409 89.4092 525.409 89.8785C525.409 90.3478 525.055 90.6542 524.595 90.6542C524.135 90.6542 523.791 90.3382 523.791 89.8785Z" fill="#1D1D1B"/>
<path d="M527.793 97.9996C527.812 97.4441 527.831 96.1895 527.831 95.4234V94.8488C527.831 94.1784 527.822 93.7953 527.793 93.3069L526.816 93.2016V92.7706L528.483 92.0332L528.664 92.1577L528.808 93.5751V95.4234C528.808 96.18 528.818 97.4441 528.846 97.9996H527.793ZM529.708 97.5686V97.9996H526.893V97.5686L528.243 97.3196H528.492L529.718 97.5686H529.708ZM532.542 94.2933V95.4234C532.542 96.2087 532.552 97.4441 532.581 97.9996H531.527C531.547 97.4441 531.566 96.2087 531.566 95.4234V94.3987C531.566 93.259 531.269 92.8951 530.532 92.8951C529.919 92.8951 529.421 93.1441 528.722 93.7379H528.463V93.1824H529.086L528.559 93.4027C529.134 92.627 530.12 92.0332 530.982 92.0332C532.035 92.0332 532.542 92.6844 532.542 94.3029V94.2933ZM532.217 97.3196L533.443 97.5686V97.9996H530.627V97.5686L531.978 97.3196H532.227H532.217Z" fill="#1D1D1B"/>
<path d="M539.465 97.54C539.734 97.54 539.982 97.4251 540.298 97.1953L540.576 97.5304C540.27 97.9231 539.762 98.1529 539.159 98.1529C538.316 98.1529 537.79 97.7124 537.79 96.7643C537.79 96.4674 537.799 96.2088 537.799 95.7396V92.8282H536.765V92.3015L538.288 92.11L537.799 92.5122L538.163 90.5298H538.872L538.776 92.675V96.6494C538.776 97.2814 539.044 97.5592 539.465 97.5592V97.54ZM540.471 92.1866V92.8282H538.288V92.1866H540.471Z" fill="#1D1D1B"/>
<path d="M541.945 90.0318L540.93 89.9073V89.4764L542.769 88.9209L542.941 89.0167L542.893 90.7596V93.355L542.932 93.5178V95.414C542.932 96.1706 542.941 97.4347 542.97 97.9902H541.917C541.936 97.4347 541.955 96.1801 541.955 95.414V90.0222L541.945 90.0318ZM543.813 97.5688V97.9997H540.997V97.5688L542.348 97.3198H542.587L543.813 97.5688ZM546.704 94.2935V95.4236C546.704 96.2089 546.714 97.4443 546.743 97.9997H545.689C545.718 97.4443 545.728 96.2089 545.728 95.4236V94.3988C545.728 93.2592 545.431 92.8953 544.703 92.8953C544.09 92.8953 543.583 93.1155 542.893 93.738H542.635V93.1826H543.257L542.702 93.4029C543.276 92.6271 544.282 92.0334 545.153 92.0334C546.206 92.0334 546.714 92.6846 546.714 94.3031L546.704 94.2935ZM546.379 97.3198L547.604 97.5688V97.9997H544.789V97.5688L546.139 97.3198H546.388H546.379Z" fill="#1D1D1B"/>
<path d="M553.599 94.37C553.599 94.6477 553.56 94.8967 553.513 95.0595H548.993V94.5423H551.914C552.498 94.5423 552.641 94.2646 552.641 93.9198C552.641 93.2207 552.057 92.5887 551.282 92.5887C550.506 92.5887 549.587 93.2495 549.587 95.002C549.587 96.5535 550.372 97.3867 551.598 97.3867C552.383 97.3867 552.871 97.0323 553.311 96.5152L553.589 96.7354C553.149 97.6069 552.364 98.1528 551.253 98.1528C549.606 98.1528 548.543 97.0132 548.543 95.1552C548.543 93.2973 549.816 92.0332 551.339 92.0332C552.603 92.0332 553.608 92.8951 553.608 94.37H553.599Z" fill="#1D1D1B"/>
<path d="M558.281 92.8665L557.084 92.6558V92.1865H559.851V92.6558L558.53 92.8665H558.281ZM562.159 92.1961L563.969 96.9845H563.701L565.175 92.1961H565.865L563.863 98.0763H563.432C562.245 95.0404 561.929 94.0444 561.623 93.0772H562.063L560.196 98.0763H559.765L557.572 92.1961H558.674L560.301 96.9845H560.033L561.786 92.1961H562.149H562.159ZM560.636 92.6654V92.1961H563.337V92.6654L562.168 92.8761H561.92L560.636 92.6654ZM565.194 92.8761L564.055 92.6654V92.1961H566.295V92.6654L565.434 92.8761H565.194Z" fill="#1D1D1B"/>
<path d="M566.746 95.1169C566.746 93.0867 568.134 92.0332 569.542 92.0332C570.949 92.0332 572.338 93.0867 572.338 95.1169C572.338 97.1472 570.93 98.1528 569.542 98.1528C568.153 98.1528 566.746 97.1472 566.746 95.1169ZM571.227 95.1169C571.227 93.4793 570.604 92.5791 569.532 92.5791C568.46 92.5791 567.837 93.4697 567.837 95.1169C567.837 96.7642 568.44 97.6069 569.532 97.6069C570.624 97.6069 571.227 96.7642 571.227 95.1169Z" fill="#1D1D1B"/>
<path d="M574.339 95.4235V94.8488C574.339 94.1785 574.329 93.7954 574.301 93.307L573.324 93.2016V92.7707L574.99 92.0333L575.172 92.1578L575.316 93.6901V95.433C575.316 96.1896 575.325 97.4537 575.354 98.0092H574.301C574.32 97.4537 574.339 96.1992 574.339 95.433V95.4235ZM573.42 97.5687L574.77 97.3197H575.019L576.369 97.5687V97.9996H573.429V97.5687H573.42ZM574.827 93.7667H575.526L575.22 93.8529C575.612 92.7132 576.359 92.0237 577.087 92.0237C577.441 92.0237 577.815 92.1961 577.958 92.4355C577.958 93.0101 577.738 93.3261 577.25 93.3261C576.972 93.3261 576.733 93.2208 576.513 93.0293L576.187 92.7515L576.79 92.627C576.034 93.0197 575.593 93.6326 575.306 94.5711H574.837V93.7475L574.827 93.7667Z" fill="#1D1D1B"/>
<path d="M580.103 88.9305L580.276 89.0262L580.228 90.7692V95.4236C580.228 96.2759 580.237 97.1378 580.266 97.9997H579.213C579.232 97.1378 579.251 96.2855 579.251 95.4236V90.0318L578.236 89.9073V89.4764L580.113 88.9209L580.103 88.9305ZM581.243 97.5688V97.9997H578.227V97.5688L579.615 97.3198H579.864L581.252 97.5688H581.243Z" fill="#1D1D1B"/>
<path d="M584.881 97.4825C585.504 97.4825 585.935 97.2144 586.5 96.4865L586.605 96.8217C586.136 97.6549 585.561 98.1529 584.604 98.1529C583.11 98.1529 582.104 96.9175 582.104 95.1362C582.104 93.3549 583.206 92.0237 584.719 92.0237C585.418 92.0237 586.021 92.3015 586.653 93.2591L586.528 93.5752C585.82 92.8856 585.331 92.6941 584.862 92.6941C583.943 92.6941 583.148 93.4315 583.148 95.1075C583.148 96.7834 583.886 97.4729 584.881 97.4729V97.4825ZM588.29 97.5687V97.9997L586.413 98.1242L586.289 96.8792V93.2879L586.327 93.1251V90.0413L585.274 89.9168V89.4859L587.151 88.9304L587.323 89.0262L587.275 90.7692V97.9997L587.074 97.3772L588.29 97.5783V97.5687Z" fill="#1D1D1B"/>
<path d="M285.029 35.9323C285.029 36.1238 285.02 36.3058 284.991 36.4781H285.039C285.163 36.277 285.336 36.1238 285.556 36.028C285.776 35.9227 286.006 35.8748 286.265 35.8748C286.743 35.8748 287.098 35.9897 287.337 36.21C287.576 36.4398 287.691 36.8038 287.691 37.3017V39.8492H287.059V37.3401C287.059 36.708 286.762 36.4015 286.178 36.4015C285.738 36.4015 285.441 36.526 285.278 36.775C285.116 37.024 285.029 37.3688 285.029 37.8285V39.8492H284.388V34.3042H285.029V35.9323Z" fill="#1D1D1B"/>
<path d="M292.307 37.8859C292.307 38.5372 292.144 39.0352 291.818 39.3895C291.493 39.7438 291.043 39.9258 290.487 39.9258C290.143 39.9258 289.836 39.8492 289.568 39.6864C289.3 39.5236 289.08 39.2937 288.927 38.9969C288.773 38.7 288.697 38.3265 288.697 37.8859C288.697 37.2347 288.86 36.7367 289.185 36.392C289.511 36.0376 289.951 35.8652 290.516 35.8652C290.87 35.8652 291.186 35.9418 291.454 36.1047C291.723 36.2579 291.933 36.4877 292.086 36.7942C292.24 37.0911 292.316 37.455 292.316 37.8955L292.307 37.8859ZM289.348 37.8859C289.348 38.3456 289.444 38.7191 289.626 38.9873C289.808 39.2554 290.095 39.3895 290.497 39.3895C290.899 39.3895 291.177 39.2554 291.368 38.9873C291.55 38.7191 291.646 38.3552 291.646 37.8859C291.646 37.4167 291.55 37.0623 291.368 36.7942C291.186 36.5356 290.89 36.4015 290.487 36.4015C290.085 36.4015 289.798 36.5356 289.616 36.7942C289.434 37.0623 289.348 37.4167 289.348 37.8859Z" fill="#1D1D1B"/>
<path d="M297.621 35.8652C298.061 35.8652 298.397 35.9802 298.617 36.21C298.837 36.4398 298.942 36.8038 298.942 37.3113V39.8588H298.31V37.3401C298.31 36.7176 298.042 36.4111 297.516 36.4111C297.133 36.4111 296.864 36.5165 296.702 36.7367C296.539 36.957 296.453 37.273 296.453 37.6944V39.8588H295.821V37.3401C295.821 36.7176 295.553 36.4111 295.016 36.4111C294.624 36.4111 294.346 36.5356 294.203 36.775C294.049 37.0145 293.973 37.3688 293.973 37.8285V39.8588H293.331V35.9418H293.848L293.944 36.4782H293.982C294.107 36.277 294.27 36.1238 294.471 36.0185C294.672 35.9131 294.902 35.8652 295.131 35.8652C295.744 35.8652 296.146 36.0855 296.328 36.526H296.367C296.501 36.3058 296.673 36.1334 296.903 36.028C297.133 35.9227 297.372 35.8652 297.621 35.8652Z" fill="#1D1D1B"/>
<path d="M301.662 35.8653C301.997 35.8653 302.284 35.9419 302.524 36.0856C302.763 36.2292 302.954 36.4399 303.079 36.7081C303.203 36.9762 303.27 37.2827 303.27 37.637V38.0201H300.589C300.589 38.4606 300.714 38.7958 300.924 39.0352C301.145 39.2651 301.442 39.38 301.834 39.38C302.083 39.38 302.303 39.3608 302.495 39.3129C302.686 39.2651 302.887 39.198 303.089 39.1118V39.6769C302.887 39.7631 302.696 39.8301 302.495 39.8684C302.303 39.9067 302.074 39.9259 301.805 39.9259C301.432 39.9259 301.106 39.8493 300.819 39.696C300.532 39.5428 300.312 39.3225 300.158 39.0161C299.996 38.7192 299.919 38.3553 299.919 37.9147C299.919 37.4742 299.996 37.1199 300.139 36.8134C300.283 36.5069 300.484 36.2675 300.743 36.1047C301.001 35.9419 301.307 35.8557 301.652 35.8557L301.662 35.8653ZM301.662 36.392C301.355 36.392 301.116 36.4878 300.934 36.6889C300.752 36.89 300.647 37.1582 300.618 37.5125H302.61C302.61 37.1773 302.524 36.9092 302.38 36.7081C302.227 36.4974 301.987 36.4016 301.662 36.4016V36.392Z" fill="#1D1D1B"/>
<path d="M305.779 35.8653C306.114 35.8653 306.401 35.9419 306.641 36.0856C306.88 36.2292 307.072 36.4399 307.196 36.7081C307.321 36.9762 307.388 37.2827 307.388 37.637V38.0201H304.707C304.707 38.4606 304.831 38.7958 305.042 39.0352C305.262 39.2651 305.559 39.38 305.951 39.38C306.2 39.38 306.421 39.3608 306.612 39.3129C306.804 39.2651 307.005 39.198 307.206 39.1118V39.6769C307.005 39.7631 306.813 39.8301 306.612 39.8684C306.421 39.9067 306.191 39.9259 305.923 39.9259C305.549 39.9259 305.224 39.8493 304.936 39.696C304.649 39.5428 304.429 39.3225 304.276 39.0161C304.113 38.7192 304.036 38.3553 304.036 37.9147C304.036 37.4742 304.113 37.1199 304.257 36.8134C304.4 36.5069 304.601 36.2675 304.86 36.1047C305.118 35.9419 305.425 35.8557 305.77 35.8557L305.779 35.8653ZM305.779 36.392C305.473 36.392 305.233 36.4878 305.051 36.6889C304.869 36.89 304.764 37.1582 304.735 37.5125H306.727C306.727 37.1773 306.641 36.9092 306.497 36.7081C306.344 36.4974 306.105 36.4016 305.779 36.4016V36.392Z" fill="#1D1D1B"/>
<path d="M309.169 37.8477L307.819 35.9324H308.546L309.552 37.4072L310.557 35.9324H311.285L309.935 37.8477L311.362 39.8493H310.634L309.571 38.2883L308.489 39.8493H307.761L309.178 37.8477H309.169Z" fill="#1D1D1B"/>
<path d="M313.535 39.9258C313.19 39.9258 312.884 39.8588 312.616 39.7151C312.348 39.5715 312.137 39.3512 311.984 39.0543C311.831 38.7574 311.754 38.3744 311.754 37.9147C311.754 37.455 311.831 37.0432 311.994 36.7367C312.156 36.4303 312.377 36.21 312.645 36.0759C312.922 35.9323 313.229 35.8652 313.583 35.8652C313.784 35.8652 313.976 35.8844 314.158 35.9323C314.34 35.9706 314.493 36.028 314.608 36.0855L314.407 36.6218C314.292 36.5739 314.158 36.5356 313.995 36.4973C313.842 36.459 313.698 36.4398 313.554 36.4398C312.788 36.4398 312.396 36.9378 312.396 37.9242C312.396 38.3935 312.491 38.7574 312.673 39.0064C312.865 39.2554 313.143 39.3799 313.506 39.3799C313.717 39.3799 313.909 39.3608 314.071 39.3129C314.234 39.265 314.387 39.2171 314.521 39.1501V39.7151C314.387 39.7822 314.244 39.8396 314.091 39.8683C313.928 39.9067 313.736 39.9258 313.516 39.9258H313.535Z" fill="#1D1D1B"/>
<path d="M316.111 35.9323C316.111 36.1238 316.101 36.3058 316.073 36.4781H316.121C316.245 36.277 316.417 36.1238 316.638 36.028C316.858 35.9227 317.088 35.8748 317.346 35.8748C317.825 35.8748 318.179 35.9897 318.419 36.21C318.658 36.4398 318.773 36.8038 318.773 37.3017V39.8492H318.141V37.3401C318.141 36.708 317.844 36.4015 317.26 36.4015C316.819 36.4015 316.523 36.526 316.36 36.775C316.197 37.024 316.111 37.3688 316.111 37.8285V39.8492H315.469V34.3042H316.111V35.9323Z" fill="#1D1D1B"/>
<path d="M321.464 35.8748C321.942 35.8748 322.287 35.9801 322.526 36.1908C322.756 36.4015 322.871 36.7367 322.871 37.1868V39.8491H322.402L322.277 39.2937H322.249C322.076 39.5044 321.894 39.6672 321.712 39.7725C321.531 39.8779 321.262 39.9258 320.937 39.9258C320.583 39.9258 320.286 39.83 320.056 39.648C319.826 39.4565 319.702 39.1692 319.702 38.767C319.702 38.3647 319.855 38.0774 320.161 37.8667C320.468 37.656 320.937 37.5411 321.578 37.522L322.249 37.5028V37.273C322.249 36.9474 322.182 36.7175 322.038 36.593C321.894 36.4685 321.693 36.4015 321.444 36.4015C321.243 36.4015 321.042 36.4302 320.86 36.4973C320.678 36.5547 320.506 36.6313 320.343 36.7079L320.142 36.2291C320.314 36.1333 320.516 36.0567 320.755 35.9897C320.985 35.9226 321.234 35.8939 321.483 35.8939L321.464 35.8748ZM321.655 37.9625C321.167 37.9817 320.832 38.0583 320.64 38.1923C320.449 38.3264 320.362 38.518 320.362 38.767C320.362 38.9872 320.429 39.15 320.563 39.2458C320.697 39.3511 320.87 39.399 321.081 39.399C321.406 39.399 321.684 39.3033 321.904 39.1213C322.124 38.9393 322.23 38.6616 322.23 38.2785V37.9242L321.655 37.9433V37.9625Z" fill="#1D1D1B"/>
<path d="M325.964 35.8652C326.433 35.8652 326.787 35.9802 327.027 36.21C327.266 36.4398 327.381 36.8038 327.381 37.3113V39.8588H326.749V37.3496C326.749 36.7176 326.462 36.4111 325.878 36.4111C325.447 36.4111 325.14 36.5356 324.978 36.775C324.815 37.0145 324.729 37.3688 324.729 37.8285V39.8588H324.087V35.9418H324.604L324.7 36.4782H324.738C324.863 36.277 325.035 36.1238 325.265 36.0185C325.495 35.9131 325.725 35.8652 325.974 35.8652H325.964Z" fill="#1D1D1B"/>
<path d="M329.986 35.8651C330.244 35.8651 330.474 35.913 330.685 36.0088C330.895 36.1045 331.068 36.2578 331.211 36.4493H331.25L331.336 35.9321H331.843V39.9065C331.843 40.462 331.7 40.8834 331.412 41.1707C331.125 41.4484 330.685 41.592 330.081 41.592C329.478 41.592 329.038 41.5058 328.674 41.343V40.7493C329.057 40.9504 329.545 41.0557 330.12 41.0557C330.455 41.0557 330.723 40.96 330.914 40.7589C331.106 40.5577 331.202 40.2896 331.202 39.9544V39.8012C331.202 39.7437 331.202 39.6575 331.202 39.5522C331.202 39.4468 331.211 39.3702 331.221 39.3223H331.192C330.924 39.715 330.522 39.9161 329.976 39.9161C329.469 39.9161 329.076 39.7341 328.789 39.3798C328.501 39.0255 328.358 38.5275 328.358 37.8858C328.358 37.2442 328.501 36.7653 328.789 36.4014C329.076 36.0375 329.469 35.8459 329.966 35.8459L329.986 35.8651ZM330.072 36.4014C329.746 36.4014 329.488 36.5355 329.315 36.7941C329.133 37.0526 329.047 37.4261 329.047 37.905C329.047 38.3838 329.133 38.7573 329.315 39.0063C329.497 39.2649 329.756 39.3894 330.091 39.3894C330.484 39.3894 330.771 39.284 330.953 39.0733C331.135 38.8626 331.221 38.5179 331.221 38.0486V37.8954C331.221 37.3591 331.125 36.976 330.943 36.7462C330.761 36.5163 330.464 36.4014 330.072 36.4014Z" fill="#1D1D1B"/>
<path d="M334.601 35.8653C334.936 35.8653 335.223 35.9419 335.463 36.0856C335.702 36.2292 335.884 36.4399 336.018 36.7081C336.152 36.9762 336.21 37.2827 336.21 37.637V38.0201H333.529C333.538 38.4606 333.653 38.7958 333.873 39.0352C334.093 39.2746 334.39 39.38 334.783 39.38C335.032 39.38 335.252 39.3608 335.444 39.3129C335.635 39.2651 335.836 39.198 336.037 39.1118V39.6769C335.836 39.7631 335.645 39.8301 335.444 39.8684C335.243 39.9067 335.013 39.9259 334.745 39.9259C334.371 39.9259 334.046 39.8493 333.758 39.696C333.471 39.5428 333.251 39.3225 333.098 39.0161C332.935 38.7192 332.858 38.3553 332.858 37.9147C332.858 37.4742 332.935 37.1199 333.069 36.8134C333.213 36.5069 333.414 36.2675 333.672 36.1047C333.931 35.9419 334.237 35.8557 334.582 35.8557L334.601 35.8653ZM334.601 36.392C334.295 36.392 334.055 36.4878 333.873 36.6889C333.691 36.89 333.586 37.1582 333.557 37.5125H335.549C335.549 37.1773 335.463 36.9092 335.319 36.7081C335.166 36.4974 334.927 36.4016 334.601 36.4016V36.392Z" fill="#1D1D1B"/>
<path d="M337.11 39.4564C337.11 39.2745 337.158 39.15 337.244 39.0734C337.33 38.9967 337.435 38.968 337.56 38.968C337.684 38.968 337.79 39.0063 337.885 39.0734C337.981 39.1404 338.019 39.2745 338.019 39.4564C338.019 39.6384 337.972 39.7533 337.885 39.8395C337.799 39.9161 337.684 39.9544 337.56 39.9544C337.435 39.9544 337.33 39.9161 337.244 39.8395C337.158 39.7629 337.11 39.6384 337.11 39.4564Z" fill="#1D1D1B"/>
<path d="M340.739 39.9258C340.394 39.9258 340.088 39.8588 339.81 39.7151C339.532 39.5715 339.331 39.3512 339.178 39.0543C339.025 38.7574 338.948 38.3744 338.948 37.9147C338.948 37.455 339.025 37.0432 339.188 36.7367C339.35 36.4303 339.561 36.21 339.839 36.0759C340.116 35.9323 340.423 35.8652 340.777 35.8652C340.978 35.8652 341.17 35.8844 341.352 35.9323C341.533 35.9802 341.687 36.028 341.802 36.0855L341.6 36.6218C341.486 36.5739 341.352 36.5356 341.189 36.4973C341.036 36.459 340.892 36.4398 340.748 36.4398C339.982 36.4398 339.59 36.9378 339.59 37.9242C339.59 38.3935 339.685 38.7574 339.867 39.0064C340.049 39.2554 340.337 39.3799 340.7 39.3799C340.911 39.3799 341.103 39.3608 341.265 39.3129C341.428 39.265 341.581 39.2171 341.715 39.1501V39.7151C341.581 39.7822 341.438 39.8396 341.285 39.8683C341.122 39.9067 340.94 39.9258 340.71 39.9258H340.739Z" fill="#1D1D1B"/>
<path d="M346.072 37.8859C346.072 38.5372 345.91 39.0352 345.584 39.3895C345.258 39.7438 344.808 39.9258 344.253 39.9258C343.908 39.9258 343.602 39.8492 343.334 39.6864C343.066 39.5236 342.845 39.2937 342.692 38.9969C342.539 38.6904 342.462 38.3265 342.462 37.8859C342.462 37.2347 342.625 36.7367 342.951 36.392C343.276 36.0376 343.717 35.8652 344.282 35.8652C344.636 35.8652 344.952 35.9418 345.22 36.1047C345.488 36.2579 345.699 36.4877 345.852 36.7942C346.005 37.0911 346.082 37.455 346.082 37.8955L346.072 37.8859ZM343.114 37.8859C343.114 38.3456 343.209 38.7191 343.391 38.9873C343.573 39.2554 343.87 39.3895 344.263 39.3895C344.655 39.3895 344.942 39.2554 345.134 38.9873C345.325 38.7191 345.412 38.3552 345.412 37.8859C345.412 37.4167 345.316 37.0623 345.134 36.7942C344.952 36.5356 344.655 36.4015 344.253 36.4015C343.851 36.4015 343.564 36.5356 343.382 36.7942C343.2 37.0623 343.114 37.4167 343.114 37.8859Z" fill="#1D1D1B"/>
<path d="M351.386 35.8652C351.827 35.8652 352.162 35.9802 352.382 36.21C352.603 36.4398 352.708 36.8038 352.708 37.3113V39.8588H352.076V37.3401C352.076 36.7176 351.808 36.4111 351.281 36.4111C350.898 36.4111 350.63 36.5165 350.467 36.7367C350.304 36.957 350.218 37.273 350.218 37.6944V39.8588H349.586V37.3401C349.586 36.7176 349.318 36.4111 348.782 36.4111C348.389 36.4111 348.112 36.5356 347.968 36.775C347.815 37.0145 347.738 37.3688 347.738 37.8285V39.8588H347.097V35.9418H347.614L347.71 36.4782H347.748C347.872 36.277 348.035 36.1238 348.236 36.0185C348.437 35.9131 348.667 35.8652 348.897 35.8652C349.51 35.8652 349.912 36.0855 350.094 36.526H350.132C350.266 36.3058 350.438 36.1334 350.668 36.028C350.898 35.9227 351.137 35.8652 351.386 35.8652Z" fill="#1D1D1B"/>
<path d="M43.8455 43.9289C48.4146 43.9289 52.1186 40.2243 52.1186 35.6545C52.1186 31.0847 48.4146 27.3801 43.8455 27.3801C39.2764 27.3801 35.5724 31.0847 35.5724 35.6545C35.5724 40.2243 39.2764 43.9289 43.8455 43.9289Z" fill="#E65F5B"/>
<path d="M71.2597 43.9289C75.8288 43.9289 79.5328 40.2243 79.5328 35.6545C79.5328 31.0847 75.8288 27.3801 71.2597 27.3801C66.6906 27.3801 62.9866 31.0847 62.9866 35.6545C62.9866 40.2243 66.6906 43.9289 71.2597 43.9289Z" fill="#F6B533"/>
<path d="M98.674 43.9289C103.243 43.9289 106.947 40.2243 106.947 35.6545C106.947 31.0847 103.243 27.3801 98.674 27.3801C94.1049 27.3801 90.4009 31.0847 90.4009 35.6545C90.4009 40.2243 94.1049 43.9289 98.674 43.9289Z" fill="#4FAA45"/>
<path d="M599.062 27.4089H590.339C588.367 27.4089 586.768 29.0082 586.768 30.9811V39.696C586.768 41.6688 588.367 43.2682 590.339 43.2682H599.062C601.035 43.2682 602.634 41.6688 602.634 39.696V30.9811C602.634 29.0082 601.035 27.4089 599.062 27.4089Z" fill="#E2E2E2" stroke="#303030" stroke-miterlimit="10"/>
<path d="M602.538 30.8757H593.815C591.843 30.8757 590.243 32.475 590.243 34.4479V43.1628C590.243 45.1356 591.843 46.735 593.815 46.735H602.538C604.511 46.735 606.11 45.1356 606.11 43.1628V34.4479C606.11 32.475 604.511 30.8757 602.538 30.8757Z" fill="#E2E2E2" stroke="#303030" stroke-miterlimit="10"/>
<path d="M554.547 37.4263H569.848" stroke="#303030" stroke-miterlimit="10"/>
<path d="M562.197 29.7839V45.0781" stroke="#303030" stroke-miterlimit="10"/>
<path d="M534.735 30.3967C536.334 30.3967 537.637 31.6992 537.637 33.2985V41.5537C537.637 43.1531 536.334 44.4555 534.735 44.4555H526.472C524.873 44.4555 523.57 43.1531 523.57 41.5537V33.2985C523.57 31.6992 524.873 30.3967 526.472 30.3967" stroke="#303030" stroke-miterlimit="10"/>
<path d="M530.608 37.4262V26.499" stroke="#303030" stroke-miterlimit="10"/>
<path d="M530.608 26.499L527.726 29.3816" stroke="#303030" stroke-miterlimit="10"/>
<path d="M533.443 29.3816L530.283 26.2117" stroke="#303030" stroke-miterlimit="10"/>
<path d="M498.11 45.7199C502.705 45.7199 506.431 41.9981 506.431 37.4072C506.431 32.8162 502.705 29.0945 498.11 29.0945C493.514 29.0945 489.789 32.8162 489.789 37.4072C489.789 41.9981 493.514 45.7199 498.11 45.7199Z" stroke="#303030" stroke-miterlimit="10"/>
<path d="M498.119 33.6914V41.1134L500.973 38.2691" stroke="#303030" stroke-linejoin="round"/>
<path d="M498.119 41.1135L495.247 38.2405" stroke="#303030" stroke-linejoin="round"/>
</svg>
