<svg width="290" height="181" viewBox="0 0 290 181" fill="none" xmlns="http://www.w3.org/2000/svg">
<g clip-path="url(#clip0_18_2682)">
<path d="M64.3115 53.256H117.944V60.168H64.3115V53.256ZM86.7755 42.056H95.2875V56.072H86.7755V42.056ZM70.3275 11.272H111.928V30.984H78.9035V40.968H70.4555V24.328H103.48V17.992H70.3275V11.272ZM70.4555 37.576H113.272V44.424H70.4555V37.576ZM125.171 13.128H148.659V41.16H125.171V13.128ZM140.723 19.592H133.107V34.632H140.723V19.592ZM165.555 7.496H173.619V51.464H165.555V7.496ZM158.387 24.136H167.795V31.048H158.387V24.136ZM153.011 8.52H160.947V49.544H153.011V8.52ZM133.747 58.888H175.155V65.672H133.747V58.888ZM133.747 46.024H142.259V62.6H133.747V46.024ZM190.83 45.768H231.278V66.696H222.702V52.552H190.83V45.768ZM222.702 7.432H231.278V43.272H222.702V7.432ZM185.262 34.312H190.318C202.542 34.312 209.646 34.12 217.774 32.84L218.606 39.432C210.286 40.84 202.798 41.032 190.318 41.032H185.262V34.312ZM185.262 11.272H213.742V18.056H193.71V36.488H185.262V11.272ZM191.086 22.792H212.014V29.384H191.086V22.792ZM37.37 87.952H85.626V93.84H37.37V87.952ZM61.626 95.248C74.682 95.248 81.466 97.616 81.466 102.672C81.466 107.792 74.682 110.096 61.626 110.096C48.506 110.096 41.786 107.792 41.786 102.672C41.786 97.616 48.506 95.248 61.626 95.248ZM61.626 100.624C53.754 100.624 50.81 101.2 50.81 102.672C50.81 104.208 53.754 104.784 61.626 104.784C69.498 104.784 72.442 104.208 72.442 102.672C72.442 101.2 69.498 100.624 61.626 100.624ZM57.338 83.792H65.85V92.944H57.338V83.792ZM34.81 112.656H88.378V118.736H34.81V112.656ZM57.338 107.664H65.85V115.728H57.338V107.664ZM40.954 121.104H81.914V134.736H49.658V138.448H41.018V129.296H73.274V126.928H40.954V121.104ZM41.018 137.488H83.45V143.312H41.018V137.488ZM134.517 84.368H143.029V143.824H134.517V84.368ZM96.885 123.088H102.133C112.629 123.088 121.013 122.704 130.421 121.104L131.253 127.952C121.653 129.68 112.949 130 102.133 130H96.885V123.088ZM96.821 89.424H124.789V112.336H105.525V125.648H96.885V105.616H116.085V96.208H96.821V89.424ZM195.376 84.432H203.504V143.696H195.376V84.432ZM172.848 106.064H186.608V112.912H172.848V106.064ZM183.152 85.456H191.088V141.072H183.152V85.456ZM154.288 123.536H158.384C166.768 123.536 172.336 123.344 178.864 122.064L179.504 128.976C172.912 130.32 167.024 130.576 158.384 130.576H154.288V123.536ZM154.288 91.088H176.88V97.872H162.672V126.48H154.288V91.088ZM252.075 84.368H260.651V143.824H252.075V84.368ZM228.715 88.528C237.675 88.528 244.267 96.72 244.267 109.648C244.267 122.704 237.675 130.896 228.715 130.896C219.755 130.896 213.163 122.704 213.163 109.648C213.163 96.72 219.755 88.528 228.715 88.528ZM228.715 96.272C224.299 96.272 221.291 100.944 221.291 109.648C221.291 118.48 224.299 123.216 228.715 123.216C233.131 123.216 236.075 118.48 236.075 109.648C236.075 100.944 233.131 96.272 228.715 96.272Z" fill="#D2D2D2"/>
</g>
<defs>
<clipPath id="clip0_18_2682">
<rect width="290" height="181" fill="white"/>
</clipPath>
</defs>
</svg>
