<svg width="490" height="23" viewBox="0 0 490 23" fill="none" xmlns="http://www.w3.org/2000/svg">
<path d="M0.60902 9V7.46591C0.60902 7 0.691406 6.50568 0.856179 5.98295C1.02663 5.45455 1.27095 4.94602 1.58913 4.45739C1.913 3.96307 2.3022 3.53409 2.75675 3.17045L3.59197 3.89489C3.16016 4.39489 2.79652 4.9517 2.50107 5.56534C2.21129 6.1733 2.06641 6.7983 2.06641 7.44034V9H0.60902ZM4.60618 9V7.46591C4.60618 7 4.68857 6.50568 4.85334 5.98295C5.02379 5.45455 5.26811 4.94602 5.58629 4.45739C5.91016 3.96307 6.29936 3.53409 6.75391 3.17045L7.58913 3.89489C7.15732 4.39489 6.79368 4.9517 6.49822 5.56534C6.20845 6.1733 6.06357 6.7983 6.06357 7.44034V9H4.60618ZM9.19609 18.552H28.8521V20.208H9.19609V18.552ZM17.9801 13.896H19.9721V19.248H17.9801V13.896ZM11.5721 2.784H26.4281V9.36H13.6121V13.704H11.6441V7.752H24.4601V4.392H11.5721V2.784ZM11.6441 12.864H26.9321V14.496H11.6441V12.864ZM32.2342 3.36H40.6102V13.2H32.2342V3.36ZM38.7382 4.896H34.0822V11.616H38.7382V4.896ZM47.6422 1.2H49.5382V17.352H47.6422V1.2ZM44.1622 7.56H48.2422V9.216H44.1622V7.56ZM42.9862 1.584H44.8822V16.584H42.9862V1.584ZM35.4022 20.76H50.2102V22.392H35.4022V20.76ZM35.4022 15.384H37.3942V21.576H35.4022V15.384ZM56.6403 15.456H71.1363V22.872H69.1203V17.088H56.6403V15.456ZM69.1203 1.176H71.1363V14.376H69.1203V1.176ZM54.6003 11.544H56.3523C61.0323 11.544 63.6003 11.448 66.6483 10.944L66.8643 12.528C63.7203 13.08 61.0803 13.176 56.3523 13.176H54.6003V11.544ZM54.6003 2.64H64.9203V4.272H56.5683V12.168H54.6003V2.64ZM55.9203 7.032H64.3203V8.64H55.9203V7.032ZM83.1885 2.688H100.636V4.152H83.1885V2.688ZM91.9725 5.016C96.5085 5.016 98.9805 5.952 98.9805 7.824C98.9805 9.72 96.5085 10.632 91.9725 10.632C87.4125 10.632 84.9645 9.72 84.9645 7.824C84.9645 5.952 87.4125 5.016 91.9725 5.016ZM91.9725 6.36C88.7325 6.36 87.0525 6.888 87.0525 7.824C87.0525 8.808 88.7325 9.312 91.9725 9.312C95.2125 9.312 96.8685 8.808 96.8685 7.824C96.8685 6.888 95.2125 6.36 91.9725 6.36ZM90.9885 0.791998H92.9565V3.864H90.9885V0.791998ZM82.1565 12.096H101.764V13.608H82.1565V12.096ZM90.9885 10.08H92.9565V12.816H90.9885V10.08ZM84.5325 14.976H99.2685V19.392H86.5965V21.552H84.5805V18.024H97.2525V16.416H84.5325V14.976ZM84.5805 21.192H99.9165V22.632H84.5805V21.192ZM120.051 1.152H122.043V22.896H120.051V1.152ZM105.507 16.008H107.307C110.931 16.008 114.171 15.864 118.011 15.24L118.227 16.872C114.291 17.52 111.027 17.664 107.307 17.664H105.507V16.008ZM105.459 3.192H115.491V10.944H107.499V16.632H105.507V9.312H113.475V4.824H105.459V3.192ZM142.825 1.176H144.745V22.872H142.825V1.176ZM133.825 9.456H139.273V11.088H133.825V9.456ZM138.457 1.68H140.353V21.768H138.457V1.68ZM127.129 15.984H128.521C131.905 15.984 133.945 15.888 136.345 15.384L136.537 17.04C134.065 17.568 131.977 17.664 128.521 17.664H127.129V15.984ZM127.129 3.816H135.289V5.448H129.097V16.632H127.129V3.816ZM164.159 1.152H166.151V22.896H164.159V1.152ZM154.703 2.832C157.919 2.832 160.223 5.784 160.223 10.392C160.223 15.024 157.919 17.976 154.703 17.976C151.511 17.976 149.207 15.024 149.207 10.392C149.207 5.784 151.511 2.832 154.703 2.832ZM154.703 4.632C152.591 4.632 151.103 6.888 151.103 10.392C151.103 13.92 152.591 16.224 154.703 16.224C156.839 16.224 158.303 13.92 158.303 10.392C158.303 6.888 156.839 4.632 154.703 4.632ZM172.676 3.54545V5.07954C172.676 5.54545 172.591 6.04261 172.421 6.57102C172.256 7.09375 172.012 7.60227 171.688 8.09659C171.37 8.58523 170.983 9.01136 170.529 9.375L169.702 8.65057C170.128 8.15057 170.489 7.59659 170.784 6.98864C171.08 6.375 171.228 5.74716 171.228 5.10511V3.54545H172.676ZM176.682 3.54545V5.07954C176.682 5.54545 176.597 6.04261 176.426 6.57102C176.262 7.09375 176.017 7.60227 175.694 8.09659C175.375 8.58523 174.989 9.01136 174.534 9.375L173.699 8.65057C174.131 8.15057 174.492 7.59659 174.782 6.98864C175.077 6.375 175.225 5.74716 175.225 5.10511V3.54545H176.682ZM179.024 11.256H198.704V12.768H179.024V11.256ZM181.352 14.52H196.232V19.152H183.392V21.696H181.424V17.784H194.288V15.936H181.352V14.52ZM181.424 21.168H196.928V22.608H181.424V21.168ZM181.52 1.8H196.16V6.312H183.536V8.664H181.568V4.968H194.216V3.216H181.52V1.8ZM181.568 8.184H196.568V9.624H181.568V8.184ZM217.644 6H224.196V7.656H217.644V6ZM217.644 12.864H224.196V14.52H217.644V12.864ZM213.66 2.832C216.804 2.832 219.06 5.784 219.06 10.392C219.06 15.024 216.804 17.976 213.66 17.976C210.492 17.976 208.26 15.024 208.26 10.392C208.26 5.784 210.492 2.832 213.66 2.832ZM213.66 4.632C211.572 4.632 210.132 6.888 210.132 10.392C210.132 13.92 211.572 16.224 213.66 16.224C215.748 16.224 217.188 13.92 217.188 10.392C217.188 6.888 215.748 4.632 213.66 4.632ZM223.764 1.152H225.732V22.896H223.764V1.152ZM245.794 1.152H247.786V22.896H245.794V1.152ZM241.666 9.504H246.274V11.136H241.666V9.504ZM230.746 16.032H232.402C236.242 16.032 238.954 15.912 242.146 15.336L242.338 16.992C239.074 17.568 236.314 17.712 232.402 17.712H230.746V16.032ZM230.698 3.192H240.394V10.8H232.714V16.536H230.746V9.168H238.426V4.824H230.698V3.192ZM252.008 12.624H271.664V14.256H252.008V12.624ZM260.984 13.44H262.976V18.432H260.984V13.44ZM254.504 20.76H269.48V22.392H254.504V20.76ZM254.504 16.512H256.472V21.384H254.504V16.512ZM254.624 1.848H256.592V4.608H267.08V1.848H269.072V10.536H254.624V1.848ZM256.592 6.168V8.928H267.08V6.168H256.592ZM281.142 2.736C284.526 2.736 286.95 4.824 286.95 7.848C286.95 10.896 284.526 12.984 281.142 12.984C277.758 12.984 275.31 10.896 275.31 7.848C275.31 4.824 277.758 2.736 281.142 2.736ZM281.142 4.464C278.886 4.464 277.254 5.832 277.254 7.848C277.254 9.864 278.886 11.256 281.142 11.256C283.374 11.256 285.006 9.864 285.006 7.848C285.006 5.832 283.374 4.464 281.142 4.464ZM289.782 1.152H291.774V22.896H289.782V1.152ZM274.494 18.144L274.206 16.488C278.166 16.488 283.638 16.464 288.366 15.72L288.534 17.184C283.662 18.12 278.358 18.144 274.494 18.144ZM305.434 2.088H319.402V3.696H305.434V2.088ZM302.938 9.24H322.594V10.872H302.938V9.24ZM318.106 2.088H320.05V3.48C320.05 5.04 320.05 7.056 319.474 9.744L317.53 9.528C318.106 6.888 318.106 5.016 318.106 3.48V2.088ZM305.242 13.008H320.122V18.528H307.282V21.552H305.29V16.992H318.154V14.616H305.242V13.008ZM305.29 21.024H320.674V22.632H305.29V21.024ZM341.048 1.176H343.064V22.872H341.048V1.176ZM328.088 3.096H329.576V7.968C329.576 11.424 328.736 15.816 326 17.904L324.704 16.488C327.344 14.544 328.088 10.752 328.088 7.968V3.096ZM328.52 3.096H329.984V7.968C329.984 10.584 330.536 14.568 333.2 16.632L332.096 18.144C329.168 15.96 328.52 11.232 328.52 7.968V3.096ZM334.232 3.096H335.696V7.968C335.696 11.376 335.024 16.008 332.096 18.144L330.992 16.632C333.656 14.64 334.232 10.728 334.232 7.968V3.096ZM334.64 3.096H336.128V7.968C336.128 10.848 336.872 14.592 339.512 16.488L338.288 17.952C335.456 15.888 334.64 11.544 334.64 7.968V3.096ZM347.095 18.552H366.751V20.208H347.095V18.552ZM355.879 13.896H357.871V19.248H355.879V13.896ZM349.471 2.784H364.327V9.36H351.511V13.704H349.543V7.752H362.359V4.392H349.471V2.784ZM349.543 12.864H364.831V14.496H349.543V12.864ZM390.755 1.176H392.747V13.44H390.755V1.176ZM392.219 6.144H395.963V7.8H392.219V6.144ZM379.067 14.616H392.747V22.584H379.067V14.616ZM390.803 16.224H381.035V20.952H390.803V16.224ZM376.955 2.256H378.947V10.944H376.955V2.256ZM376.955 10.128H378.659C381.779 10.128 385.019 9.912 388.571 9.192L388.811 10.824C385.139 11.592 381.899 11.808 378.659 11.808H376.955V10.128ZM406.953 3.504H408.897C408.897 9.696 406.209 15.24 399.057 18.768L398.001 17.208C404.145 14.16 406.953 9.552 406.953 3.84V3.504ZM398.937 3.504H407.937V5.136H398.937V3.504ZM413.841 1.152H415.833V22.848H413.841V1.152ZM408.105 7.104H414.249V8.712H408.105V7.104ZM407.865 12.936H414.009V14.568H407.865V12.936ZM420.079 18.456H439.735V20.112H420.079V18.456ZM428.863 13.272H430.855V18.936H428.863V13.272ZM422.383 2.712H424.351V6.576H435.415V2.712H437.383V13.8H422.383V2.712ZM424.351 8.184V12.168H435.415V8.184H424.351ZM450.701 8.928H454.853V10.584H450.701V8.928ZM446.645 3.216H448.205V7.344C448.205 11.88 446.309 16.272 443.141 18.216L441.893 16.704C444.869 14.952 446.645 11.064 446.645 7.344V3.216ZM447.029 3.216H448.565V7.272C448.565 10.752 450.197 14.448 453.053 16.176L451.901 17.736C448.781 15.816 447.029 11.496 447.029 7.272V3.216ZM458.669 1.176H460.589V22.872H458.669V1.176ZM454.277 1.632H456.149V21.792H454.277V1.632ZM469.035 12.336H471.003V18.84H469.035V12.336ZM477.051 12.336H479.043V18.84H477.051V12.336ZM464.235 18.456H483.891V20.112H464.235V18.456ZM474.027 2.544C478.611 2.544 481.899 4.728 481.899 8.136C481.899 11.52 478.611 13.704 474.027 13.704C469.419 13.704 466.131 11.52 466.131 8.136C466.131 4.728 469.419 2.544 474.027 2.544ZM474.027 4.128C470.547 4.128 468.051 5.712 468.051 8.136C468.051 10.536 470.547 12.12 474.027 12.12C477.507 12.12 479.979 10.536 479.979 8.136C479.979 5.712 477.507 4.128 474.027 4.128ZM488.326 21.1278C487.991 21.1278 487.701 21.0085 487.457 20.7699C487.218 20.5256 487.099 20.2358 487.099 19.9006C487.099 19.5597 487.218 19.2699 487.457 19.0312C487.701 18.7926 487.991 18.6733 488.326 18.6733C488.667 18.6733 488.957 18.7926 489.196 19.0312C489.434 19.2699 489.554 19.5597 489.554 19.9006C489.554 20.1222 489.497 20.3267 489.383 20.5142C489.275 20.7017 489.127 20.8523 488.94 20.9659C488.758 21.0739 488.554 21.1278 488.326 21.1278Z" fill="black"/>
</svg>
