<svg width="200" height="181" viewBox="0 0 200 181" fill="none" xmlns="http://www.w3.org/2000/svg">
<g clip-path="url(#clip0_18_2682)">
<path d="M19.3115 53.256H72.9435V60.168H19.3115V53.256ZM41.7755 42.056H50.2875V56.072H41.7755V42.056ZM25.3275 11.272H66.9275V30.984H33.9035V40.968H25.4555V24.328H58.4795V17.992H25.3275V11.272ZM25.4555 37.576H68.2715V44.424H25.4555V37.576ZM80.1705 13.128H103.659V41.16H80.1705V13.128ZM95.7225 19.592H88.1065V34.632H95.7225V19.592ZM120.555 7.496H128.619V51.464H120.555V7.496ZM113.387 24.136H122.795V31.048H113.387V24.136ZM108.011 8.52H115.947V49.544H108.011V8.52ZM88.7465 58.888H130.155V65.672H88.7465V58.888ZM88.7465 46.024H97.2585V62.6H88.7465V46.024ZM145.83 45.768H186.278V66.696H177.702V52.552H145.83V45.768ZM177.702 7.432H186.278V43.272H177.702V7.432ZM140.262 34.312H145.318C157.542 34.312 164.646 34.12 172.774 32.84L173.606 39.432C165.286 40.84 157.798 41.032 145.318 41.032H140.262V34.312ZM140.262 11.272H168.742V18.056H148.71V36.488H140.262V11.272ZM146.086 22.792H167.014V29.384H146.086V22.792ZM-7.63 87.952H40.626V93.84H-7.63V87.952ZM16.626 95.248C29.682 95.248 36.466 97.616 36.466 102.672C36.466 107.792 29.682 110.096 16.626 110.096C3.506 110.096 -3.214 107.792 -3.214 102.672C-3.214 97.616 3.506 95.248 16.626 95.248ZM16.626 100.624C8.754 100.624 5.81 101.2 5.81 102.672C5.81 104.208 8.754 104.784 16.626 104.784C24.498 104.784 27.442 104.208 27.442 102.672C27.442 101.2 24.498 100.624 16.626 100.624ZM12.338 83.792H20.85V92.944H12.338V83.792ZM-10.19 112.656H43.378V118.736H-10.19V112.656ZM12.338 107.664H20.85V115.728H12.338V107.664ZM-4.046 121.104H36.914V134.736H4.658V138.448H-3.982V129.296H28.274V126.928H-4.046V121.104ZM-3.982 137.488H38.45V143.312H-3.982V137.488ZM89.517 84.368H98.029V143.824H89.517V84.368ZM51.885 123.088H57.133C67.629 123.088 76.013 122.704 85.421 121.104L86.253 127.952C76.653 129.68 67.949 130 57.133 130H51.885V123.088ZM51.821 89.424H79.789V112.336H60.525V125.648H51.885V105.616H71.085V96.208H51.821V89.424ZM150.376 84.432H158.504V143.696H150.376V84.432ZM127.848 106.064H141.608V112.912H127.848V106.064ZM138.152 85.456H146.088V141.072H138.152V85.456ZM109.288 123.536H113.384C121.768 123.536 127.336 123.344 133.864 122.064L134.504 128.976C127.912 130.32 122.024 130.576 113.384 130.576H109.288V123.536ZM109.288 91.088H131.88V97.872H117.672V126.48H109.288V91.088ZM207.075 84.368H215.651V143.824H207.075V84.368ZM183.715 88.528C192.675 88.528 199.267 96.72 199.267 109.648C199.267 122.704 192.675 130.896 183.715 130.896C174.755 130.896 168.163 122.704 168.163 109.648C168.163 96.72 174.755 88.528 183.715 88.528ZM183.715 96.272C179.299 96.272 176.291 100.944 176.291 109.648C176.291 118.48 179.299 123.216 183.715 123.216C188.131 123.216 191.075 118.48 191.075 109.648C191.075 100.944 188.131 96.272 183.715 96.272Z" fill="#D2D2D2"/>
<path d="M101.634 133.622C100.148 138.605 98.1449 143.206 99.0391 148.649C100.056 148.176 100.888 147.934 101.556 147.459C105.539 144.625 109.499 141.759 113.437 138.861C115.043 137.68 116.584 136.409 118.123 135.14C118.69 134.674 119.267 134.337 119.95 134.719C120.5 135.026 120.713 136.462 120.219 137.096C119.389 138.158 118.529 139.249 117.489 140.089C114.243 142.708 110.926 145.241 107.597 147.758C106.122 148.872 104.652 150.055 103.014 150.877C99.684 152.548 95.4988 149.757 95.3698 146.012C95.2602 142.852 95.9352 139.844 96.9003 136.89C97.7623 134.249 98.5899 131.576 99.7227 129.046C101.47 125.147 103.201 121.221 105.679 117.693C106.303 116.806 106.818 115.847 107.384 114.919L107.175 114.659C106.238 115.114 105.303 115.568 104.366 116.023C100.572 117.863 96.7799 119.701 92.986 121.541C92.9215 121.573 92.8548 121.598 92.7904 121.631C91.3473 122.371 89.9687 122.172 88.6546 121.036C88.4676 122.112 88.2763 123.093 88.1258 124.08C86.5007 134.721 85.4582 145.417 84.8327 156.161C84.4866 162.115 83.7858 168.036 82.4617 173.863C82.1951 175.042 81.7373 176.176 81.3762 177.333C81.1655 178.009 80.6818 178.202 80.0477 178.076C79.7016 178.007 79.3642 177.874 79.0374 177.734C77.709 177.17 77.8401 177.178 78.1819 175.751C78.9514 172.534 79.7575 169.307 80.2089 166.04C80.8216 161.591 81.1354 157.099 81.546 152.623C81.9823 147.863 82.2467 143.084 82.825 138.341C83.5666 132.265 84.521 126.215 85.4324 120.16C85.9096 116.995 86.4577 113.839 87.0381 110.692C87.7432 106.87 88.5321 103.063 89.2565 99.2459C89.9271 95.7076 90.5097 92.1521 91.2233 88.6224C91.8811 85.3719 92.6614 82.147 93.3858 78.9115C93.418 78.7719 93.4503 78.6324 93.4804 78.4928C93.8995 76.5304 94.1661 76.4059 95.9266 77.5696C96.4747 77.9324 96.9412 78.4606 97.3496 78.9845C97.6763 79.4053 97.7795 79.8905 97.0895 80.1954C96.8681 80.2942 96.6488 80.5797 96.5843 80.8223C95.8556 83.577 95.0216 86.3123 94.4778 89.1034C92.8591 97.4037 91.3523 105.726 89.8111 114.041C89.5187 115.615 89.2651 117.193 88.9534 119.005C89.7573 118.777 90.4151 118.676 90.9976 118.412C94.6433 116.763 98.2932 115.119 101.902 113.39C104.475 112.158 106.999 110.816 109.525 109.487C110.114 109.178 110.621 108.712 111.171 108.328C111.311 108.231 111.466 108.124 111.627 108.096C112.884 107.883 114.671 109.352 114.671 110.623C114.671 110.913 114.548 111.258 114.366 111.484C109.692 117.264 105.993 123.627 102.958 130.391C102.715 130.932 102.558 131.511 102.309 132.226C106.694 129.13 111.395 127.086 116.201 125.351C121.001 123.619 125.756 121.581 131.158 121.266C131.429 119.799 131.805 118.14 132.033 116.461C132.501 113.032 132.908 109.592 133.299 106.155C133.396 105.307 133.787 105.06 134.58 105.167C136.648 105.444 137.308 106.325 136.962 108.223C136.418 111.203 135.926 114.191 135.427 117.178C134.778 121.079 134.015 124.967 133.54 128.89C132.929 133.907 131.983 138.91 132.353 144.005C132.385 144.46 132.727 144.891 132.921 145.336C133.174 145.92 133.587 146.56 132.931 147.081C132.353 147.543 131.698 147.588 130.943 147.232C129.468 146.536 129.021 145.306 128.918 143.846C128.634 139.799 129.008 135.797 129.608 131.793C129.989 129.257 130.141 126.689 130.397 124.147C128.609 124.722 126.637 125.302 124.707 125.989C121.311 127.2 117.882 128.344 114.574 129.766C111.896 130.917 109.364 132.417 106.786 133.796C106.292 134.06 105.875 134.476 105.438 134.843C104.26 135.831 103.549 135.792 102.569 134.67C102.339 134.405 102.102 134.146 101.636 133.622H101.634Z" fill="black"/>
<path d="M169.646 44.8232C170.802 44.0266 171.931 43.1914 173.118 42.4421C175.332 41.0444 177.668 39.9344 180.258 39.3697C185.015 38.3349 189.121 42.3498 189.338 47.0088C189.452 49.4736 188.7 51.7129 188.038 54.0103C186.866 58.0617 184.446 61.4432 182.118 64.8334C180.235 67.5751 177.918 70.0163 175.83 72.6206C173.87 75.0661 171.983 77.5673 170.022 80.0106C167.456 83.2076 164.85 86.3744 162.262 89.5541C162.196 89.6379 162.125 89.7216 162.073 89.8139C161.604 90.662 161.052 91.4156 159.919 91.1751C159.145 91.012 158.008 89.4811 157.991 88.5772C157.987 88.3003 158.159 87.9675 158.35 87.7463C161.678 83.8839 165.061 80.0686 168.35 76.1718C171.772 72.1182 175.209 68.0732 178.444 63.8737C181.361 60.0842 183.999 56.0714 185.396 51.4252C185.884 49.8 186.153 48.0888 186.344 46.3969C186.72 43.0691 184.702 42.0385 181.705 42.6439C178.242 43.346 175.387 45.2096 172.625 47.2858C170.822 48.6427 169.444 50.3474 168.238 52.2196C167.441 53.4563 166.557 53.4928 165.6 52.3656C164.21 50.7296 164.693 48.8918 165.188 47.172C166.015 44.3014 166.931 41.4416 168.045 38.6698C170.143 33.4461 172.41 28.2911 174.599 23.1039C174.71 22.8399 174.74 22.5414 174.59 22.0948C173.724 22.6144 172.862 23.1426 171.991 23.6557C170.274 24.6648 168.593 25.7383 166.826 26.653C161.338 29.4935 155.811 32.2588 150.313 35.0779C147.993 36.2673 145.713 37.5362 143.406 38.7493C141.678 39.6596 141.493 39.6038 140.354 38.0279C140.188 37.8003 140.042 37.5598 139.715 37.0639C139.524 37.9184 139.258 38.5711 139.253 39.2238C139.238 40.9628 139.197 42.7191 139.427 44.4346C139.677 46.296 140.762 46.938 142.583 46.3905C144.146 45.9203 145.734 45.39 147.146 44.5956C150.442 42.7449 153.64 40.7202 156.875 38.7621C158.451 37.8089 159.341 36.3317 159.997 34.3758C160.474 34.7966 160.921 35.0306 161.127 35.3978C162.183 37.2807 162.019 39.0692 160.31 40.366C157.789 42.2811 155.121 44.0159 152.434 45.6992C150.655 46.8135 148.787 47.8204 146.869 48.6771C140.745 51.4145 136.607 47.6486 136.027 42.0793C135.623 38.2061 136.833 34.6012 138.34 31.0973C139.971 27.2949 142.362 23.9456 144.752 20.6091C146.431 18.2646 148.249 16.0188 149.995 13.7236C150.156 13.5132 150.253 13.2513 150.5 12.7875C150.029 12.9378 149.773 12.9915 149.543 13.0988C145.493 14.9882 141.437 16.8669 137.402 18.7841C135.244 19.8083 133.101 20.8689 130.988 21.9811C130.032 22.4856 129.425 22.0047 129.011 21.337C128.604 20.6843 128.422 19.8834 128.198 19.132C128.174 19.0482 128.516 18.7949 128.725 18.7133C131.214 17.7343 133.759 16.884 136.192 15.7848C141.338 13.4595 146.426 11.0077 151.534 8.5987C152.275 8.24873 153.028 7.89877 153.707 7.4436C154.365 7.00132 154.902 7.02708 155.407 7.59389C155.932 8.18218 156.519 8.75328 156.878 9.43604C157.03 9.73018 156.792 10.3764 156.534 10.7135C154.44 13.466 152.318 16.197 150.171 18.9087C146.263 23.8447 142.574 28.9116 140.345 34.876C140.246 35.1423 140.152 35.4149 140.079 35.6898C140.055 35.7821 140.102 35.8916 140.139 36.1514C140.734 35.9324 141.306 35.7756 141.831 35.5223C147.179 32.948 152.51 30.3437 157.862 27.7801C161.858 25.8672 165.921 24.0851 169.876 22.0906C172.167 20.9355 174.47 19.6816 176.449 18.0799C177.548 17.1911 178.053 15.5271 178.717 14.1616C179.403 12.7532 179.938 11.2717 180.587 9.84612C180.682 9.63786 181.084 9.3888 181.282 9.43174C182.765 9.76453 183.605 11.6582 182.967 13.0473C179.674 20.2119 176.335 27.3593 173.133 34.5647C171.845 37.4611 170.856 40.4905 169.747 43.462C169.603 43.8463 169.543 44.2607 169.442 44.6621C169.508 44.7158 169.577 44.7673 169.644 44.821L169.646 44.8232Z" fill="black"/>
<path d="M23.0562 118.53C24.3094 119.26 24.533 120.274 24.26 121.399C23.6409 123.954 22.9724 126.496 22.3082 129.04C22.2136 129.403 22.0331 129.742 21.7773 130.378C23.1616 130.015 24.2708 129.71 25.3864 129.435C28.7075 128.613 32.0135 127.728 35.3604 127.024C36.6157 126.76 37.9678 126.854 39.2661 126.938C39.7369 126.968 40.2205 127.389 40.6225 127.724C41.1792 128.186 41.6822 128.733 41.3641 129.562C41.0675 130.339 40.3818 130.101 39.7992 130.124C36.0224 130.285 32.3789 131.168 28.7762 132.218C25.9431 133.044 23.1358 133.968 20.3392 134.914C19.7223 135.123 19.0667 135.505 18.6625 135.996C17.5942 137.302 16.2959 138.255 14.8105 139.002C11.6506 140.595 8.36396 141.815 4.85157 142.362C4.35931 142.44 3.86706 142.513 3.37266 142.564C1.98189 142.712 0.26869 141.521 0.00644247 140.117C-0.0494463 139.812 0.279437 139.223 0.573928 139.099C5.50718 137.001 10.477 134.99 15.3973 132.866C16.1905 132.525 17.0353 131.861 17.4308 131.121C19.101 127.99 20.3177 124.677 20.8916 121.154C20.9196 120.987 20.8938 120.811 20.8916 120.454C20.4811 120.639 20.1543 120.738 19.8813 120.916C17.3771 122.56 14.9137 124.259 12.0268 125.233C10.0793 125.89 7.8932 125.33 6.57767 123.636C5.54373 122.303 5.61036 120.413 6.78618 118.749C8.06087 116.946 9.36136 115.16 10.6554 113.369C11.0423 112.834 11.4077 112.377 11.2895 111.578C11.1584 110.692 11.8785 110.086 12.5836 109.629C15.2598 107.892 17.16 105.466 18.7378 102.756C19.0495 102.222 19.2451 101.618 19.6105 100.781C18.5744 101.032 17.8092 101.146 17.0976 101.402C13.0135 102.872 8.80677 103.791 4.50334 104.294C3.13621 104.452 1.24029 102.559 1.49609 101.26C1.53693 101.054 1.85077 100.813 2.08292 100.749C4.75484 100.006 7.42245 99.2331 10.1202 98.5954C11.8785 98.1789 13.6841 97.9535 15.4726 97.6765C16.1497 97.5713 16.859 97.6422 17.5211 97.4897C18.166 97.3394 18.3401 96.8198 17.9919 96.2401C17.3513 95.1709 16.7623 94.0545 15.9971 93.0776C13.5724 89.9837 11.038 86.9779 7.99423 84.4552C7.18385 83.7832 6.24234 83.2378 5.55447 82.4649C4.96549 81.8036 4.65166 80.8976 4.06267 79.8155C4.64521 79.8155 5.12026 79.6759 5.41045 79.8455C6.51533 80.4896 7.6374 81.1445 8.61331 81.9603C13.0307 85.6575 16.6118 90.1018 19.8018 94.8596C20.6853 96.1757 21.4849 97.6207 21.3409 99.3404C21.3301 99.4736 21.3624 99.6453 21.4419 99.7441C22.4415 100.976 22.6156 102.366 22.1147 104.09C22.8219 103.911 23.3529 103.789 23.8774 103.645C27.6843 102.593 30.6206 103.727 32.3897 107.037C32.725 107.662 32.6756 108.77 32.3445 109.425C31.1128 111.86 29.0084 113.573 26.9749 115.314C25.7217 116.388 24.4255 117.412 23.0498 118.537L23.0562 118.53ZM29.808 106.612C29.1589 106.503 28.5484 106.25 27.9895 106.333C26.1 106.615 24.2041 106.917 22.3598 107.4C20.5713 107.868 18.8366 108.491 17.62 110.097C15.4124 113.015 13.0737 115.834 10.8661 118.754C10.0514 119.834 9.45594 121.079 8.74443 122.275C12.3686 123.812 29.3351 110.464 29.8059 106.612H29.808Z" fill="black"/>
<path d="M45.3021 44.555C45.7471 44.5099 46.1942 44.4691 46.6392 44.4175C49.5669 44.074 52.2409 42.9576 54.7559 41.5169C58.0383 39.6361 61.2476 37.6265 64.4612 35.6277C65.2716 35.1231 65.9788 34.4554 66.7355 33.865C66.873 33.7576 67.0944 33.5493 67.1546 33.5858C67.9306 34.056 68.8162 34.4511 69.3859 35.1124C69.6331 35.4001 69.4074 36.3984 69.0785 36.83C66.1572 40.6538 63.1994 44.4519 60.1836 48.2027C56.8324 52.3701 53.4124 56.4816 50.0097 60.6082C49.5626 61.1514 49.0316 61.6259 48.3158 62.3602C48.9865 62.3237 49.4099 62.3129 49.8334 62.2764C56.1617 61.7354 62.4879 61.1793 68.8162 60.6511C72.1932 60.3699 75.5723 60.138 78.9514 59.8804C79.4738 59.8396 80.1058 59.5712 80.4841 59.7773C80.8839 59.9963 81.3761 60.8444 81.2386 61.0848C80.9355 61.6194 80.2928 62.2593 79.7403 62.3086C73.8462 62.8239 67.9392 63.176 62.0451 63.687C58.2812 64.0134 54.5238 64.4685 50.7792 64.9774C48.7737 65.2501 46.7681 65.6451 44.8206 66.1947C43.533 66.5576 42.024 65.5249 41.7403 64.1272C41.693 63.8953 41.8757 63.4959 42.0799 63.3499C45.2742 61.0634 47.8838 58.1992 50.3515 55.1805C52.271 52.8317 54.2465 50.5258 56.166 48.177C57.9029 46.0514 59.601 43.8937 61.3035 41.7402C61.4217 41.5899 61.4454 41.3645 61.6152 40.8836C60.6006 41.4461 59.831 41.9012 59.0379 42.307C56.3401 43.6876 53.6962 45.2055 50.9082 46.3756C48.6662 47.3182 46.2436 47.8807 43.9135 46.3842C42.1208 45.2334 41.8177 43.6038 43.1719 41.9764C44.8249 39.9904 46.8756 38.4488 48.9306 36.9051C52.6644 34.1011 56.6819 31.6535 59.9321 28.2376C60.2395 27.9134 60.5017 27.5484 60.88 27.0868C59.5731 26.4556 58.4188 26.5415 57.2322 26.9108C53.219 28.1539 49.2272 29.4786 45.1753 30.58C42.0928 31.4174 38.9308 31.9584 35.8032 32.6347C34.7542 32.8623 33.8987 32.6497 33.3398 31.6449C32.6326 30.3718 32.9077 29.908 34.2899 29.5001C37.2326 28.6327 40.141 27.645 43.0687 26.7197C47.3249 25.3714 51.581 23.9908 56.0994 23.8749C57.0259 23.8513 57.8362 23.8126 58.5456 23.0955C59.8181 21.8009 60.0181 21.1074 59.1625 19.4907C57.5418 16.429 55.4051 13.7109 52.8235 11.4479C49.2315 8.29827 45.4118 5.41053 41.7231 2.37036C41.334 2.04831 41.0997 1.46861 40.9449 0.961915C40.8633 0.693538 41.0374 0.270576 41.2351 0.0301099C41.3104 -0.0622119 41.8284 0.0923734 42.0498 0.259841C43.9543 1.70264 45.8524 3.15617 47.7225 4.64405C52.1055 8.12866 56.1338 11.9718 59.313 16.6137C60.5769 18.458 61.9376 20.2915 62.1117 22.6532C62.1332 22.9345 62.2042 23.3038 62.0644 23.4863C61.2046 24.6027 61.9312 25.2146 62.6921 25.9296C64.257 27.3981 64.3258 28.5124 62.7201 29.8286C60.046 32.0207 57.215 34.0195 54.5152 36.1859C51.624 38.5047 48.8059 40.9158 45.9706 43.3032C45.6589 43.5673 45.4375 43.9388 45.1753 44.2608C45.2183 44.3596 45.2613 44.4605 45.3064 44.5592L45.3021 44.555Z" fill="black"/>
<path d="M64.4849 117.766C63.0317 118.365 61.512 118.84 60.1406 119.587C57.0431 121.27 54.0552 123.155 50.9533 124.83C48.821 125.981 46.5618 126.897 44.3821 127.964C43.4986 128.398 42.7549 128.035 42.2712 127.473C41.7166 126.826 41.4243 125.946 41.0653 125.148C41.0309 125.07 41.2889 124.795 41.4608 124.701C46.8606 121.71 52.1206 118.462 57.9459 116.278C60.9596 115.149 63.1199 112.884 64.6353 110.073C65.4608 108.545 65.2028 108.049 63.5949 107.417C60.6113 106.245 57.574 106.445 54.5281 107.076C53.5522 107.278 52.5978 107.598 51.6369 107.87C51.4305 107.928 51.2263 107.999 51.035 108.094C50.4718 108.371 50.1451 109.195 49.2337 108.557C48.1718 107.812 46.9745 107.267 47.0583 105.487C48.2277 105.2 49.4486 104.832 50.6954 104.609C53.0363 104.19 55.3857 103.609 57.7438 103.54C61.4131 103.433 64.7213 104.607 67.232 107.46C68.6142 109.032 68.3949 111.696 66.7784 113.672C66.6022 113.886 66.4238 114.099 66.1658 114.408C66.9526 114.872 67.7028 115.252 68.3842 115.731C69.7492 116.693 69.9147 117.47 69.0613 118.91C68.6636 119.58 68.1886 120.218 67.6791 120.811C64.7987 124.162 61.7549 127.387 59.0486 130.869C56.6948 133.899 54.6527 137.179 52.6021 140.432C52.0389 141.325 51.854 142.498 51.6584 143.571C51.4907 144.484 51.8905 144.784 52.7719 144.408C53.8488 143.949 54.958 143.457 55.878 142.753C58.7111 140.58 61.4045 138.227 64.2527 136.076C68.2617 133.044 72.1846 129.852 76.8728 127.866C78.1389 127.329 79.4867 126.96 80.8259 126.635C81.129 126.562 81.791 126.934 81.8641 127.213C81.9587 127.574 81.7609 128.237 81.4621 128.439C79.9037 129.497 78.2765 130.455 76.6686 131.44C72.9155 133.74 69.4676 136.447 66.1035 139.275C63.3456 141.594 60.5812 143.91 57.7374 146.126C56.4046 147.165 54.8312 147.897 53.0556 147.616C49.9645 147.127 46.6263 143.571 48.7737 139.771C50.4202 136.857 52.1442 133.963 54.1132 131.262C56.3165 128.243 58.8293 125.448 61.2218 122.567C62.0623 121.556 62.9544 120.587 63.7991 119.578C64.1538 119.153 64.4462 118.674 64.7665 118.221C64.674 118.071 64.5794 117.918 64.487 117.768L64.4849 117.766Z" fill="black"/>
<path d="M31.9211 141.914C30.1864 141.39 28.6967 141.641 27.2651 141.987C22.751 143.077 18.4734 144.748 14.7224 147.558C13.7787 148.265 12.6653 148.868 12.5642 150.298C12.5513 150.472 11.8914 150.813 11.6679 150.725C10.3738 150.218 9.23669 149.471 8.91426 147.988C8.85407 147.708 8.95725 147.228 9.15931 147.079C11.3562 145.493 13.4864 143.779 15.8294 142.442C19.7029 140.23 23.8817 138.777 28.3872 138.502C30.5453 138.371 32.5015 138.996 34.0771 140.512C35.4141 141.8 35.5366 142.863 34.7177 144.552C34.6274 144.739 34.5306 144.926 34.464 145.059C35.3604 145.362 36.2696 145.536 37.0478 145.954C39.1651 147.09 39.2833 148.076 37.8775 149.697C35.9859 151.88 33.9976 153.982 32.0436 156.112C28.2582 160.236 24.2729 164.2 21.4462 169.101C21.0744 169.748 20.7713 170.439 20.4961 171.132C20.1328 172.049 20.5477 172.577 21.5086 172.298C22.6994 171.953 23.9268 171.573 24.978 170.941C29.075 168.487 33.0646 165.849 37.1854 163.437C39.9841 161.801 42.9204 160.399 45.8266 158.952C46.8305 158.452 47.9246 158.132 48.9843 157.75C49.1284 157.699 49.3175 157.774 49.5389 157.797C49.425 159.077 48.634 159.886 47.7483 160.509C45.8825 161.821 43.9135 162.982 42.0154 164.251C38.8448 166.372 35.6979 168.53 32.538 170.669C29.9994 172.386 27.5596 174.267 24.5309 175.126C21.4699 175.993 18.3466 174.731 16.9773 171.847C16.6871 171.24 16.6871 170.246 16.9837 169.645C19.5976 164.382 23.2583 159.884 27.3704 155.717C29.4878 153.572 31.5019 151.324 33.5633 149.123C33.486 149.001 33.4086 148.879 33.3312 148.758C32.955 148.855 32.5444 148.885 32.207 149.057C30.655 149.836 29.103 150.624 27.5854 151.47C25.4724 152.647 23.4002 153.896 21.2936 155.083C19.1204 156.307 16.9042 157.454 14.7503 158.705C12.9511 159.751 11.0144 159.266 10.2147 157.376C10.075 157.046 10.2728 156.284 10.5544 156.112C13.6218 154.225 16.6892 152.329 19.8513 150.609C22.3233 149.265 24.9909 148.277 27.45 146.91C28.5892 146.276 29.4856 145.169 30.3949 144.183C30.9602 143.571 31.3428 142.79 31.9211 141.911V141.914Z" fill="black"/>
<path d="M139.842 171.311C139.988 166.993 140.139 162.675 140.276 158.358C140.427 153.615 140.532 148.87 140.717 144.129C140.87 140.245 141.087 136.366 141.315 132.486C141.659 126.685 142.013 120.886 142.411 115.089C142.667 111.353 142.959 107.617 143.331 103.892C143.557 101.629 144.015 99.3919 144.29 97.1333C144.797 92.9831 145.848 88.9596 147.022 84.964C147.725 82.5765 148.509 80.2126 149.193 77.8187C149.661 76.1763 150.042 74.5059 150.405 72.8355C150.536 72.23 150.833 72.1162 151.385 72.1678C152.879 72.3052 153.999 73.0631 154.881 74.2139C155.48 74.9954 155.293 75.3454 154.313 75.5214C154.055 75.5665 153.7 75.7941 153.621 76.0174C152.944 77.9282 152.286 79.8455 151.686 81.7821C150.936 84.1975 150.117 86.6043 149.554 89.0648C148.664 92.9509 147.759 96.8542 147.237 100.8C146.594 105.64 146.274 110.526 145.934 115.4C145.633 119.705 145.521 124.023 145.274 128.329C145.023 132.744 144.616 137.154 144.444 141.57C144.204 147.741 144.189 153.922 143.941 160.092C143.726 165.475 143.32 170.851 142.998 176.229C142.993 176.3 142.968 176.369 142.961 176.44C142.763 178.531 142.278 178.789 140.319 177.984C139.55 177.668 139.451 177.092 139.466 176.44C139.507 174.726 139.586 173.015 139.651 171.302C139.713 171.304 139.776 171.306 139.838 171.308L139.842 171.311Z" fill="black"/>
<path d="M196.09 77.6298C198.25 77.5804 199.927 79.1349 200 81.1187L199.725 80.9899C199.441 81.4966 199.05 81.9754 198.897 82.5186C198.366 84.4058 197.893 86.3081 197.446 88.2167C196.546 92.0685 195.6 95.9138 194.815 99.7892C193.47 106.441 192.427 113.141 191.898 119.913C191.294 127.675 190.768 135.445 190.103 143.2C189.504 150.201 188.805 157.192 188.07 164.18C187.644 168.221 187.032 172.24 186.561 176.277C186.447 177.256 186.548 178.263 186.593 179.255C186.632 180.118 186.254 180.83 185.473 180.972C184.603 181.131 183.861 180.59 183.595 179.712C183.253 178.591 183.115 177.406 182.728 176.307C182.111 174.555 182.767 172.949 183.049 171.276C183.5 168.603 183.852 165.911 184.216 163.223C184.575 160.571 184.923 157.918 185.228 155.26C185.51 152.816 185.763 150.366 185.974 147.917C186.625 140.34 187.217 132.757 187.9 125.182C188.291 120.847 188.691 116.508 189.321 112.203C190.043 107.261 190.918 102.333 191.92 97.4382C193.141 91.4673 194.568 85.5373 195.884 79.5857C196.025 78.9438 196.025 78.2718 196.09 77.6319V77.6298Z" fill="black"/>
<path d="M115.077 58.65C114.875 57.9845 114.507 57.3232 114.495 56.6555C114.404 51.5885 114.254 46.5172 114.376 41.4546C114.482 37.1498 114.748 32.8364 115.786 28.6154C116.251 26.7282 116.61 24.813 117.085 22.5844C116.715 22.9838 116.552 23.1298 116.423 23.3037C115.036 25.1587 113.703 27.0567 112.244 28.8537C111.75 29.4635 110.999 29.9659 110.262 30.2557C108.093 31.1081 106.649 30.1119 105.479 28.0271C104.411 26.1227 104.432 23.9607 104.858 21.8566C105.417 19.0977 106.036 16.3516 106.713 13.6206C107.046 12.2788 107.584 10.9884 108.007 9.66798C108.229 8.97879 108.721 8.69968 109.314 9.02817C109.983 9.39746 110.574 9.92777 111.141 10.4516C111.285 10.5848 111.317 11.0099 111.219 11.2095C109.295 15.0548 108.355 19.1879 107.726 23.3939C107.53 24.6971 107.7 26.0562 107.704 27.6707C109.591 26.7153 110.92 25.6182 111.874 24.2333C114.486 20.4525 117.035 16.6222 119.454 12.7146C120.356 11.2568 120.81 9.52413 121.513 7.93319C121.629 7.67126 121.947 7.33632 122.196 7.317C124.079 7.16671 125.333 8.84568 124.72 10.6341C123.344 14.6491 121.874 18.6361 120.621 22.6875C119.011 27.8833 117.97 33.2165 117.626 38.6506C117.313 43.6016 117.205 48.5655 116.967 53.523C116.913 54.6222 116.771 55.7301 116.524 56.8014C116.373 57.4541 115.948 58.0424 115.647 58.6586C115.458 58.6543 115.266 58.6522 115.077 58.6479V58.65Z" fill="black"/>
<path d="M167.974 115.265C171.138 114.344 174.132 115.995 175.759 118.365C177.015 120.192 177.776 122.354 177.359 124.652C177.075 126.217 176.63 127.767 176.093 129.268C174.36 134.118 172.316 138.839 169.44 143.131C167.176 146.508 163.879 147.61 159.934 145.594C157.664 144.434 156.041 142.624 155.519 140.102C155.257 138.839 155.19 137.435 155.459 136.185C156.104 133.201 156.789 130.191 157.849 127.335C159.272 123.501 161.039 119.789 162.707 116.048C163.466 114.346 164.571 112.899 166.101 111.765C167.679 110.599 170.153 111.336 171.344 112.65C171.529 112.854 171.503 113.333 171.426 113.646C171.396 113.766 170.931 113.871 170.691 113.831C169.392 113.612 168.672 114.421 167.976 115.265H167.974ZM167.546 115.653C167.226 116.012 166.968 116.216 166.819 116.482C165.934 118.069 164.951 119.615 164.233 121.274C162.995 124.141 161.854 127.054 160.813 130C159.853 132.724 159.124 135.52 158.999 138.44C158.933 139.992 159.315 141.416 160.091 142.74C160.859 144.05 162.228 144.492 163.477 143.618C164.569 142.854 165.689 141.95 166.402 140.853C169.721 135.758 172.66 130.453 173.857 124.4C174.227 122.537 174.177 120.63 173.193 118.883C172.63 117.88 171.275 117.382 170.334 117.843C168.898 118.548 168.421 118.365 167.87 116.873C167.748 116.542 167.686 116.192 167.544 115.653H167.546Z" fill="black"/>
<path d="M71.5784 18.6189C72.8424 18.4858 73.7645 18.664 74.2503 19.482C75.4627 21.5238 76.6342 23.6 77.6703 25.7363C78.4377 27.3208 78.9643 29.019 79.6651 30.8419C80.3078 29.1736 80.8388 27.6857 81.4535 26.2301C82.8379 22.9537 84.4328 19.7654 87.2488 17.4788C88.6073 16.3753 90.2195 15.5122 91.8381 14.8273C93.302 14.2068 94.7916 14.7006 96.0942 15.6066C98.9209 17.5754 100.077 20.3709 100 23.7181C99.9162 27.3379 98.8263 30.6916 97.2959 33.9615C95.0367 38.7901 91.9886 43.0498 88.373 46.9295C87.2079 48.179 86.217 48.2671 85.2282 47.3181C84.6994 46.8092 84.6285 46.2188 85.2217 45.7529C88.1559 43.4513 90.0368 40.3252 91.8703 37.1906C93.1988 34.9212 94.3961 32.5616 95.4752 30.1634C96.7843 27.2585 97.3109 24.1561 97.0809 20.972C97.0207 20.1454 96.694 19.2995 96.3264 18.5416C95.8599 17.5819 94.8926 17.2963 93.7448 17.6205C90.3979 18.5652 88.0463 20.7659 86.2084 23.6086C83.8954 27.1833 82.3929 31.0158 82.3435 35.342C82.3155 37.6801 83.1066 39.7434 84.2501 41.7144C84.3383 41.8689 84.5253 42.0128 84.5274 42.1609C84.5339 42.6784 84.478 43.1979 84.4457 43.7154C84.0158 43.681 83.5795 43.6853 83.1603 43.6059C81.9759 43.3804 81.5051 42.4272 81.1333 41.4524C79.6006 37.4225 78.1368 33.3646 76.574 29.3475C75.3595 26.2301 74.3901 22.9924 72.3308 20.2592C72.0126 19.8363 71.8751 19.278 71.5827 18.6167L71.5784 18.6189Z" fill="black"/>
<path d="M112.416 65.1277C108.964 64.8959 106.651 63.5754 104.525 61.9029C100.864 59.0238 98.3857 55.2815 96.7627 50.951C96.5155 50.2918 96.3135 49.6069 96.1845 48.9177C96.0749 48.323 96.4704 47.9258 97.0014 48.2028C98.2481 48.849 99.4583 49.5833 100.615 50.3777C100.969 50.6203 101.212 51.1485 100.576 51.5672C100.415 51.6724 100.342 52.1361 100.428 52.3594C102.083 56.7007 104.817 60.1595 109.116 62.0747C111.522 63.146 114.138 62.8261 116.554 61.9351C120.18 60.5975 123.282 58.3517 126.188 55.8311C126.814 55.288 127.525 54.3841 128.376 55.0582C129.148 55.6701 128.456 56.6041 128.037 57.1537C127.143 58.3303 126.124 59.4381 125.023 60.4279C122.97 62.2701 120.741 63.818 118.003 64.5781C115.93 65.1535 113.878 65.336 112.414 65.1299L112.416 65.1277Z" fill="black"/>
</g>
<defs>
<clipPath id="clip0_18_2682">
<rect width="200" height="181" fill="white"/>
</clipPath>
</defs>
</svg>
