<svg width="99" height="33" viewBox="0 0 99 33" fill="none" xmlns="http://www.w3.org/2000/svg">
<rect width="99" height="33" fill="#282828"/>
<path d="M36.1216 14.76H38.7816V17.56H36.1216V14.76ZM37.4216 8C40.1016 8 42.0416 9.54 42.0416 11.78C42.0416 13.98 40.1016 15.52 37.4216 15.52C34.7416 15.52 32.8016 13.98 32.8016 11.78C32.8016 9.54 34.7416 8 37.4216 8ZM37.4216 10C36.1616 10 35.2816 10.64 35.2816 11.78C35.2816 12.9 36.1616 13.54 37.4216 13.54C38.7016 13.54 39.5616 12.9 39.5616 11.78C39.5616 10.64 38.7016 10 37.4216 10ZM43.9416 7.28H46.6016V21.4H43.9416V7.28ZM45.6616 13.08H48.9216V15.26H45.6616V13.08ZM34.2416 23.32H47.2216V25.46H34.2416V23.32ZM34.2416 20.18H36.9216V24.24H34.2416V20.18ZM32.1416 19L31.8416 16.88C34.9816 16.88 39.3216 16.86 42.9616 16.34L43.1416 18.24C39.4016 18.94 35.2016 19 32.1416 19ZM54.56 18.06H57.16V22.42H54.56V18.06ZM60.42 18.04H63.02V22.42H60.42V18.04ZM50.32 21.58H67.08V23.74H50.32V21.58ZM52.2 8.46H65.2V14.6H54.88V17.74H52.24V12.52H62.56V10.56H52.2V8.46ZM52.24 16.62H65.62V18.76H52.24V16.62Z" fill="white"/>
</svg>
