<svg width="90" height="16" viewBox="0 0 90 16" fill="none" xmlns="http://www.w3.org/2000/svg">
<path d="M8.78285 4.45312C8.71656 3.83286 8.4372 3.34991 7.94478 3.00426C7.45709 2.65862 6.82262 2.4858 6.04137 2.4858C5.49213 2.4858 5.02101 2.56866 4.62802 2.73438C4.23503 2.90009 3.93436 3.125 3.72603 3.40909C3.5177 3.69318 3.41116 4.01752 3.40643 4.3821C3.40643 4.68513 3.47508 4.94792 3.61239 5.17045C3.75444 5.39299 3.9462 5.58239 4.18768 5.73864C4.42916 5.89015 4.69667 6.01799 4.99023 6.12216C5.2838 6.22633 5.57972 6.31392 5.87802 6.38494L7.24165 6.72585C7.7909 6.85369 8.31883 7.02651 8.82546 7.24432C9.33683 7.46212 9.79374 7.73674 10.1962 8.06818C10.6034 8.39962 10.9254 8.79972 11.1621 9.26847C11.3989 9.73722 11.5172 10.2865 11.5172 10.9162C11.5172 11.7685 11.2994 12.5189 10.8638 13.1676C10.4282 13.8116 9.79847 14.3158 8.97461 14.6804C8.15548 15.0402 7.16353 15.2202 5.99876 15.2202C4.86713 15.2202 3.88465 15.045 3.05131 14.6946C2.22272 14.3442 1.57404 13.8329 1.10529 13.1605C0.641276 12.4882 0.390329 11.669 0.35245 10.7031H2.94478C2.98266 11.2098 3.13891 11.6312 3.41353 11.9673C3.68815 12.3035 4.04563 12.5545 4.48597 12.7202C4.93105 12.8859 5.42821 12.9688 5.97745 12.9688C6.55037 12.9688 7.05226 12.8835 7.48313 12.7131C7.91874 12.5379 8.25965 12.2964 8.50586 11.9886C8.75207 11.6761 8.87755 11.3116 8.88228 10.8949C8.87755 10.5161 8.76628 10.2036 8.54847 9.95739C8.33067 9.70644 8.02527 9.49811 7.63228 9.33239C7.24402 9.16193 6.78948 9.01042 6.26864 8.87784L4.61381 8.4517C3.4159 8.14394 2.46893 7.67756 1.7729 7.05256C1.08162 6.42282 0.735973 5.58712 0.735973 4.54545C0.735973 3.68845 0.967981 2.93797 1.432 2.29403C1.90075 1.65009 2.53758 1.15057 3.34251 0.795454C4.14743 0.435605 5.05889 0.255681 6.07688 0.255681C7.10908 0.255681 8.01344 0.435605 8.78995 0.795454C9.5712 1.15057 10.1844 1.64536 10.6294 2.27983C11.0745 2.90956 11.3042 3.634 11.3184 4.45312H8.78285ZM18.5822 15.2131C17.4885 15.2131 16.5439 14.9858 15.7484 14.5312C14.9577 14.072 14.3493 13.4233 13.9231 12.5852C13.497 11.7424 13.2839 10.7505 13.2839 9.60938C13.2839 8.48722 13.497 7.50237 13.9231 6.65483C14.354 5.80256 14.9553 5.13968 15.7271 4.66619C16.4989 4.18797 17.4056 3.94886 18.4473 3.94886C19.1196 3.94886 19.7541 4.05777 20.3507 4.27557C20.952 4.48864 21.4823 4.82008 21.9416 5.26989C22.4056 5.7197 22.7702 6.29261 23.0353 6.98864C23.3005 7.67992 23.4331 8.50379 23.4331 9.46023V10.2486H14.4913V8.51562H20.9686C20.9638 8.0232 20.8573 7.58523 20.649 7.2017C20.4406 6.81345 20.1494 6.50805 19.7754 6.28551C19.4061 6.06297 18.9752 5.9517 18.4828 5.9517C17.9572 5.9517 17.4956 6.07955 17.0978 6.33523C16.7001 6.58617 16.39 6.91761 16.1674 7.32955C15.9496 7.73674 15.8384 8.18419 15.8336 8.67188V10.1847C15.8336 10.8191 15.9496 11.3636 16.1816 11.8182C16.4136 12.268 16.738 12.6136 17.1547 12.8551C17.5713 13.0919 18.059 13.2102 18.6177 13.2102C18.9918 13.2102 19.3303 13.1581 19.6333 13.054C19.9364 12.9451 20.1992 12.7865 20.4217 12.5781C20.6442 12.3698 20.8123 12.1117 20.926 11.804L23.3265 12.0739C23.175 12.7083 22.8862 13.2623 22.4601 13.7358C22.0386 14.2045 21.4989 14.5691 20.8407 14.8295C20.1826 15.0852 19.4297 15.2131 18.5822 15.2131ZM30.4377 15.2131C29.3439 15.2131 28.3993 14.9858 27.6039 14.5312C26.8132 14.072 26.2047 13.4233 25.7786 12.5852C25.3525 11.7424 25.1394 10.7505 25.1394 9.60938C25.1394 8.48722 25.3525 7.50237 25.7786 6.65483C26.2095 5.80256 26.8108 5.13968 27.5826 4.66619C28.3543 4.18797 29.2611 3.94886 30.3027 3.94886C30.9751 3.94886 31.6096 4.05777 32.2061 4.27557C32.8075 4.48864 33.3378 4.82008 33.7971 5.26989C34.2611 5.7197 34.6257 6.29261 34.8908 6.98864C35.156 7.67992 35.2885 8.50379 35.2885 9.46023V10.2486H26.3468V8.51562H32.824C32.8193 8.0232 32.7128 7.58523 32.5044 7.2017C32.2961 6.81345 32.0049 6.50805 31.6309 6.28551C31.2615 6.06297 30.8307 5.9517 30.3382 5.9517C29.8127 5.9517 29.351 6.07955 28.9533 6.33523C28.5556 6.58617 28.2454 6.91761 28.0229 7.32955C27.8051 7.73674 27.6938 8.18419 27.6891 8.67188V10.1847C27.6891 10.8191 27.8051 11.3636 28.0371 11.8182C28.2691 12.268 28.5935 12.6136 29.0101 12.8551C29.4268 13.0919 29.9145 13.2102 30.4732 13.2102C30.8472 13.2102 31.1858 13.1581 31.4888 13.054C31.7918 12.9451 32.0546 12.7865 32.2772 12.5781C32.4997 12.3698 32.6678 12.1117 32.7814 11.804L35.182 12.0739C35.0305 12.7083 34.7417 13.2623 34.3155 13.7358C33.8941 14.2045 33.3543 14.5691 32.6962 14.8295C32.0381 15.0852 31.2852 15.2131 30.4377 15.2131ZM42.4245 15V4.09091H44.8819V5.9446H45.0098C45.237 5.3196 45.6135 4.83191 46.139 4.48153C46.6646 4.12642 47.292 3.94886 48.0211 3.94886C48.7598 3.94886 49.3824 4.12879 49.889 4.48864C50.4004 4.84375 50.7602 5.32907 50.9686 5.9446H51.0822C51.3237 5.33854 51.7309 4.85559 52.3038 4.49574C52.8815 4.13116 53.5656 3.94886 54.3564 3.94886C55.3601 3.94886 56.1793 4.2661 56.8137 4.90057C57.4482 5.53504 57.7654 6.4607 57.7654 7.67756V15H55.1873V8.07528C55.1873 7.3982 55.0074 6.90341 54.6476 6.59091C54.2877 6.27367 53.8474 6.11506 53.3265 6.11506C52.7063 6.11506 52.2209 6.30919 51.8706 6.69744C51.5249 7.08097 51.3521 7.58049 51.3521 8.19602V15H48.8308V7.96875C48.8308 7.4053 48.6603 6.95549 48.3194 6.61932C47.9833 6.28314 47.5429 6.11506 46.9984 6.11506C46.6291 6.11506 46.2929 6.20975 45.9899 6.39915C45.6868 6.58381 45.4454 6.84659 45.2654 7.1875C45.0855 7.52367 44.9956 7.91667 44.9956 8.36648V15H42.4245ZM65.1323 15.2131C64.0669 15.2131 63.1436 14.9787 62.3624 14.5099C61.5811 14.0412 60.9751 13.3854 60.5442 12.5426C60.1181 11.6998 59.905 10.715 59.905 9.58807C59.905 8.46117 60.1181 7.47396 60.5442 6.62642C60.9751 5.77888 61.5811 5.12074 62.3624 4.65199C63.1436 4.18324 64.0669 3.94886 65.1323 3.94886C66.1976 3.94886 67.1209 4.18324 67.9022 4.65199C68.6834 5.12074 69.2871 5.77888 69.7132 6.62642C70.1441 7.47396 70.3596 8.46117 70.3596 9.58807C70.3596 10.715 70.1441 11.6998 69.7132 12.5426C69.2871 13.3854 68.6834 14.0412 67.9022 14.5099C67.1209 14.9787 66.1976 15.2131 65.1323 15.2131ZM65.1465 13.1534C65.7241 13.1534 66.2071 12.9948 66.5953 12.6776C66.9836 12.3556 67.2724 11.9247 67.4618 11.3849C67.656 10.8452 67.753 10.2438 67.753 9.58097C67.753 8.91335 67.656 8.30966 67.4618 7.76989C67.2724 7.22538 66.9836 6.79214 66.5953 6.47017C66.2071 6.1482 65.7241 5.98722 65.1465 5.98722C64.5546 5.98722 64.0622 6.1482 63.6692 6.47017C63.281 6.79214 62.9898 7.22538 62.7956 7.76989C62.6062 8.30966 62.5115 8.91335 62.5115 9.58097C62.5115 10.2438 62.6062 10.8452 62.7956 11.3849C62.9898 11.9247 63.281 12.3556 63.6692 12.6776C64.0622 12.9948 64.5546 13.1534 65.1465 13.1534ZM72.5417 15V4.09091H75.0346V5.90909H75.1483C75.3471 5.27936 75.688 4.79403 76.171 4.45312C76.6587 4.10748 77.215 3.93466 77.84 3.93466C77.9821 3.93466 78.1407 3.94176 78.3159 3.95597C78.4958 3.96544 78.6449 3.98201 78.7633 4.00568V6.37074C78.6544 6.33286 78.4816 6.29972 78.2449 6.27131C78.0128 6.23816 77.7879 6.22159 77.5701 6.22159C77.1014 6.22159 76.68 6.32339 76.3059 6.52699C75.9366 6.72585 75.6454 7.00284 75.4324 7.35795C75.2193 7.71307 75.1127 8.12263 75.1127 8.58665V15H72.5417ZM84.8517 15.2131C83.758 15.2131 82.8134 14.9858 82.0179 14.5312C81.2272 14.072 80.6188 13.4233 80.1926 12.5852C79.7665 11.7424 79.5534 10.7505 79.5534 9.60938C79.5534 8.48722 79.7665 7.50237 80.1926 6.65483C80.6235 5.80256 81.2248 5.13968 81.9966 4.66619C82.7684 4.18797 83.6751 3.94886 84.7168 3.94886C85.3891 3.94886 86.0236 4.05777 86.6202 4.27557C87.2215 4.48864 87.7518 4.82008 88.2111 5.26989C88.6751 5.7197 89.0397 6.29261 89.3049 6.98864C89.57 7.67992 89.7026 8.50379 89.7026 9.46023V10.2486H80.7608V8.51562H87.2381C87.2334 8.0232 87.1268 7.58523 86.9185 7.2017C86.7102 6.81345 86.419 6.50805 86.0449 6.28551C85.6756 6.06297 85.2447 5.9517 84.7523 5.9517C84.2267 5.9517 83.7651 6.07955 83.3674 6.33523C82.9696 6.58617 82.6595 6.91761 82.437 7.32955C82.2192 7.73674 82.1079 8.18419 82.1032 8.67188V10.1847C82.1032 10.8191 82.2192 11.3636 82.4512 11.8182C82.6832 12.268 83.0075 12.6136 83.4242 12.8551C83.8408 13.0919 84.3285 13.2102 84.8873 13.2102C85.2613 13.2102 85.5998 13.1581 85.9029 13.054C86.2059 12.9451 86.4687 12.7865 86.6912 12.5781C86.9138 12.3698 87.0819 12.1117 87.1955 11.804L89.5961 12.0739C89.4445 12.7083 89.1557 13.2623 88.7296 13.7358C88.3082 14.2045 87.7684 14.5691 87.1103 14.8295C86.4521 15.0852 85.6993 15.2131 84.8517 15.2131Z" fill="white"/>
</svg>
