<svg width="68" height="17" viewBox="0 0 68 17" fill="none" xmlns="http://www.w3.org/2000/svg">
<path d="M34.1288 16.269C38.5783 16.269 42.1854 12.6501 42.1854 8.18588C42.1854 3.72171 38.5783 0.102783 34.1288 0.102783C29.6792 0.102783 26.0721 3.72171 26.0721 8.18588C26.0721 12.6501 29.6792 16.269 34.1288 16.269Z" fill="#FABA33"/>
<path d="M59.7541 16.269C64.2037 16.269 67.8108 12.6501 67.8108 8.18588C67.8108 3.72171 64.2037 0.102783 59.7541 0.102783C55.3046 0.102783 51.6975 3.72171 51.6975 8.18588C51.6975 12.6501 55.3046 16.269 59.7541 16.269Z" fill="#4FAF45"/>
<path d="M8.51073 16.269C12.9603 16.269 16.5674 12.6501 16.5674 8.18588C16.5674 3.72171 12.9603 0.102783 8.51073 0.102783C4.06118 0.102783 0.454102 3.72171 0.454102 8.18588C0.454102 12.6501 4.06118 16.269 8.51073 16.269Z" fill="#EC5F5B"/>
</svg>
