<svg width="794" height="21" viewBox="0 0 794 21" fill="none" xmlns="http://www.w3.org/2000/svg">
<path d="M757.347 5.35132C759.008 5.35132 760.346 6.70096 760.346 8.36035V16.9376C760.346 18.6044 759.001 19.9466 757.347 19.9466H748.798C747.137 19.9466 745.799 18.597 745.799 16.9376V8.36035C745.799 6.69358 747.144 5.35132 748.798 5.35132" stroke="#303030" stroke-miterlimit="10"/>
<path d="M753.076 12.6528V1.30249" stroke="#303030" stroke-miterlimit="10"/>
<path d="M753.076 1.30249L750.092 4.2894" stroke="#303030" stroke-miterlimit="10"/>
<path d="M756.009 4.28929L752.738 1" stroke="#303030" stroke-miterlimit="10"/>
<path d="M788.956 5.521H780.076C778.724 5.521 777.621 6.61988 777.621 7.98428V17.4908C777.621 18.8478 778.716 19.954 780.076 19.954H789.552C790.904 19.954 792.007 18.8552 792.007 17.4908V8.36778" stroke="#303030" stroke-miterlimit="10"/>
<path d="M782.304 14.6955L792.169 4.79077L792.639 5.2554L782.84 15.0864L782.171 15.3961L782.304 14.6955Z" fill="#303030"/>
<path d="M793.205 4.70227C793.256 4.61377 793.205 4.4589 793.095 4.34827C792.985 4.23764 792.83 4.18602 792.742 4.23764L792.426 4.55477L792.889 5.0194L793.205 4.70227Z" fill="#303030"/>
<path d="M727.561 19.9466H709.963C709.434 19.9466 709 19.5189 709 18.9805V9.17898H728.517V18.9805C728.517 19.5115 728.09 19.9466 727.554 19.9466H727.561ZM728.524 9.18636V7.37208C728.524 6.59032 727.892 5.96344 727.12 5.96344H718.505C717.799 5.96344 717.167 5.55044 716.873 4.90143L716.483 4.02379C716.373 3.78042 716.13 3.61816 715.858 3.61816H709.632C709.287 3.61816 709.007 3.89842 709.007 4.24505V9.18636H728.524Z" stroke="#303030" stroke-miterlimit="10"/>
<path d="M34.1288 17.269C38.5783 17.269 42.1854 13.6501 42.1854 9.18588C42.1854 4.72171 38.5783 1.10278 34.1288 1.10278C29.6792 1.10278 26.0721 4.72171 26.0721 9.18588C26.0721 13.6501 29.6792 17.269 34.1288 17.269Z" fill="#FABA33"/>
<path d="M59.7541 17.269C64.2037 17.269 67.8108 13.6501 67.8108 9.18588C67.8108 4.72171 64.2037 1.10278 59.7541 1.10278C55.3046 1.10278 51.6975 4.72171 51.6975 9.18588C51.6975 13.6501 55.3046 17.269 59.7541 17.269Z" fill="#4FAF45"/>
<path d="M8.51073 17.269C12.9603 17.269 16.5674 13.6501 16.5674 9.18588C16.5674 4.72171 12.9603 1.10278 8.51073 1.10278C4.06118 1.10278 0.454102 4.72171 0.454102 9.18588C0.454102 13.6501 4.06118 17.269 8.51073 17.269Z" fill="#EC5F5B"/>
</svg>
