<svg width="548" height="485" viewBox="0 0 548 485" fill="none" xmlns="http://www.w3.org/2000/svg">
<g filter="url(#filter0_d_215_20)">
<rect x="26" y="26" width="466" height="403" rx="21" fill="#E2E2E2"/>
<rect x="25.75" y="25.75" width="466.5" height="403.5" rx="21.25" stroke="#282828" stroke-width="0.5" shape-rendering="crispEdges"/>
</g>
<path d="M465.315 77.5857H51.0155V403.211H465.315V77.5857Z" fill="white"/>
<path d="M210.075 164.464C209.994 166.153 209.399 167.775 209.377 169.487C209.355 170.91 208.421 171.802 207.061 172.407C202.54 174.406 197.637 174.892 192.822 175.726C190.514 176.124 188.221 176.581 185.913 176.98C185.03 177.134 184.45 177.488 184.288 178.373C183.715 181.523 182.7 184.576 181.781 187.644C181.406 188.898 182.017 189.171 183.06 189.075C189.015 188.514 195.013 188.573 200.945 187.784C201.732 187.681 202.592 187.703 203.364 187.88C204.738 188.204 205.488 188.935 205.562 190.491C205.694 193.094 204.533 194.857 202.371 196.251C199.343 198.205 196.424 200.307 192.97 201.627C188.133 203.471 185.398 206.782 185.435 211.834C185.442 212.918 184.817 213.708 184.303 214.57C183.707 215.581 182.737 216.385 182.377 217.653C184.56 217.823 186.633 217.373 188.669 217.093C198.696 215.736 208.686 214.135 218.72 212.808C221.815 212.402 229.423 211.082 232.628 211.429C234.789 211.665 235.259 212.019 235.171 214.01C235.002 217.72 235.01 217.764 231.025 218.074C225.108 218.531 214.692 219.718 208.796 220.389C201.783 221.193 194.793 222.174 187.802 223.14C177.371 224.586 169.336 227.307 159.199 229.925C155.766 230.81 153.532 229.49 153.407 226.562C153.341 225.021 153.995 224.143 155.656 223.87C160.508 223.074 163.036 221.606 167.388 219.409C171.711 217.225 175.526 214.401 179.032 211.2C181.024 209.386 181.414 206.967 181.583 204.57C181.774 201.959 183.031 200.329 185.67 199.547C189.698 198.345 193.109 196.022 196.733 194.075C197.093 193.883 197.615 193.692 197.38 193.168C197.123 192.585 196.52 192.792 196.064 192.858C193.131 193.301 190.169 193.64 187.273 194.252C180.914 195.602 177.459 191.45 177.518 186.597C177.547 184.045 178.525 181.729 179.209 179.34C179.569 178.093 179.642 176.972 178.753 175.851C177.194 173.875 177.606 172.931 180.238 172.459C184.707 171.655 189.198 170.91 193.675 170.128C195.189 169.863 196.689 169.546 198.203 169.28C199.475 169.059 200.739 169.184 202.026 169.354C203.886 169.605 204.694 168.97 205.018 167.281C205.348 165.519 205.775 163.771 205.973 161.993C206.311 158.903 204.922 157.738 201.717 158.092C197.512 158.557 193.293 158.948 189.081 159.331C187.706 159.456 186.001 157.856 185.935 156.573C185.898 155.879 186.317 155.813 186.846 155.754C192.242 155.208 197.571 154.154 203.011 153.896C203.996 153.851 204.988 153.66 205.966 153.682C208.936 153.763 209.722 154.589 210.318 158.048C210.516 160.187 210.34 162.318 210.075 164.442V164.464Z" fill="black"/>
<path d="M387.931 307.12C388.108 301.479 388.284 295.844 389.019 290.232C389.644 285.467 389.975 280.673 390.578 275.909C391.21 270.872 392.055 265.849 392.731 260.812C393.202 257.309 393.408 253.769 393.974 250.281C394.334 248.068 394.393 245.804 395.054 243.628C396.12 240.147 394.937 236.865 393.893 233.598C393.4 232.057 392.797 230.545 392.217 229.026C391.959 228.362 391.842 227.647 392.621 227.352C396.789 225.788 405 225.84 409.08 227.72C413.321 229.675 414.306 233.288 413.689 237.625C413.586 238.37 413.542 239.115 413.446 239.86C413.358 240.582 413.645 241.726 412.094 241.165C411.675 241.01 411.579 241.327 411.572 241.644C411.469 244.661 410.822 247.626 410.432 250.613C409.874 254.905 409.205 259.19 408.631 263.482C408.198 266.757 407.845 270.046 407.433 273.32C406.977 276.949 406.463 280.563 406.044 284.191C405.698 287.193 405.456 290.209 405.191 293.226C404.691 298.846 404.302 304.473 403.67 310.071C403.258 313.729 395.664 315.838 391.798 315.72C389.769 315.661 388.063 314.009 387.953 311.885C387.872 310.307 387.939 308.713 387.939 307.128L387.931 307.12Z" fill="black"/>
<path d="M147.996 317.136C147.438 316.59 146.835 316.922 146.276 317.099C142.91 318.154 139.521 319.164 136.198 320.337C133.412 321.317 131.001 320.971 128.766 319.134C126.98 317.674 126.84 316.494 128.649 315.063C130.942 313.256 133.375 311.604 135.742 309.886C140.484 306.449 145.431 303.263 149.944 299.546C150.261 299.281 150.569 299.008 151.113 298.536C148.063 297.695 145.225 297.843 142.388 298.189C136.566 298.905 131.067 300.35 126.333 303.875C124.488 305.247 121.239 304.045 120.541 301.928C120.166 300.8 120.783 300.048 121.739 299.421C128.458 294.981 135.889 292.584 144.115 292.518C148.092 292.488 152.091 292.577 155.583 294.738C159.567 297.201 159.64 300.151 155.877 302.961C152.708 305.328 149.592 307.747 146.556 310.823C149.775 310.646 152.561 309.96 155.384 309.539C156.796 309.326 158.192 309.008 159.604 308.861C162.206 308.603 164.455 310.542 164.249 312.762C164.154 313.78 163.617 314.392 162.706 314.982C154.576 320.219 146.504 325.543 139.58 332.218C137.793 333.936 136.007 335.655 134.735 337.779C134.456 338.251 134.066 338.671 134.485 339.217C134.993 339.881 135.5 339.327 135.956 339.15C140.8 337.277 145.629 335.374 150.466 333.494C150.9 333.324 151.371 332.896 151.841 333.228C152.326 333.56 151.981 334.091 151.966 334.541C151.826 337.498 150.246 339.32 147.328 340.493C143.718 341.946 140.197 343.576 136.492 344.829C131.736 346.437 127.076 343.642 126.745 339.416C126.583 337.403 127.487 335.987 128.781 334.777C134.904 329.017 140.918 323.132 147.519 317.844C147.761 317.652 148.026 317.49 148.004 317.143L147.996 317.136Z" fill="black"/>
<path d="M334.725 173.255C335.96 173.27 337.202 173.285 338.437 173.307C340.334 173.145 342.216 173.241 344.09 173.513C345.722 173.897 346.847 174.789 347.236 176.368C347.56 177.688 346.803 178.824 345.421 178.868C343.399 178.942 341.37 179.384 339.341 178.949C336.842 178.691 334.343 178.551 331.829 178.669C330.594 178.647 329.351 178.624 328.117 178.602C325.595 178.912 323.081 178.307 320.56 178.573C318.619 178.366 316.789 179.052 314.892 179.192C314.047 179.251 313.672 179.945 313.473 180.66C312.937 182.622 312.518 184.613 311.878 186.545C311.474 187.747 312.011 187.888 312.988 187.747C316.759 187.231 320.523 186.649 324.309 186.176C327.698 185.756 331.042 185.048 334.541 185.815C336.57 186.258 338.753 186.081 340.863 186.184C342.848 186.612 344.913 186.213 346.898 186.685C349.089 187.666 349.339 188.168 349.368 190.1C349.398 191.641 348.508 191.981 347.192 192.018C343.833 192.106 340.584 191.383 337.32 190.771C334.747 190.292 332.13 190.233 329.528 190.425C323.265 190.889 317.237 192.563 311.106 193.714C308.585 194.186 305.828 191.59 305.939 188.92C306.123 184.429 307.725 180.225 308.916 175.932C309.563 173.609 310.621 171.434 311.724 169.288C312.297 168.174 311.996 167.643 310.989 167.031C308.637 165.6 306.372 164.036 304.042 162.569C302.418 161.551 301.977 159.965 301.727 158.336C301.55 157.207 302.293 156.846 303.366 157.185C304.314 157.487 305.211 157.93 305.939 158.579C309.225 161.499 313.231 161.78 317.428 161.367C317.671 161.345 317.921 161.308 318.163 161.308C321.324 161.3 324.493 161.293 327.653 161.286C333.534 161.286 339.422 161.3 345.303 161.249C346.281 161.241 347.258 161.079 348.251 161.027C350.015 160.946 351.213 161.735 352.242 162.923C352.897 163.675 353.47 164.523 352.852 165.482C352.279 166.382 351.331 166.964 350.169 166.728C348.405 166.367 346.634 166.138 344.84 166.168C340.525 166.227 336.225 166.382 331.917 166.706C330.807 166.787 329.675 166.64 328.55 166.618C325.963 166.559 323.397 166.743 320.817 166.972C319.523 167.09 318.847 167.672 318.56 168.698C318.222 169.907 317.524 170.947 317.053 172.09C317.097 173.115 317.965 172.687 318.457 172.717C321.508 172.879 324.559 172.982 327.609 173.1C329.976 173.123 332.343 173.432 334.718 173.263L334.725 173.255Z" fill="black"/>
<path d="M265.251 186.899C264.472 182.334 264.685 177.717 264.391 173.123C264.81 170.526 264.516 167.879 264.957 165.283C265.068 163.963 264.898 164.243 265.442 162.982C265.964 161.765 266.81 161.485 268.081 161.979C270.448 162.893 272.264 162.731 272.463 165.275C272.102 168.579 271.97 171.898 272.014 175.217C272.014 175.512 272.014 175.8 272.014 176.095C272.029 177.619 272.867 178.413 274.528 178.477C275.646 178.521 276.778 178.477 277.888 178.587C279.167 178.713 280.063 178.115 280.093 177.068C280.137 175.239 280.747 173.521 280.659 171.611C280.527 168.668 281.004 165.615 282.401 162.849C282.923 161.817 285.466 161.994 286.679 163.078C288.451 164.671 288.796 166.463 288.341 168.779C287.775 171.633 287.863 174.598 287.664 177.511C287.267 181.626 287.098 185.749 287.106 189.879C287.231 191.73 286.834 193.581 287.231 195.454C287.488 196.656 285.79 198.36 284.452 198.552C283.144 198.744 280.784 197.269 280.519 195.897C280.21 194.311 280.041 192.681 280.034 191.066C280.034 189.385 280.049 187.71 279.88 186.029C279.777 185.026 279.159 184.878 278.351 184.967C276.888 185.137 275.432 185.35 273.977 185.586C273.095 185.727 272.661 186.14 272.646 187.113C272.61 190.528 272.499 193.942 272.279 197.357C272.146 199.348 270.86 200.226 269.331 201.052C268.89 201.288 268.258 201.325 267.898 201.03C266.869 200.167 265.487 199.592 265.038 198.205C264.818 195.174 265.259 192.158 265.281 189.126C265.281 188.374 265.479 187.615 265.251 186.862V186.899Z" fill="black"/>
<path d="M354.168 208.493C356.3 208.869 358.454 209.032 360.615 209.179C362.673 209.319 364.085 211.303 364.048 213.545C363.916 221.503 357.976 228.649 353.124 234.904C349.964 238.975 345.781 241.902 341.179 244.329C338.753 245.605 335.982 243.938 336.004 241.335C336.011 240.258 336.886 239.837 337.665 239.38C340.165 237.935 342.576 236.386 344.796 234.557C349.956 230.294 355.565 224.497 357.454 218.361C357.895 216.923 358.322 215.485 358.755 214.047C354.793 213.449 350.794 213.501 346.795 213.472C344.737 213.413 342.671 213.435 340.628 213.272C336.217 212.911 331.799 213.14 327.411 213.213C321.471 213.317 315.517 213.649 309.614 214.511C307.034 214.888 304.101 212.314 304.241 209.813C304.314 208.597 305.417 208.523 306.292 208.479C310.548 208.257 314.789 207.903 319.053 207.793C324.265 207.653 329.469 207.992 334.674 207.726C337.07 207.512 339.452 207.859 341.841 207.866C345.95 208.117 350.081 208.007 354.176 208.501L354.168 208.493Z" fill="black"/>
<path d="M356.043 167.326C356.124 164.833 356.69 162.399 356.976 159.936C357.381 156.477 358.358 153.092 358.285 149.574C358.263 148.482 357.726 147.804 356.866 147.273C355.256 146.277 353.639 145.282 351.97 144.367C349.625 143.091 346.442 140.171 345.465 137.899C345.237 137.368 345.185 136.867 345.59 136.439C346.023 135.982 346.714 135.974 347.155 136.218C351.882 138.799 358.748 141.992 362.666 145.643C364.739 147.575 363.894 150.26 363.57 152.686C363.239 155.142 362.659 157.561 362.306 160.024C361.879 162.982 361.659 165.947 361.446 168.911C361.078 172.68 360.894 176.463 360.946 180.254C360.799 183.743 360.799 187.216 361.233 190.705C361.497 192.829 361.328 194.997 361.38 197.143C361.431 199.466 361.718 201.789 361.453 204.12C361.269 205.816 360.446 206.694 358.829 206.664C357.432 206.642 355.918 205.337 355.866 204.017C355.83 203.021 355.881 202.025 355.955 201.03C356.344 195.735 355.859 190.439 355.83 185.144C355.815 182.268 355.793 179.362 355.616 176.478C355.933 173.432 356.072 170.379 356.021 167.318L356.043 167.326Z" fill="black"/>
<path d="M230.202 259.883C229.981 257.457 229.651 255.052 228.585 252.796C226.203 247.758 221.719 245.708 216.235 245.192C215.118 245.089 214.317 245.915 213.64 246.77C212.486 248.23 211.928 248.149 211.045 246.512C209.634 243.879 211.766 240.767 215.081 240.826C220.462 240.922 224.895 242.972 228.305 246.932C231.577 250.738 233.187 255.133 233.613 259.964C233.716 261.152 233.892 262.324 234.039 263.504C234.26 266.049 234.274 268.593 234.032 271.13C233.451 277.465 232.613 283.764 231.047 289.973C229.526 295.999 227.975 302.039 226.865 308.138C226.372 310.852 225.644 313.684 226.924 316.59C227.651 318.242 227.129 320.263 226.681 322.07C226.424 323.102 225.556 322.874 224.895 322.38C223.674 321.472 223.152 320.241 222.969 318.795C222.484 314.99 222.498 311.221 222.969 307.393C223.777 300.785 225.703 294.413 227.166 287.945C228.092 283.837 229.026 279.722 229.43 275.511C229.643 273.335 230.084 271.167 230.195 268.977C230.445 265.945 230.423 262.914 230.202 259.883Z" fill="black"/>
<path d="M272.867 249.27C274.609 249.241 275.704 250.384 276.858 251.173C278.277 252.139 277.52 253.983 275.41 254.462C273.014 255.001 270.559 255.318 268.118 255.628C266.648 255.819 265.2 256.092 263.715 256.218C261.951 256.365 261.113 257.84 260.679 259.264C258.93 264.994 257.334 270.761 257.276 276.794C257.246 279.53 257.665 282.171 259.628 284.265C261.973 286.758 265.001 286.869 269.14 284.7C271.272 283.587 273.58 282.938 275.815 282.104C277.366 281.522 278.557 282.141 279.27 283.491C280.093 285.04 280.056 286.271 278.064 287.156C274.359 288.801 270.581 290.268 266.604 291.161C261.274 292.363 255.6 289.59 253.093 284.663C251.476 281.492 250.505 278.063 250.292 274.596C250.108 271.705 251.314 268.851 251.99 266.004C252.6 263.416 253.225 260.82 253.857 258.238C254.107 257.213 253.438 256.668 252.799 255.989C250.961 254.072 251.38 252.316 253.96 251.903C260.238 250.9 266.567 250.133 272.874 249.27H272.867Z" fill="black"/>
<path d="M300.286 273.763C299.94 277.126 300.301 280.445 300.955 283.741C301.271 285.342 301.389 286.935 301.153 288.557C300.97 289.818 301.124 291.257 299.257 291.507C297.684 291.721 295.758 290.468 295.405 288.882C294.956 286.868 294.596 284.826 294.346 282.783C293.744 277.812 293.369 272.826 293.986 267.826C294.111 266.816 293.302 265.894 293.949 264.854C292.847 264.566 292.273 265.193 291.656 265.532C287.635 267.737 283.658 270.024 279.622 272.207C277.976 273.099 276.263 273.984 274.352 272.546C272.007 270.783 272.044 268.8 274.646 267.413C278.321 265.451 282.048 263.571 285.775 261.705C288.818 260.178 291.788 258.592 294.133 256.122C295.067 255.141 296.243 254.425 297.831 254.676C301.366 255.251 301.477 257.088 301.624 259.573C301.697 260.768 301.381 261.985 301.234 263.187C300.72 266.698 300.345 270.216 300.286 273.763Z" fill="black"/>
<path d="M259.915 209.651C261.657 209.991 263.369 209.644 265.045 209.305C270.096 208.294 275.153 207.852 280.321 208.257C282.747 208.449 284.474 209.467 285.827 211.237C286.488 212.1 286.444 213.103 285.922 213.944C285.422 214.748 284.621 215.367 283.445 215.116C282.666 214.954 281.879 214.843 281.1 214.666C276.954 213.73 272.926 214.6 268.927 215.478C265.494 216.23 262.068 216.982 258.525 216.908C255.247 216.835 252.475 214.106 252.395 210.957C252.321 208.221 252.1 205.492 252.395 202.756C252.527 201.524 252.358 200.182 253.938 199.665C255.548 199.142 257.004 199.651 258.261 200.595C259.04 201.177 259.65 201.937 259.9 202.896C260.238 205.145 259.562 207.395 259.9 209.644L259.915 209.651Z" fill="black"/>
<path d="M190.389 276.993C195.226 276.765 199.335 275.872 203.202 274.132C204.356 273.608 205.841 273.062 206.532 273.97C207.319 275.002 206.591 276.359 205.488 277.296C204.68 277.982 203.864 278.69 202.849 279.066C199.233 280.386 195.586 281.551 191.624 281.603C188.853 281.64 187.28 280.231 186.17 278.1C185.067 275.983 185.604 274.198 187.317 272.546C188.647 271.263 189.867 269.862 191.073 268.46C192.705 266.558 192.558 266.233 190.308 264.906C187.772 263.408 184.95 262.841 182.075 262.509C180.333 262.31 179.973 261.144 179.517 259.994C179.289 259.411 179.363 258.865 180.363 258.829C184.707 258.644 192.293 261.1 194.888 265.68C196.182 267.966 195.954 270.312 194.234 272.428C193.08 273.844 191.889 275.223 190.382 277.008L190.389 276.993Z" fill="black"/>
<path d="M316.164 270.201C316.01 274.014 315.245 277.804 315.627 281.647C315.664 282.038 315.605 282.473 315.752 282.827C317.149 286.183 315.708 289.214 314.591 292.282C314.209 293.344 313.569 293.226 312.841 292.591C310.959 290.939 310.43 288.697 309.996 286.478C308.967 281.226 309.114 275.872 308.982 270.577C308.931 268.423 309.666 266.181 309.548 263.932C310.114 261.778 309.849 259.529 310.408 257.375C311.511 255.827 313.282 255.65 314.9 256.881C316.862 258.371 316.803 260.37 316.561 262.435C316.781 265.046 315.98 267.605 316.149 270.208L316.164 270.201Z" fill="black"/>
<path d="M229.158 271.13C229.158 268.586 229.158 266.041 229.166 263.504L229.158 271.13Z" fill="#6D6D6D"/>
<path d="M257.511 191.914C257.606 189.783 257.709 187.659 257.805 185.527L257.511 191.914Z" fill="#767676"/>
<path d="M380.11 260.289C378.889 256.218 375.956 253.386 372.259 251.247C369.532 249.676 367.01 248.017 365.026 245.553C363.129 243.201 360.858 243.208 358.946 245.553C356.271 248.85 352.625 250.561 348.692 251.977C346.266 252.855 343.598 253.363 341.738 255.207C338.805 258.106 336.298 261.306 334.674 265.068C333.608 267.531 332.902 270.075 333.336 272.701C334.181 277.768 336.776 282.112 340.121 286.072C344.215 290.925 349.302 293.595 356.175 292.894C361.424 292.356 366.209 290.932 370.348 287.798C377.809 282.148 380.786 274.582 380.823 266.255C380.955 263.917 380.654 262.073 380.117 260.281L380.11 260.289ZM357.814 280.187C354.94 281.536 351.941 282.355 348.802 280.585C346.082 279.058 344.73 276.13 345.634 273.276C346.023 272.052 346.354 270.813 346.795 269.611C349.346 262.671 353.308 260.053 361.174 260.06C363.467 260.001 365.709 260.399 367.959 260.746C368.723 260.864 368.841 261.115 368.863 261.719C369.142 268.578 365.048 276.787 357.814 280.187Z" fill="black"/>
<path d="M171.365 280.784C170.99 277.679 169.27 276.484 166.006 277.03C160.581 277.93 155.178 278.962 149.636 279.036C147.07 279.073 146.982 279.081 147.467 276.772C147.827 275.046 148.268 273.328 148.555 271.587C148.857 269.766 149.915 268.49 151.518 267.568C157.082 264.375 160.647 259.942 161.581 253.74C162.11 250.251 160.339 247.64 158.332 245.052C156.634 242.861 154.634 241.35 151.459 241.718C150.224 241.866 149.033 241.519 149.195 239.742C149.364 237.913 149.04 236.076 148.504 234.292C146.997 229.232 145.527 224.151 141.689 220.072C140.962 219.298 140.043 218.037 139.19 218.391C138.264 218.774 138.962 220.19 139.227 221.061C140.425 225.036 141.748 228.982 143.02 232.935C143.365 234.011 143.512 235.081 143.123 236.187C142.285 238.569 142.564 240.737 144.887 242.552C143.564 242.898 142.498 243.215 141.41 243.459C135.235 244.867 129.06 246.254 122.893 247.663C121.812 247.913 120.702 248.105 119.835 248.88C118.46 250.104 118.402 251.217 119.732 252.508C120.894 253.636 122.57 253.828 124.393 253.172C126.576 252.383 128.766 251.579 131.619 251.542C129.869 253.533 128.127 254.971 126.84 256.786C124.782 259.691 124.701 262.605 126.76 265.496C129.818 269.788 134.155 271.912 139.646 271.934C141.292 271.934 141.814 272.495 141.542 274.11C141.388 275.039 141.05 275.946 140.969 276.868C140.77 279.176 139.3 280.224 137.08 280.74C131.766 281.986 126.473 283.329 121.143 284.553C119.585 284.907 118.541 285.858 117.409 286.78C116.895 287.2 117.02 287.451 117.431 287.901C119.82 290.512 121.327 290.947 124.841 289.811C127.781 288.867 130.567 287.525 133.699 287.075C141.079 286.006 148.474 285.113 155.891 284.28C160.317 283.786 164.749 283.314 169.182 282.82C170.461 282.68 171.556 282.326 171.372 280.784H171.365ZM135.713 266.285C132.662 266.174 130.876 263.829 132.185 261.218C132.927 259.743 133.875 258.349 135.147 257.258C140.175 252.951 145.732 249.47 152.444 247.899C153.039 247.758 153.679 247.67 154.289 247.707C155.796 247.803 156.502 248.688 156.244 250.082C156.141 250.657 156.002 251.232 155.877 251.807C155.164 256.203 152.547 259.448 148.768 261.874C144.843 264.397 140.734 266.454 135.706 266.277L135.713 266.285Z" fill="black"/>
<path d="M257.805 185.528C257.709 183.44 257.481 181.361 257.636 179.259C257.856 176.176 257.974 173.086 257.724 169.988C257.518 167.451 254.776 164.361 252.343 164.169C249.19 163.926 246.014 163.955 242.875 164.243C241.633 164.354 240.273 164.221 239.111 164.892C237.634 165.74 236.274 166.006 234.752 164.767C233.878 164.051 232.584 163.778 231.408 164.376C230.268 164.958 230.408 166.028 230.481 167.031C230.79 171.294 231.363 175.556 231.334 179.812C231.297 184.834 231.974 189.894 230.775 194.909C230.187 197.379 233.848 199.813 236.862 199.437C241.625 198.832 246.359 197.977 251.196 197.999C254.159 198.014 256.357 196.885 256.893 194.997C257.18 193.994 257.312 192.954 257.511 191.929C257.856 189.812 257.93 187.681 257.805 185.542V185.528ZM246.212 191.715C244.213 191.9 242.184 191.804 240.199 192.239C239.633 192.364 239.295 191.995 239.075 191.538C238.744 189.053 239.45 186.575 239.097 184.089C238.891 181.257 238.773 178.418 238.45 175.601C238.288 174.236 238.612 173.351 239.971 172.783C242.721 171.64 245.198 169.833 248.521 170.276C249.726 170.438 250.27 170.822 250.13 171.884C249.704 175.143 250.307 178.396 250.123 181.648C250.189 184.274 250.123 186.892 249.748 189.495C249.829 191.988 247.631 191.568 246.212 191.7V191.715Z" fill="black"/>
<path d="M94.1288 60.269C98.5783 60.269 102.185 56.6501 102.185 52.1859C102.185 47.7217 98.5783 44.1028 94.1288 44.1028C89.6792 44.1028 86.0722 47.7217 86.0722 52.1859C86.0722 56.6501 89.6792 60.269 94.1288 60.269Z" fill="#FABA33"/>
<path d="M119.754 60.269C124.204 60.269 127.811 56.6501 127.811 52.1859C127.811 47.7217 124.204 44.1028 119.754 44.1028C115.305 44.1028 111.698 47.7217 111.698 52.1859C111.698 56.6501 115.305 60.269 119.754 60.269Z" fill="#4FAF45"/>
<path d="M68.5108 60.269C72.9603 60.269 76.5674 56.6501 76.5674 52.1859C76.5674 47.7217 72.9603 44.1028 68.5108 44.1028C64.0612 44.1028 60.4541 47.7217 60.4541 52.1859C60.4541 56.6501 64.0612 60.269 68.5108 60.269Z" fill="#EC5F5B"/>
<path d="M462.852 88.8697C462.852 87.106 461.427 85.6763 459.669 85.6763C457.911 85.6763 456.486 87.106 456.486 88.8697V170.217C456.486 171.981 457.911 173.41 459.669 173.41C461.427 173.41 462.852 171.981 462.852 170.217V88.8697Z" fill="#C3C2C2"/>
<defs>
<filter id="filter0_d_215_20" x="0.5" y="0.5" width="547" height="484" filterUnits="userSpaceOnUse" color-interpolation-filters="sRGB">
<feFlood flood-opacity="0" result="BackgroundImageFix"/>
<feColorMatrix in="SourceAlpha" type="matrix" values="0 0 0 0 0 0 0 0 0 0 0 0 0 0 0 0 0 0 127 0" result="hardAlpha"/>
<feOffset dx="15" dy="15"/>
<feGaussianBlur stdDeviation="20"/>
<feComposite in2="hardAlpha" operator="out"/>
<feColorMatrix type="matrix" values="0 0 0 0 0 0 0 0 0 0 0 0 0 0 0 0 0 0 0.25 0"/>
<feBlend mode="normal" in2="BackgroundImageFix" result="effect1_dropShadow_215_20"/>
<feBlend mode="normal" in="SourceGraphic" in2="effect1_dropShadow_215_20" result="shape"/>
</filter>
</defs>
</svg>
