<svg width="459" height="404" viewBox="0 0 459 404" fill="none" xmlns="http://www.w3.org/2000/svg">
<path d="M438.314 50.5857H24.0155V376.211H438.314V50.5857Z" fill="white"/>
<path d="M183.075 137.464C182.994 139.153 182.399 140.775 182.377 142.487C182.355 143.91 181.421 144.802 180.061 145.407C175.54 147.406 170.637 147.892 165.822 148.726C163.514 149.124 161.221 149.581 158.913 149.98C158.03 150.134 157.45 150.488 157.288 151.373C156.715 154.523 155.7 157.576 154.781 160.644C154.406 161.898 155.017 162.171 156.06 162.075C162.015 161.514 168.013 161.573 173.945 160.784C174.732 160.681 175.592 160.703 176.364 160.88C177.738 161.204 178.488 161.935 178.562 163.491C178.694 166.094 177.533 167.857 175.371 169.251C172.343 171.205 169.424 173.307 165.969 174.627C161.133 176.471 158.398 179.782 158.435 184.834C158.442 185.918 157.817 186.708 157.303 187.57C156.707 188.581 155.737 189.385 155.377 190.653C157.56 190.823 159.633 190.373 161.669 190.093C171.696 188.736 181.686 187.135 191.72 185.808C194.815 185.402 202.423 184.082 205.628 184.429C207.789 184.665 208.259 185.019 208.171 187.01C208.002 190.72 208.01 190.764 204.025 191.074C198.108 191.531 187.692 192.718 181.796 193.389C174.783 194.193 167.793 195.174 160.802 196.14C150.371 197.586 142.336 200.307 132.199 202.925C128.766 203.81 126.532 202.49 126.407 199.562C126.341 198.021 126.995 197.143 128.656 196.87C133.508 196.074 136.036 194.606 140.388 192.409C144.711 190.225 148.526 187.401 152.032 184.2C154.024 182.386 154.414 179.967 154.583 177.57C154.774 174.959 156.031 173.329 158.67 172.547C162.698 171.345 166.109 169.022 169.733 167.075C170.093 166.883 170.615 166.692 170.38 166.168C170.123 165.585 169.52 165.792 169.064 165.858C166.131 166.301 163.169 166.64 160.273 167.252C153.914 168.602 150.459 164.45 150.518 159.597C150.547 157.045 151.525 154.729 152.209 152.34C152.569 151.093 152.642 149.972 151.753 148.851C150.194 146.875 150.606 145.931 153.238 145.459C157.707 144.655 162.198 143.91 166.675 143.128C168.189 142.863 169.689 142.546 171.203 142.28C172.475 142.059 173.739 142.184 175.026 142.354C176.886 142.605 177.694 141.97 178.018 140.281C178.348 138.519 178.775 136.771 178.973 134.993C179.311 131.903 177.922 130.738 174.717 131.092C170.512 131.557 166.293 131.948 162.081 132.331C160.706 132.456 159.001 130.856 158.935 129.573C158.898 128.879 159.317 128.813 159.846 128.754C165.242 128.208 170.571 127.154 176.011 126.896C176.996 126.851 177.988 126.66 178.966 126.682C181.936 126.763 182.722 127.589 183.318 131.048C183.516 133.187 183.34 135.318 183.075 137.442V137.464Z" fill="black"/>
<path d="M360.931 280.12C361.108 274.479 361.284 268.844 362.019 263.232C362.644 258.467 362.975 253.673 363.577 248.909C364.21 243.872 365.055 238.849 365.731 233.812C366.202 230.309 366.408 226.769 366.974 223.281C367.334 221.068 367.393 218.804 368.054 216.628C369.12 213.147 367.937 209.865 366.893 206.598C366.4 205.057 365.797 203.545 365.217 202.026C364.959 201.362 364.842 200.647 365.621 200.352C369.789 198.788 378 198.84 382.08 200.72C386.321 202.675 387.306 206.288 386.689 210.625C386.586 211.37 386.542 212.115 386.446 212.86C386.358 213.582 386.645 214.726 385.094 214.165C384.675 214.01 384.579 214.327 384.572 214.644C384.469 217.661 383.822 220.626 383.432 223.613C382.874 227.905 382.205 232.19 381.631 236.482C381.198 239.757 380.845 243.046 380.433 246.32C379.977 249.949 379.463 253.563 379.044 257.191C378.698 260.193 378.456 263.209 378.191 266.226C377.691 271.846 377.302 277.473 376.669 283.071C376.258 286.729 368.664 288.838 364.798 288.72C362.769 288.661 361.063 287.009 360.953 284.885C360.872 283.307 360.938 281.713 360.938 280.128L360.931 280.12Z" fill="black"/>
<path d="M120.996 290.136C120.438 289.59 119.835 289.922 119.276 290.099C115.91 291.154 112.521 292.164 109.198 293.337C106.412 294.317 104.001 293.971 101.766 292.134C99.9801 290.674 99.8404 289.494 101.649 288.063C103.942 286.256 106.375 284.604 108.742 282.886C113.484 279.449 118.431 276.263 122.944 272.546C123.261 272.281 123.569 272.008 124.113 271.536C121.063 270.695 118.225 270.843 115.388 271.189C109.566 271.905 104.067 273.35 99.3332 276.875C97.4881 278.247 94.239 277.045 93.5407 274.928C93.1658 273.8 93.7833 273.048 94.7389 272.421C101.458 267.981 108.889 265.584 117.115 265.518C121.092 265.488 125.091 265.577 128.583 267.738C132.567 270.201 132.64 273.151 128.877 275.961C125.708 278.328 122.592 280.747 119.556 283.823C122.775 283.646 125.561 282.96 128.384 282.539C129.795 282.326 131.192 282.008 132.604 281.861C135.206 281.603 137.455 283.542 137.249 285.762C137.154 286.78 136.617 287.392 135.706 287.982C127.576 293.219 119.504 298.543 112.58 305.218C110.793 306.936 109.007 308.655 107.735 310.779C107.456 311.251 107.066 311.671 107.485 312.217C107.993 312.881 108.5 312.327 108.956 312.15C113.8 310.277 118.629 308.374 123.466 306.494C123.9 306.324 124.371 305.896 124.841 306.228C125.326 306.56 124.981 307.091 124.966 307.541C124.826 310.498 123.246 312.32 120.327 313.493C116.718 314.946 113.197 316.576 109.492 317.829C104.736 319.437 100.076 316.642 99.7449 312.416C99.5831 310.403 100.487 308.987 101.781 307.777C107.904 302.017 113.917 296.132 120.519 290.844C120.761 290.652 121.026 290.49 121.004 290.143L120.996 290.136Z" fill="black"/>
<path d="M307.725 146.255C308.96 146.27 310.202 146.285 311.437 146.307C313.334 146.145 315.216 146.241 317.09 146.513C318.722 146.897 319.847 147.789 320.236 149.368C320.56 150.688 319.803 151.824 318.421 151.868C316.399 151.942 314.37 152.384 312.341 151.949C309.842 151.691 307.343 151.551 304.829 151.669C303.594 151.647 302.351 151.624 301.117 151.602C298.595 151.912 296.081 151.307 293.56 151.573C291.619 151.366 289.789 152.052 287.892 152.192C287.047 152.251 286.672 152.945 286.473 153.66C285.937 155.622 285.518 157.613 284.878 159.545C284.474 160.747 285.011 160.888 285.988 160.747C289.759 160.231 293.523 159.649 297.309 159.176C300.698 158.756 304.042 158.048 307.541 158.815C309.57 159.258 311.753 159.081 313.863 159.184C315.848 159.612 317.913 159.213 319.898 159.685C322.089 160.666 322.339 161.168 322.368 163.1C322.397 164.641 321.508 164.981 320.192 165.018C316.833 165.106 313.584 164.383 310.32 163.771C307.747 163.292 305.13 163.233 302.528 163.425C296.265 163.889 290.237 165.563 284.106 166.714C281.585 167.186 278.828 164.59 278.939 161.92C279.122 157.429 280.725 153.225 281.916 148.932C282.563 146.609 283.621 144.434 284.724 142.288C285.297 141.174 284.996 140.643 283.989 140.031C281.636 138.6 279.372 137.036 277.042 135.569C275.418 134.551 274.977 132.965 274.727 131.336C274.55 130.207 275.293 129.846 276.366 130.185C277.314 130.487 278.211 130.93 278.939 131.579C282.225 134.499 286.231 134.78 290.428 134.367C290.671 134.345 290.921 134.308 291.163 134.308C294.324 134.3 297.492 134.293 300.653 134.286C306.534 134.286 312.422 134.3 318.303 134.249C319.281 134.241 320.258 134.079 321.251 134.027C323.015 133.946 324.213 134.735 325.242 135.923C325.897 136.675 326.47 137.523 325.852 138.482C325.279 139.382 324.331 139.964 323.169 139.728C321.405 139.367 319.634 139.138 317.84 139.168C313.525 139.227 309.225 139.382 304.917 139.706C303.807 139.787 302.675 139.64 301.55 139.618C298.963 139.559 296.397 139.743 293.817 139.972C292.523 140.09 291.847 140.672 291.56 141.698C291.222 142.907 290.524 143.947 290.053 145.09C290.097 146.115 290.965 145.687 291.457 145.717C294.508 145.879 297.559 145.982 300.609 146.1C302.976 146.123 305.343 146.432 307.718 146.263L307.725 146.255Z" fill="black"/>
<path d="M238.251 159.899C237.472 155.334 237.685 150.717 237.391 146.123C237.81 143.526 237.516 140.879 237.957 138.283C238.068 136.963 237.898 137.243 238.442 135.982C238.964 134.765 239.81 134.485 241.081 134.979C243.448 135.893 245.264 135.731 245.463 138.275C245.102 141.579 244.97 144.898 245.014 148.217C245.014 148.512 245.014 148.8 245.014 149.095C245.029 150.619 245.867 151.413 247.528 151.477C248.646 151.521 249.778 151.477 250.888 151.587C252.167 151.713 253.063 151.115 253.093 150.068C253.137 148.239 253.747 146.521 253.659 144.611C253.527 141.668 254.004 138.615 255.401 135.849C255.923 134.817 258.466 134.994 259.679 136.078C261.451 137.671 261.796 139.463 261.341 141.779C260.775 144.633 260.863 147.598 260.664 150.511C260.267 154.626 260.098 158.749 260.106 162.879C260.231 164.73 259.834 166.581 260.231 168.454C260.488 169.656 258.79 171.36 257.452 171.552C256.143 171.744 253.784 170.269 253.519 168.897C253.21 167.311 253.041 165.681 253.034 164.066C253.034 162.385 253.049 160.71 252.88 159.029C252.777 158.026 252.159 157.878 251.351 157.967C249.888 158.137 248.432 158.35 246.977 158.586C246.095 158.727 245.661 159.14 245.646 160.113C245.61 163.528 245.499 166.942 245.279 170.357C245.146 172.348 243.86 173.226 242.331 174.052C241.89 174.288 241.258 174.325 240.898 174.03C239.868 173.167 238.487 172.592 238.038 171.205C237.818 168.174 238.259 165.158 238.281 162.126C238.281 161.374 238.479 160.615 238.251 159.862V159.899Z" fill="black"/>
<path d="M327.168 181.493C329.3 181.869 331.454 182.032 333.615 182.179C335.673 182.319 337.085 184.303 337.048 186.545C336.916 194.503 330.976 201.649 326.124 207.904C322.963 211.975 318.781 214.902 314.179 217.329C311.753 218.605 308.982 216.938 309.004 214.335C309.011 213.258 309.886 212.837 310.665 212.38C313.165 210.935 315.576 209.386 317.796 207.557C322.956 203.294 328.565 197.497 330.454 191.361C330.895 189.923 331.322 188.485 331.755 187.047C327.793 186.449 323.794 186.501 319.795 186.472C317.737 186.413 315.671 186.435 313.628 186.272C309.217 185.911 304.799 186.14 300.411 186.213C294.471 186.317 288.517 186.649 282.614 187.511C280.034 187.888 277.101 185.314 277.241 182.813C277.314 181.597 278.417 181.523 279.292 181.479C283.548 181.257 287.789 180.903 292.053 180.793C297.265 180.653 302.469 180.992 307.674 180.726C310.07 180.512 312.452 180.859 314.841 180.866C318.95 181.117 323.081 181.007 327.176 181.501L327.168 181.493Z" fill="black"/>
<path d="M329.043 140.326C329.124 137.833 329.69 135.399 329.976 132.936C330.381 129.477 331.358 126.092 331.285 122.574C331.263 121.482 330.726 120.804 329.866 120.273C328.256 119.277 326.639 118.282 324.97 117.367C322.625 116.091 319.442 113.171 318.465 110.899C318.237 110.368 318.185 109.867 318.59 109.439C319.023 108.982 319.714 108.974 320.155 109.218C324.882 111.799 331.748 114.992 335.666 118.643C337.739 120.575 336.893 123.26 336.57 125.686C336.239 128.142 335.659 130.561 335.306 133.024C334.879 135.982 334.659 138.947 334.446 141.911C334.078 145.68 333.894 149.463 333.946 153.254C333.799 156.743 333.799 160.216 334.232 163.705C334.497 165.829 334.328 167.997 334.379 170.143C334.431 172.466 334.718 174.789 334.453 177.12C334.269 178.816 333.446 179.694 331.829 179.664C330.432 179.642 328.918 178.337 328.866 177.017C328.83 176.021 328.881 175.025 328.954 174.03C329.344 168.735 328.859 163.439 328.83 158.144C328.815 155.268 328.793 152.362 328.616 149.478C328.932 146.432 329.072 143.379 329.021 140.318L329.043 140.326Z" fill="black"/>
<path d="M203.202 232.883C202.981 230.457 202.651 228.052 201.585 225.796C199.203 220.758 194.719 218.708 189.235 218.192C188.118 218.089 187.317 218.915 186.64 219.77C185.486 221.23 184.928 221.149 184.045 219.512C182.634 216.879 184.766 213.767 188.081 213.826C193.462 213.922 197.895 215.972 201.305 219.932C204.577 223.738 206.187 228.133 206.613 232.964C206.716 234.152 206.892 235.324 207.039 236.504C207.26 239.049 207.274 241.593 207.032 244.13C206.451 250.465 205.613 256.764 204.047 262.973C202.526 268.999 200.975 275.039 199.865 281.138C199.372 283.852 198.644 286.684 199.924 289.59C200.651 291.242 200.129 293.263 199.681 295.07C199.424 296.102 198.556 295.874 197.895 295.38C196.674 294.472 196.152 293.241 195.969 291.795C195.484 287.99 195.498 284.221 195.969 280.393C196.777 273.785 198.703 267.413 200.166 260.945C201.092 256.837 202.026 252.722 202.43 248.511C202.643 246.335 203.084 244.167 203.195 241.977C203.445 238.945 203.423 235.914 203.202 232.883Z" fill="black"/>
<path d="M245.867 222.27C247.609 222.241 248.704 223.384 249.858 224.173C251.277 225.139 250.52 226.983 248.41 227.462C246.014 228.001 243.559 228.318 241.118 228.628C239.648 228.819 238.2 229.092 236.715 229.218C234.951 229.365 234.113 230.84 233.679 232.264C231.93 237.994 230.334 243.761 230.276 249.794C230.246 252.53 230.665 255.171 232.628 257.265C234.973 259.758 238.001 259.869 242.14 257.7C244.272 256.587 246.58 255.938 248.815 255.104C250.366 254.522 251.556 255.141 252.27 256.491C253.093 258.04 253.056 259.271 251.064 260.156C247.359 261.801 243.581 263.268 239.604 264.161C234.274 265.363 228.6 262.59 226.093 257.663C224.476 254.492 223.505 251.063 223.292 247.596C223.108 244.705 224.314 241.851 224.99 239.004C225.6 236.416 226.225 233.82 226.857 231.238C227.107 230.213 226.438 229.668 225.799 228.989C223.961 227.072 224.38 225.316 226.96 224.903C233.238 223.9 239.567 223.133 245.874 222.27H245.867Z" fill="black"/>
<path d="M273.286 246.763C272.94 250.126 273.301 253.445 273.955 256.741C274.271 258.342 274.388 259.935 274.153 261.557C273.969 262.818 274.124 264.257 272.257 264.507C270.684 264.721 268.758 263.468 268.405 261.882C267.956 259.868 267.596 257.826 267.346 255.783C266.744 250.812 266.369 245.826 266.986 240.826C267.111 239.816 266.302 238.894 266.949 237.854C265.847 237.566 265.273 238.193 264.656 238.532C260.635 240.737 256.658 243.024 252.622 245.207C250.976 246.099 249.263 246.984 247.352 245.546C245.007 243.783 245.044 241.8 247.646 240.413C251.321 238.451 255.048 236.571 258.775 234.705C261.818 233.178 264.788 231.592 267.133 229.122C268.067 228.141 269.243 227.425 270.831 227.676C274.366 228.251 274.477 230.088 274.624 232.573C274.697 233.768 274.381 234.985 274.234 236.187C273.72 239.698 273.345 243.216 273.286 246.763Z" fill="black"/>
<path d="M232.914 182.651C234.657 182.991 236.369 182.644 238.045 182.305C243.096 181.294 248.153 180.852 253.321 181.257C255.746 181.449 257.474 182.467 258.827 184.237C259.488 185.1 259.444 186.103 258.922 186.944C258.422 187.748 257.621 188.367 256.445 188.116C255.666 187.954 254.879 187.843 254.1 187.666C249.954 186.73 245.926 187.6 241.927 188.478C238.494 189.23 235.068 189.982 231.525 189.908C228.247 189.835 225.475 187.106 225.394 183.957C225.321 181.221 225.1 178.492 225.394 175.756C225.527 174.524 225.358 173.182 226.938 172.665C228.548 172.142 230.003 172.651 231.261 173.595C232.04 174.177 232.65 174.937 232.9 175.896C233.238 178.145 232.562 180.395 232.9 182.644L232.914 182.651Z" fill="black"/>
<path d="M163.389 249.993C168.226 249.765 172.335 248.872 176.202 247.132C177.356 246.608 178.841 246.062 179.532 246.97C180.319 248.002 179.591 249.359 178.488 250.296C177.68 250.982 176.864 251.69 175.849 252.066C172.232 253.386 168.586 254.551 164.624 254.603C161.853 254.64 160.28 253.231 159.17 251.1C158.067 248.983 158.604 247.198 160.317 245.546C161.647 244.263 162.867 242.862 164.073 241.46C165.705 239.558 165.558 239.233 163.308 237.906C160.772 236.408 157.95 235.841 155.075 235.509C153.333 235.31 152.973 234.144 152.517 232.994C152.289 232.411 152.363 231.865 153.363 231.829C157.707 231.644 165.293 234.1 167.888 238.68C169.182 240.966 168.954 243.312 167.234 245.428C166.08 246.844 164.889 248.223 163.382 250.008L163.389 249.993Z" fill="black"/>
<path d="M289.164 243.201C289.01 247.014 288.245 250.804 288.627 254.647C288.664 255.038 288.605 255.473 288.752 255.827C290.149 259.183 288.708 262.214 287.591 265.282C287.209 266.344 286.569 266.226 285.841 265.591C283.959 263.939 283.43 261.697 282.997 259.478C281.967 254.226 282.114 248.872 281.982 243.577C281.931 241.423 282.666 239.181 282.548 236.932C283.114 234.778 282.849 232.529 283.408 230.375C284.511 228.827 286.282 228.65 287.9 229.881C289.862 231.371 289.803 233.37 289.561 235.435C289.781 238.046 288.98 240.605 289.149 243.208L289.164 243.201Z" fill="black"/>
<path d="M202.158 244.13C202.158 241.586 202.158 239.041 202.166 236.504L202.158 244.13Z" fill="#6D6D6D"/>
<path d="M230.511 164.914C230.606 162.783 230.709 160.659 230.805 158.527L230.511 164.914Z" fill="#767676"/>
<path d="M353.11 233.289C351.889 229.218 348.956 226.386 345.259 224.247C342.532 222.676 340.01 221.017 338.025 218.553C336.129 216.201 333.858 216.208 331.946 218.553C329.271 221.85 325.624 223.561 321.692 224.977C319.266 225.855 316.598 226.363 314.738 228.207C311.805 231.106 309.298 234.306 307.673 238.068C306.608 240.531 305.902 243.075 306.336 245.701C307.181 250.768 309.776 255.112 313.121 259.072C317.215 263.925 322.302 266.595 329.175 265.894C334.424 265.356 339.209 263.932 343.348 260.798C350.809 255.148 353.786 247.582 353.823 239.255C353.955 236.917 353.654 235.073 353.117 233.281L353.11 233.289ZM330.814 253.187C327.94 254.536 324.941 255.355 321.802 253.585C319.082 252.058 317.73 249.13 318.634 246.276C319.023 245.052 319.354 243.813 319.795 242.611C322.346 235.671 326.308 233.053 334.174 233.06C336.467 233.001 338.709 233.399 340.959 233.746C341.723 233.864 341.841 234.115 341.863 234.719C342.142 241.578 338.048 249.787 330.814 253.187Z" fill="black"/>
<path d="M144.365 253.784C143.99 250.679 142.27 249.484 139.006 250.03C133.581 250.93 128.178 251.962 122.636 252.036C120.07 252.073 119.982 252.081 120.467 249.772C120.827 248.046 121.268 246.328 121.555 244.587C121.856 242.766 122.915 241.49 124.518 240.568C130.082 237.375 133.647 232.942 134.581 226.74C135.11 223.251 133.339 220.64 131.332 218.052C129.634 215.861 127.634 214.35 124.459 214.718C123.224 214.866 122.033 214.519 122.195 212.742C122.364 210.913 122.04 209.076 121.504 207.292C119.997 202.232 118.527 197.151 114.689 193.072C113.962 192.298 113.043 191.037 112.19 191.391C111.264 191.774 111.962 193.19 112.227 194.061C113.425 198.036 114.748 201.982 116.02 205.935C116.365 207.011 116.512 208.081 116.123 209.187C115.285 211.569 115.564 213.737 117.887 215.552C116.564 215.898 115.498 216.215 114.41 216.459C108.235 217.867 102.06 219.254 95.893 220.663C94.8124 220.913 93.7024 221.105 92.835 221.88C91.4603 223.104 91.4015 224.217 92.7321 225.508C93.8935 226.636 95.5695 226.828 97.3925 226.172C99.5758 225.383 101.766 224.579 104.619 224.542C102.869 226.533 101.127 227.971 99.8404 229.786C97.7822 232.691 97.7013 235.605 99.7596 238.496C102.818 242.788 107.155 244.912 112.646 244.934C114.292 244.934 114.814 245.495 114.542 247.11C114.388 248.039 114.05 248.946 113.969 249.868C113.77 252.176 112.3 253.224 110.08 253.74C104.766 254.986 99.4729 256.329 94.1434 257.553C92.585 257.907 91.5412 258.858 90.4092 259.78C89.8946 260.2 90.0196 260.451 90.4312 260.901C92.8203 263.512 94.3272 263.947 97.841 262.811C100.781 261.867 103.567 260.525 106.699 260.075C114.079 259.006 121.474 258.113 128.891 257.28C133.317 256.786 137.749 256.314 142.182 255.82C143.461 255.68 144.556 255.326 144.372 253.784H144.365ZM108.713 239.285C105.662 239.174 103.876 236.829 105.185 234.218C105.927 232.743 106.875 231.349 108.147 230.258C113.175 225.951 118.732 222.47 125.444 220.899C126.039 220.758 126.679 220.67 127.289 220.707C128.796 220.803 129.501 221.688 129.244 223.082C129.141 223.657 129.002 224.232 128.877 224.807C128.164 229.203 125.547 232.448 121.768 234.874C117.843 237.397 113.734 239.454 108.706 239.277L108.713 239.285Z" fill="black"/>
<path d="M230.805 158.528C230.709 156.44 230.481 154.361 230.636 152.259C230.856 149.176 230.974 146.086 230.724 142.988C230.518 140.451 227.776 137.361 225.343 137.169C222.189 136.926 219.014 136.955 215.875 137.243C214.633 137.354 213.273 137.221 212.111 137.892C210.634 138.74 209.274 139.006 207.752 137.767C206.877 137.051 205.584 136.778 204.408 137.376C203.268 137.958 203.408 139.028 203.481 140.031C203.79 144.294 204.363 148.556 204.334 152.812C204.297 157.834 204.974 162.894 203.775 167.909C203.187 170.379 206.848 172.813 209.862 172.437C214.625 171.832 219.359 170.977 224.196 170.999C227.159 171.014 229.357 169.885 229.893 167.997C230.18 166.994 230.312 165.954 230.511 164.929C230.856 162.812 230.93 160.681 230.805 158.542V158.528ZM219.212 164.715C217.213 164.9 215.184 164.804 213.199 165.239C212.633 165.364 212.295 164.995 212.075 164.538C211.744 162.053 212.449 159.575 212.097 157.089C211.891 154.257 211.773 151.418 211.45 148.601C211.288 147.236 211.611 146.351 212.971 145.783C215.721 144.64 218.198 142.833 221.521 143.276C222.726 143.438 223.27 143.822 223.13 144.884C222.704 148.143 223.307 151.396 223.123 154.648C223.189 157.274 223.123 159.892 222.748 162.495C222.829 164.988 220.631 164.568 219.212 164.7V164.715Z" fill="black"/>
<path d="M67.1288 33.269C71.5783 33.269 75.1854 29.6501 75.1854 25.1859C75.1854 20.7217 71.5783 17.1028 67.1288 17.1028C62.6792 17.1028 59.0721 20.7217 59.0721 25.1859C59.0721 29.6501 62.6792 33.269 67.1288 33.269Z" fill="#FABA33"/>
<path d="M92.7541 33.269C97.2037 33.269 100.811 29.6501 100.811 25.1859C100.811 20.7217 97.2037 17.1028 92.7541 17.1028C88.3046 17.1028 84.6975 20.7217 84.6975 25.1859C84.6975 29.6501 88.3046 33.269 92.7541 33.269Z" fill="#4FAF45"/>
<path d="M41.5107 33.269C45.9603 33.269 49.5674 29.6501 49.5674 25.1859C49.5674 20.7217 45.9603 17.1028 41.5107 17.1028C37.0612 17.1028 33.4541 20.7217 33.4541 25.1859C33.4541 29.6501 37.0612 33.269 41.5107 33.269Z" fill="#EC5F5B"/>
<path d="M402.435 21.8892C404.096 21.8892 405.434 23.2388 405.434 24.8982V33.4754C405.434 35.1422 404.089 36.4845 402.435 36.4845H393.885C392.224 36.4845 390.886 35.1348 390.886 33.4754V24.8982C390.886 23.2314 392.231 21.8892 393.885 21.8892" stroke="#303030" stroke-miterlimit="10"/>
<path d="M398.164 29.1906V17.8403" stroke="#303030" stroke-miterlimit="10"/>
<path d="M398.164 17.8403L395.179 20.8272" stroke="#303030" stroke-miterlimit="10"/>
<path d="M401.097 20.8271L397.826 17.5378" stroke="#303030" stroke-miterlimit="10"/>
<path d="M434.044 22.0588H425.164C423.811 22.0588 422.708 23.1577 422.708 24.5221V34.0286C422.708 35.3856 423.804 36.4919 425.164 36.4919H434.639C435.992 36.4919 437.094 35.393 437.094 34.0286V24.9056" stroke="#303030" stroke-miterlimit="10"/>
<path d="M427.391 31.2334L437.256 21.3286L437.726 21.7932L427.928 31.6242L427.259 31.934L427.391 31.2334Z" fill="#303030"/>
<path d="M438.292 21.2401C438.344 21.1516 438.292 20.9967 438.182 20.8861C438.072 20.7755 437.917 20.7239 437.829 20.7755L437.513 21.0926L437.976 21.5572L438.292 21.2401Z" fill="#303030"/>
<path d="M372.649 36.4845H355.05C354.521 36.4845 354.087 36.0567 354.087 35.5183V25.7168H373.604V35.5183C373.604 36.0493 373.178 36.4845 372.641 36.4845H372.649ZM373.611 25.7242V23.9099C373.611 23.1282 372.979 22.5013 372.207 22.5013H363.592C362.886 22.5013 362.254 22.0883 361.96 21.4393L361.571 20.5616C361.46 20.3183 361.218 20.156 360.946 20.156H354.72C354.374 20.156 354.095 20.4363 354.095 20.7829V25.7242H373.611Z" stroke="#303030" stroke-miterlimit="10"/>
<path d="M435.852 61.8697C435.852 60.106 434.427 58.6763 432.669 58.6763C430.911 58.6763 429.486 60.106 429.486 61.8697V143.217C429.486 144.981 430.911 146.41 432.669 146.41C434.427 146.41 435.852 144.981 435.852 143.217V61.8697Z" fill="#C3C2C2"/>
</svg>
